<svg xmlns="http://www.w3.org/2000/svg" width="0" height="0" style="position:absolute;width:0;height:0;overflow:hidden" aria-hidden="true">
  <defs>
    
    <linearGradient id="bf_brass" x1="0" y1="0" x2="0" y2="1">
      <stop offset="0" stop-color="#e6c578"></stop>
      <stop offset="0.5" stop-color="#a07a2f"></stop>
      <stop offset="1" stop-color="#4a3818"></stop>
    </linearGradient>
    <linearGradient id="bf_brass_h" x1="0" y1="0" x2="1" y2="0">
      <stop offset="0" stop-color="#4a3818"></stop>
      <stop offset="0.5" stop-color="#e6c578"></stop>
      <stop offset="1" stop-color="#4a3818"></stop>
    </linearGradient>
    <radialGradient id="bf_paper" cx="0.5" cy="0.5" r="0.7">
      <stop offset="0" stop-color="#f0e6c8"></stop>
      <stop offset="0.7" stop-color="#d4c298"></stop>
      <stop offset="1" stop-color="#a08858"></stop>
    </radialGradient>
    <radialGradient id="bf_essence" cx="0.5" cy="0.5" r="0.65">
      <stop offset="0" stop-color="#88c4ff"></stop>
      <stop offset="0.5" stop-color="#3a6890"></stop>
      <stop offset="1" stop-color="#0c1f33"></stop>
    </radialGradient>

    
    <radialGradient id="bf_e_fire" cx="0.5" cy="0.5" r="0.65"><stop offset="0" stop-color="#ffb878"></stop><stop offset="0.6" stop-color="#a82828"></stop><stop offset="1" stop-color="#3a0808"></stop></radialGradient>
    <radialGradient id="bf_e_water" cx="0.5" cy="0.5" r="0.65"><stop offset="0" stop-color="#a8d8ff"></stop><stop offset="0.6" stop-color="#3a6890"></stop><stop offset="1" stop-color="#0c1f33"></stop></radialGradient>
    <radialGradient id="bf_e_earth" cx="0.5" cy="0.5" r="0.65"><stop offset="0" stop-color="#d4b878"></stop><stop offset="0.6" stop-color="#7a5a2f"></stop><stop offset="1" stop-color="#3a2008"></stop></radialGradient>
    <radialGradient id="bf_e_wind" cx="0.5" cy="0.5" r="0.65"><stop offset="0" stop-color="#dff4ec"></stop><stop offset="0.6" stop-color="#7a9a8a"></stop><stop offset="1" stop-color="#1f2a25"></stop></radialGradient>
    <radialGradient id="bf_e_nature" cx="0.5" cy="0.5" r="0.65"><stop offset="0" stop-color="#c8f0a0"></stop><stop offset="0.6" stop-color="#5a8a32"></stop><stop offset="1" stop-color="#1f3008"></stop></radialGradient>

    <filter id="bf_glow" x="-30%" y="-30%" width="160%" height="160%">
      <feGaussianBlur stdDeviation="1.6" result="b"></feGaussianBlur>
      <feFlood flood-color="#ffd070" flood-opacity="0.45"></feFlood>
      <feComposite in2="b" operator="in" result="c"></feComposite>
      <feMerge><feMergeNode in="c"></feMergeNode><feMergeNode in="SourceGraphic"></feMergeNode></feMerge>
    </filter>
  </defs>

  
  
  

  <symbol id="bf_seal_fire" viewBox="0 0 96 96">
    <circle cx="48" cy="48" r="44" fill="url(#bf_e_fire)" stroke="#3a0808" stroke-width="1.5"></circle>
    <circle cx="48" cy="48" r="38" fill="none" stroke="url(#bf_brass)" stroke-width="1.5" opacity="0.85"></circle>
    <g filter="url(#bf_glow)">
      <path d="M48 22 Q56 36 60 46 Q60 60 48 64 Q36 60 36 46 Q40 36 48 22 Z" fill="#ffd070" stroke="#3a0808" stroke-width="1"></path>
      <path d="M48 30 Q52 40 54 46 Q54 56 48 58 Q42 56 42 46 Q44 40 48 30 Z" fill="#ff8a30" stroke="#3a0808" stroke-width="0.6"></path>
      <path d="M48 38 Q50 44 50 48 Q50 54 48 55 Q46 54 46 48 Q46 44 48 38 Z" fill="#fff8c0"></path>
    </g>
    <g fill="url(#bf_brass)" stroke="#3a2008" stroke-width="0.5">
      <circle cx="48" cy="8" r="3"></circle><circle cx="48" cy="88" r="3"></circle>
      <circle cx="8" cy="48" r="3"></circle><circle cx="88" cy="48" r="3"></circle>
    </g>
  </symbol>

  <symbol id="bf_seal_water" viewBox="0 0 96 96">
    <circle cx="48" cy="48" r="44" fill="url(#bf_e_water)" stroke="#0c1f33" stroke-width="1.5"></circle>
    <circle cx="48" cy="48" r="38" fill="none" stroke="url(#bf_brass)" stroke-width="1.5" opacity="0.85"></circle>
    <g filter="url(#bf_glow)">
      <path d="M48 22 Q60 38 60 52 Q60 64 48 64 Q36 64 36 52 Q36 38 48 22 Z" fill="#a8e0ff" stroke="#0c1f33" stroke-width="1"></path>
      <path d="M48 32 Q56 42 56 52 Q56 60 48 60 Q40 60 40 52 Q40 42 48 32 Z" fill="#5a9acc" opacity="0.85"></path>
      <ellipse cx="44" cy="48" rx="3" ry="6" fill="#fff" opacity="0.7"></ellipse>
    </g>
    <g fill="url(#bf_brass)" stroke="#3a2008" stroke-width="0.5">
      <circle cx="48" cy="8" r="3"></circle><circle cx="48" cy="88" r="3"></circle>
      <circle cx="8" cy="48" r="3"></circle><circle cx="88" cy="48" r="3"></circle>
    </g>
  </symbol>

  <symbol id="bf_seal_earth" viewBox="0 0 96 96">
    <circle cx="48" cy="48" r="44" fill="url(#bf_e_earth)" stroke="#3a2008" stroke-width="1.5"></circle>
    <circle cx="48" cy="48" r="38" fill="none" stroke="url(#bf_brass)" stroke-width="1.5" opacity="0.85"></circle>
    <g filter="url(#bf_glow)">
      <polygon points="48,24 64,38 60,58 36,58 32,38" fill="#a08458" stroke="#3a2008" stroke-width="1"></polygon>
      <polygon points="48,30 58,40 56,54 40,54 38,40" fill="#7a5a30" stroke="#3a2008" stroke-width="0.6"></polygon>
      <polygon points="48,36 52,42 48,48 44,42" fill="#fff0a8" opacity="0.85"></polygon>
    </g>
    <g fill="url(#bf_brass)" stroke="#3a2008" stroke-width="0.5">
      <circle cx="48" cy="8" r="3"></circle><circle cx="48" cy="88" r="3"></circle>
      <circle cx="8" cy="48" r="3"></circle><circle cx="88" cy="48" r="3"></circle>
    </g>
  </symbol>

  <symbol id="bf_seal_wind" viewBox="0 0 96 96">
    <circle cx="48" cy="48" r="44" fill="url(#bf_e_wind)" stroke="#1f2a25" stroke-width="1.5"></circle>
    <circle cx="48" cy="48" r="38" fill="none" stroke="url(#bf_brass)" stroke-width="1.5" opacity="0.85"></circle>
    <g fill="none" stroke="#dff4ec" stroke-width="2.4" stroke-linecap="round" filter="url(#bf_glow)">
      <path d="M28 36 Q44 32 56 36 Q66 38 64 44 Q60 48 52 46"></path>
      <path d="M26 50 Q44 46 60 50"></path>
      <path d="M30 62 Q42 60 52 62 Q60 64 58 68 Q54 70 50 68"></path>
    </g>
    <g fill="url(#bf_brass)" stroke="#3a2008" stroke-width="0.5">
      <circle cx="48" cy="8" r="3"></circle><circle cx="48" cy="88" r="3"></circle>
      <circle cx="8" cy="48" r="3"></circle><circle cx="88" cy="48" r="3"></circle>
    </g>
  </symbol>

  <symbol id="bf_seal_nature" viewBox="0 0 96 96">
    <circle cx="48" cy="48" r="44" fill="url(#bf_e_nature)" stroke="#1f3008" stroke-width="1.5"></circle>
    <circle cx="48" cy="48" r="38" fill="none" stroke="url(#bf_brass)" stroke-width="1.5" opacity="0.85"></circle>
    <g filter="url(#bf_glow)">
      <ellipse cx="48" cy="38" rx="9" ry="13" fill="#5a8a32" stroke="#1f3008" stroke-width="0.7"></ellipse>
      <ellipse cx="36" cy="48" rx="13" ry="9" fill="#5a8a32" stroke="#1f3008" stroke-width="0.7"></ellipse>
      <ellipse cx="60" cy="48" rx="13" ry="9" fill="#5a8a32" stroke="#1f3008" stroke-width="0.7"></ellipse>
      <ellipse cx="48" cy="60" rx="9" ry="13" fill="#5a8a32" stroke="#1f3008" stroke-width="0.7"></ellipse>
      <circle cx="48" cy="48" r="4" fill="#aef248" stroke="#1f3008" stroke-width="0.5"></circle>
      <line x1="48" y1="50" x2="48" y2="78" stroke="#3a5a18" stroke-width="2"></line>
    </g>
    <g fill="url(#bf_brass)" stroke="#3a2008" stroke-width="0.5">
      <circle cx="48" cy="8" r="3"></circle><circle cx="48" cy="88" r="3"></circle>
      <circle cx="8" cy="48" r="3"></circle><circle cx="88" cy="48" r="3"></circle>
    </g>
  </symbol>

  <symbol id="bf_seal_neutral" viewBox="0 0 96 96">
    <circle cx="48" cy="48" r="44" fill="url(#bf_essence)" stroke="#0c1f33" stroke-width="1.5"></circle>
    <circle cx="48" cy="48" r="38" fill="none" stroke="url(#bf_brass)" stroke-width="1.5" opacity="0.85"></circle>
    <g filter="url(#bf_glow)">
      <circle cx="48" cy="48" r="20" fill="none" stroke="#dff4ff" stroke-width="2.4"></circle>
      <circle cx="48" cy="48" r="12" fill="none" stroke="#dff4ff" stroke-width="1.6" opacity="0.7"></circle>
      <circle cx="48" cy="48" r="5" fill="#fff" opacity="0.85"></circle>
    </g>
    <g fill="url(#bf_brass)" stroke="#3a2008" stroke-width="0.5">
      <circle cx="48" cy="8" r="3"></circle><circle cx="48" cy="88" r="3"></circle>
      <circle cx="8" cy="48" r="3"></circle><circle cx="88" cy="48" r="3"></circle>
    </g>
  </symbol>

  
  
  

  <symbol id="bf_dmg_melee" viewBox="0 0 48 48">
    <circle cx="24" cy="24" r="22" fill="#1a1208" stroke="url(#bf_brass)" stroke-width="1.4"></circle>
    <g fill="url(#bf_brass)" stroke="#241810" stroke-width="0.5">
      
      <path d="M14 10 L34 30 L36 28 L16 8 Z"></path>
      <path d="M34 10 L14 30 L12 28 L32 8 Z"></path>
    </g>
    <circle cx="24" cy="38" r="3" fill="#a82828" stroke="#3a0808" stroke-width="0.4"></circle>
  </symbol>

  <symbol id="bf_dmg_ranged" viewBox="0 0 48 48">
    <circle cx="24" cy="24" r="22" fill="#1a1208" stroke="url(#bf_brass)" stroke-width="1.4"></circle>
    
    <path d="M10 10 L38 38" stroke="url(#bf_brass)" stroke-width="2.4" stroke-linecap="round"></path>
    <polygon points="38,38 30,38 38,30" fill="url(#bf_brass)" stroke="#241810" stroke-width="0.4"></polygon>
    <path d="M10 24 Q24 14 38 24" fill="none" stroke="url(#bf_brass)" stroke-width="1.6" opacity="0.85"></path>
  </symbol>

  <symbol id="bf_dmg_magic" viewBox="0 0 48 48">
    <circle cx="24" cy="24" r="22" fill="#1a1208" stroke="url(#bf_brass)" stroke-width="1.4"></circle>
    <g filter="url(#bf_glow)">
      <polygon points="24,8 28,20 40,24 28,28 24,40 20,28 8,24 20,20" fill="url(#bf_essence)" stroke="#0c1f33" stroke-width="0.6"></polygon>
      <circle cx="24" cy="24" r="3" fill="#fff" opacity="0.85"></circle>
    </g>
  </symbol>

  
  
  

  <symbol id="bf_b_combat" viewBox="0 0 48 48">
    <circle cx="24" cy="24" r="22" fill="#1a1208" stroke="url(#bf_brass)" stroke-width="1.4"></circle>
    <g fill="url(#bf_e_fire)" stroke="#3a0808" stroke-width="0.5">
      <path d="M24 10 L18 22 L26 22 L20 38 L34 20 L24 20 Z"></path>
    </g>
  </symbol>

  <symbol id="bf_b_passive" viewBox="0 0 48 48">
    <circle cx="24" cy="24" r="22" fill="#1a1208" stroke="url(#bf_brass)" stroke-width="1.4"></circle>
    <g filter="url(#bf_glow)">
      <circle cx="24" cy="24" r="10" fill="none" stroke="url(#bf_brass)" stroke-width="2"></circle>
      <circle cx="24" cy="24" r="3" fill="url(#bf_brass)"></circle>
    </g>
  </symbol>

  <symbol id="bf_b_fleeing" viewBox="0 0 48 48">
    <circle cx="24" cy="24" r="22" fill="#1a1208" stroke="url(#bf_brass)" stroke-width="1.4"></circle>
    
    <g fill="url(#bf_brass)" stroke="#241810" stroke-width="0.4">
      <ellipse cx="16" cy="32" rx="3" ry="5" transform="rotate(-20 16 32)"></ellipse>
      <ellipse cx="26" cy="22" rx="3" ry="5" transform="rotate(-20 26 22)"></ellipse>
      <ellipse cx="36" cy="12" rx="3" ry="5" transform="rotate(-20 36 12)"></ellipse>
    </g>
  </symbol>

  <symbol id="bf_b_boss" viewBox="0 0 48 48">
    <circle cx="24" cy="24" r="22" fill="#3a0808" stroke="url(#bf_brass)" stroke-width="1.6"></circle>
    
    <g fill="url(#bf_brass)" stroke="#241810" stroke-width="0.5">
      <path d="M10 32 L12 18 L18 24 L24 14 L30 24 L36 18 L38 32 Z"></path>
      <circle cx="12" cy="18" r="2" fill="#a82828"></circle>
      <circle cx="24" cy="14" r="2.4" fill="#a82828"></circle>
      <circle cx="36" cy="18" r="2" fill="#a82828"></circle>
      <rect x="10" y="32" width="28" height="3" fill="url(#bf_brass)"></rect>
    </g>
  </symbol>

  
  
  

  <symbol id="bf_corner" viewBox="0 0 64 64">
    <g fill="none" stroke="url(#bf_brass)" stroke-width="1.4">
      <path d="M2 2 L62 2"></path>
      <path d="M2 2 L2 62"></path>
      <path d="M2 2 L18 18"></path>
      <path d="M22 4 Q24 12 18 18 Q12 24 4 22"></path>
      <circle cx="22" cy="22" r="3" fill="url(#bf_brass)" stroke="#241810" stroke-width="0.5"></circle>
    </g>
    <g fill="url(#bf_brass)" stroke="#241810" stroke-width="0.4">
      <circle cx="14" cy="2" r="1.6"></circle>
      <circle cx="2" cy="14" r="1.6"></circle>
      <circle cx="32" cy="2" r="1.4"></circle>
      <circle cx="2" cy="32" r="1.4"></circle>
    </g>
  </symbol>

  
  
  

  <symbol id="bf_divider" viewBox="0 0 320 24">
    <line x1="20" y1="12" x2="140" y2="12" stroke="url(#bf_brass_h)" stroke-width="1.4"></line>
    <line x1="180" y1="12" x2="300" y2="12" stroke="url(#bf_brass_h)" stroke-width="1.4"></line>
    <g transform="translate(160 12)" fill="url(#bf_brass)" stroke="#241810" stroke-width="0.4">
      <polygon points="-12,0 0,-7 12,0 0,7"></polygon>
      <circle r="3" fill="#1a1208" stroke="url(#bf_brass)" stroke-width="0.8"></circle>
    </g>
    <g fill="url(#bf_brass)">
      <circle cx="20" cy="12" r="1.6"></circle>
      <circle cx="300" cy="12" r="1.6"></circle>
    </g>
  </symbol>

  
  
  

  <symbol id="bf_spine" viewBox="0 0 24 600" preserveAspectRatio="none">
    <rect x="0" y="0" width="24" height="600" fill="#1a1208"></rect>
    <rect x="2" y="0" width="20" height="600" fill="url(#bf_brass_h)" opacity="0.4"></rect>
    <line x1="6" y1="0" x2="6" y2="600" stroke="#3a2008" stroke-width="0.6"></line>
    <line x1="18" y1="0" x2="18" y2="600" stroke="#3a2008" stroke-width="0.6"></line>
    <g fill="url(#bf_brass)" stroke="#241810" stroke-width="0.4">
      <circle cx="12" cy="40" r="3"></circle>
      <circle cx="12" cy="120" r="3"></circle>
      <circle cx="12" cy="200" r="3"></circle>
      <circle cx="12" cy="300" r="3.5"></circle>
      <circle cx="12" cy="400" r="3"></circle>
      <circle cx="12" cy="480" r="3"></circle>
      <circle cx="12" cy="560" r="3"></circle>
    </g>
  </symbol>

  
  
  

  <symbol id="bf_lock" viewBox="0 0 96 96">
    <g fill="url(#bf_brass)" stroke="#241810" stroke-width="0.8" opacity="0.85">
      <rect x="24" y="44" width="48" height="40" rx="3"></rect>
      <path d="M32 44 L32 30 Q32 18 48 18 Q64 18 64 30 L64 44 L58 44 L58 30 Q58 24 48 24 Q38 24 38 30 L38 44 Z"></path>
      <circle cx="48" cy="60" r="5" fill="#1a1208" stroke="url(#bf_brass)" stroke-width="0.6"></circle>
      <rect x="46" y="62" width="4" height="14" fill="#1a1208"></rect>
    </g>
  </symbol>

  
  
  

  <symbol id="bf_unknown" viewBox="0 0 160 160">
    <rect x="6" y="6" width="148" height="148" rx="4" fill="#0e0a06" stroke="url(#bf_brass)" stroke-width="1.2"></rect>
    <g opacity="0.55">
      <use href="#bf_corner" x="2" y="2" width="32" height="32"></use>
      <use href="#bf_corner" x="158" y="2" width="32" height="32" transform="rotate(90 142 18)"></use>
      <use href="#bf_corner" x="158" y="158" width="32" height="32" transform="rotate(180 142 142)"></use>
      <use href="#bf_corner" x="2" y="158" width="32" height="32" transform="rotate(270 18 142)"></use>
    </g>
    <text x="80" y="100" text-anchor="middle" font-family="serif" font-size="100" fill="url(#bf_brass)" opacity="0.8" font-weight="700">?</text>
  </symbol>

  
  
  

  <symbol id="bf_ribbon" viewBox="0 0 24 120">
    <path d="M0 0 L24 0 L24 120 L12 108 L0 120 Z" fill="#7a1818" stroke="#3a0808" stroke-width="0.6"></path>
    <line x1="6" y1="0" x2="6" y2="100" stroke="#a83838" stroke-width="0.6" opacity="0.7"></line>
    <line x1="18" y1="0" x2="18" y2="100" stroke="#5a0808" stroke-width="0.6" opacity="0.7"></line>
  </symbol>

  
  
  

  <symbol id="bf_xp_gem" viewBox="0 0 24 24">
    <polygon points="12,2 22,9 18,22 6,22 2,9" fill="url(#bf_essence)" stroke="#0c1f33" stroke-width="0.8" filter="url(#bf_glow)"></polygon>
    <polygon points="12,5 12,16" stroke="#fff" stroke-width="0.6" opacity="0.6" fill="none"></polygon>
  </symbol>

</svg>