<svg xmlns="http://www.w3.org/2000/svg" width="0" height="0" style="position:absolute;width:0;height:0;overflow:hidden" aria-hidden="true">
  <defs>
    <radialGradient id="nb_bg" cx="0.5" cy="0.5" r="0.7"><stop offset="0" stop-color="#1c2230" stop-opacity="0.7"></stop><stop offset="1" stop-color="#0b0905" stop-opacity="0"></stop></radialGradient>
    <linearGradient id="nm_steel" x1="0" y1="0" x2="0" y2="1"><stop offset="0" stop-color="#e8e4dc"></stop><stop offset="0.5" stop-color="#9a948a"></stop><stop offset="1" stop-color="#3a362e"></stop></linearGradient>
    <linearGradient id="nm_brass" x1="0" y1="0" x2="0" y2="1"><stop offset="0" stop-color="#e6c578"></stop><stop offset="0.5" stop-color="#a07a2f"></stop><stop offset="1" stop-color="#4a3818"></stop></linearGradient>
    <radialGradient id="ne_gold" cx="0.5" cy="0.5" r="0.65"><stop offset="0" stop-color="#fff0a8"></stop><stop offset="0.6" stop-color="#a07a2f"></stop><stop offset="1" stop-color="#3a2008"></stop></radialGradient>
    <radialGradient id="ne_blue" cx="0.5" cy="0.5" r="0.65"><stop offset="0" stop-color="#dff4ff"></stop><stop offset="0.6" stop-color="#3a6890"></stop><stop offset="1" stop-color="#0c1f33"></stop></radialGradient>
    <radialGradient id="ne_green" cx="0.5" cy="0.5" r="0.65"><stop offset="0" stop-color="#c8f0a0"></stop><stop offset="0.6" stop-color="#5a8a32"></stop><stop offset="1" stop-color="#1f3008"></stop></radialGradient>
    <radialGradient id="ne_red" cx="0.5" cy="0.5" r="0.65"><stop offset="0" stop-color="#ffb0b0"></stop><stop offset="0.6" stop-color="#a82828"></stop><stop offset="1" stop-color="#3a0808"></stop></radialGradient>
    <radialGradient id="ne_purple" cx="0.5" cy="0.5" r="0.65"><stop offset="0" stop-color="#e8c8ff"></stop><stop offset="0.6" stop-color="#6a3aa8"></stop><stop offset="1" stop-color="#1f0c3a"></stop></radialGradient>
    <filter id="nf_glow" x="-30%" y="-30%" width="160%" height="160%">
      <feGaussianBlur stdDeviation="2" result="b"></feGaussianBlur>
      <feFlood flood-color="#ffd070" flood-opacity="0.5"></feFlood>
      <feComposite in2="b" operator="in" result="c"></feComposite>
      <feMerge><feMergeNode in="c"></feMergeNode><feMergeNode in="SourceGraphic"></feMergeNode></feMerge>
    </filter>
    <filter id="nf_glow_cool" x="-30%" y="-30%" width="160%" height="160%">
      <feGaussianBlur stdDeviation="2" result="b"></feGaussianBlur>
      <feFlood flood-color="#88ccff" flood-opacity="0.55"></feFlood>
      <feComposite in2="b" operator="in" result="c"></feComposite>
      <feMerge><feMergeNode in="c"></feMergeNode><feMergeNode in="SourceGraphic"></feMergeNode></feMerge>
    </filter>
    <filter id="nf_glow_green" x="-30%" y="-30%" width="160%" height="160%">
      <feGaussianBlur stdDeviation="2" result="b"></feGaussianBlur>
      <feFlood flood-color="#aef248" flood-opacity="0.55"></feFlood>
      <feComposite in2="b" operator="in" result="c"></feComposite>
      <feMerge><feMergeNode in="c"></feMergeNode><feMergeNode in="SourceGraphic"></feMergeNode></feMerge>
    </filter>

    
    <g id="nb_boot">
      <path d="M-8 -10 L4 -10 L8 -2 L8 6 L-8 6 Z" fill="url(#nm_steel)" stroke="#1a1208" stroke-width="0.6"></path>
      <rect x="-8" y="6" width="18" height="3" fill="url(#nm_brass)" stroke="#1a1208" stroke-width="0.4"></rect>
    </g>
    <g id="nb_shield">
      <path d="M0 -14 L12 -10 Q12 6 0 14 Q-12 6 -12 -10 Z" fill="url(#nm_steel)" stroke="#1a1208" stroke-width="0.7"></path>
      <path d="M0 -10 L0 8 M-8 -2 L8 -2" stroke="url(#nm_brass)" stroke-width="1.4"></path>
    </g>
    <g id="nb_heart">
      <path d="M0 8 Q-10 0 -8 -4 Q-4 -8 0 -4 Q4 -8 8 -4 Q10 0 0 8 Z" fill="url(#ne_red)" stroke="#3a0808" stroke-width="0.6"></path>
    </g>
    <g id="nb_droplet">
      <path d="M0 -10 Q6 -2 6 4 Q6 10 0 10 Q-6 10 -6 4 Q-6 -2 0 -10 Z" fill="url(#ne_blue)" stroke="#0c1f33" stroke-width="0.6"></path>
    </g>
  </defs>

  

  <symbol id="ab_acceleration" viewBox="0 0 78 78">
    <rect width="78" height="78" fill="url(#nb_bg)"></rect>
    <g filter="url(#nf_glow)">
      <use href="#nb_boot" transform="translate(46,46) rotate(-15)"></use>
      <g fill="none" stroke="url(#ne_gold)" stroke-width="2.4" stroke-linecap="round" opacity="0.85">
        <path d="M14 36 L30 32"></path>
        <path d="M10 46 L26 42"></path>
        <path d="M16 56 L30 52"></path>
      </g>
    </g>
  </symbol>

  <symbol id="ab_dash" viewBox="0 0 78 78">
    <rect width="78" height="78" fill="url(#nb_bg)"></rect>
    <g filter="url(#nf_glow)">
      <g fill="none" stroke="url(#ne_gold)" stroke-width="3" stroke-linecap="round">
        <path d="M14 26 L52 26"></path>
        <path d="M14 39 L60 39"></path>
        <path d="M14 52 L52 52"></path>
      </g>
      <g fill="url(#ne_gold)" stroke="#3a2008" stroke-width="0.5">
        <path d="M52 22 L66 26 L52 30 Z"></path>
        <path d="M60 35 L72 39 L60 43 Z"></path>
        <path d="M52 48 L66 52 L52 56 Z"></path>
      </g>
    </g>
  </symbol>

  <symbol id="ab_shadow_step" viewBox="0 0 78 78">
    <rect width="78" height="78" fill="url(#nb_bg)"></rect>
    <g filter="url(#nf_glow)">
      
      <path d="M22 52 Q26 36 32 30 L40 22 L44 24 L42 32 L46 38 L52 30 L56 32 L48 44 L46 56 L40 60 L36 56 L34 52 Z" fill="#6a4aa8" stroke="#1f0c3a" stroke-width="0.8" opacity="0.95"></path>
      
      <g fill="#a888d8" opacity="0.5">
        <circle cx="14" cy="60" r="3"></circle><circle cx="22" cy="64" r="2.2"></circle>
        <circle cx="10" cy="52" r="2"></circle><circle cx="18" cy="50" r="1.6"></circle>
      </g>
      
      <g transform="translate(58,18)" stroke="#ff5050" stroke-width="1" fill="none">
        <circle r="6"></circle><line x1="-8" y1="0" x2="-2" y2="0"></line><line x1="2" y1="0" x2="8" y2="0"></line>
        <line x1="0" y1="-8" x2="0" y2="-2"></line><line x1="0" y1="2" x2="0" y2="8"></line>
      </g>
    </g>
  </symbol>

  <symbol id="ab_ram" viewBox="0 0 78 78">
    <rect width="78" height="78" fill="url(#nb_bg)"></rect>
    <g filter="url(#nf_glow)">
      
      <rect x="14" y="38" width="44" height="3" fill="url(#nm_brass)" stroke="#241810" stroke-width="0.4"></rect>
      <polygon points="58,32 72,39 58,46 62,39" fill="url(#nm_steel)" stroke="#1a1a1a" stroke-width="0.5"></polygon>
      
      <g fill="none" stroke="url(#ne_gold)" stroke-width="2" stroke-linecap="round" opacity="0.85">
        <path d="M22 18 L14 26"></path><path d="M30 14 L22 22"></path>
        <path d="M22 60 L14 52"></path><path d="M30 64 L22 56"></path>
      </g>
    </g>
  </symbol>

  

  <symbol id="ab_heal" viewBox="0 0 78 78">
    <rect width="78" height="78" fill="url(#nb_bg)"></rect>
    <g filter="url(#nf_glow_green)">
      
      <rect x="32" y="14" width="14" height="50" rx="2" fill="url(#ne_green)" stroke="#1f3008" stroke-width="0.8"></rect>
      <rect x="14" y="32" width="50" height="14" rx="2" fill="url(#ne_green)" stroke="#1f3008" stroke-width="0.8"></rect>
      <rect x="35" y="17" width="8" height="44" fill="#dff8b8" opacity="0.4"></rect>
      <rect x="17" y="35" width="44" height="8" fill="#dff8b8" opacity="0.4"></rect>
    </g>
  </symbol>

  <symbol id="ab_ally_heal" viewBox="0 0 78 78">
    <rect width="78" height="78" fill="url(#nb_bg)"></rect>
    <g filter="url(#nf_glow_green)">
      
      <g fill="url(#ne_green)" stroke="#1f3008" stroke-width="0.5">
        <circle cx="22" cy="28" r="5"></circle>
        <path d="M14 56 Q14 38 22 38 Q30 38 30 56 Z"></path>
        <circle cx="56" cy="28" r="5"></circle>
        <path d="M48 56 Q48 38 56 38 Q64 38 64 56 Z"></path>
      </g>
      
      <rect x="36" y="34" width="6" height="20" rx="1" fill="#aef248" stroke="#1f3008" stroke-width="0.4"></rect>
      <rect x="29" y="41" width="20" height="6" rx="1" fill="#aef248" stroke="#1f3008" stroke-width="0.4"></rect>
    </g>
  </symbol>

  <symbol id="ab_purify" viewBox="0 0 78 78">
    <rect width="78" height="78" fill="url(#nb_bg)"></rect>
    <g filter="url(#nf_glow)">
      
      <g fill="url(#ne_gold)" opacity="0.5">
        <path d="M30 8 L48 8 L52 30 L26 30 Z"></path>
      </g>
      <g fill="none" stroke="#fff0a8" stroke-width="1.4" stroke-linecap="round" opacity="0.9">
        <line x1="32" y1="14" x2="34" y2="40"></line>
        <line x1="39" y1="14" x2="39" y2="42"></line>
        <line x1="46" y1="14" x2="44" y2="40"></line>
      </g>
      <use href="#nb_heart" transform="translate(39,52)"></use>
    </g>
  </symbol>

  <symbol id="ab_sustain" viewBox="0 0 78 78">
    <rect width="78" height="78" fill="url(#nb_bg)"></rect>
    <g filter="url(#nf_glow_green)">
      <use href="#nb_heart" transform="translate(39,42) scale(1.6)"></use>
      
      <g fill="#aef248" stroke="#1f3008" stroke-width="0.4">
        <path d="M14 26 L17 18 L20 26 L18.5 26 L18.5 32 L15.5 32 L15.5 26 Z"></path>
        <path d="M58 26 L61 18 L64 26 L62.5 26 L62.5 32 L59.5 32 L59.5 26 Z"></path>
      </g>
      
      <g fill="#fff0a8">
        <circle cx="20" cy="58" r="1.4"></circle><circle cx="58" cy="58" r="1.4"></circle>
        <circle cx="14" cy="48" r="1"></circle><circle cx="64" cy="48" r="1"></circle>
      </g>
    </g>
  </symbol>

  <symbol id="ab_spirit_resilience" viewBox="0 0 78 78">
    <rect width="78" height="78" fill="url(#nb_bg)"></rect>
    <g filter="url(#nf_glow_green)">
      <use href="#nb_heart" transform="translate(39,42) scale(1.6)"></use>
      
      <g fill="none" stroke="#5a3a22" stroke-width="1.6" stroke-linecap="round">
        <path d="M14 32 L24 28"></path>
        <path d="M54 28 L64 32"></path>
        <path d="M14 56 L24 60"></path>
        <path d="M54 60 L64 56"></path>
      </g>
      
      <g fill="#3a0808">
        <circle cx="14" cy="32" r="1.6"></circle><circle cx="64" cy="32" r="1.6"></circle>
        <circle cx="14" cy="56" r="1.6"></circle><circle cx="64" cy="56" r="1.6"></circle>
      </g>
    </g>
  </symbol>

  

  <symbol id="ab_maneuver" viewBox="0 0 78 78">
    <rect width="78" height="78" fill="url(#nb_bg)"></rect>
    <g filter="url(#nf_glow_cool)">
      
      <g fill="url(#ne_blue)" stroke="#0c1f33" stroke-width="0.5">
        <circle cx="22" cy="32" r="4"></circle><path d="M16 50 Q16 38 22 38 Q28 38 28 50 Z"></path>
        <circle cx="39" cy="28" r="4"></circle><path d="M33 46 Q33 34 39 34 Q45 34 45 46 Z"></path>
        <circle cx="56" cy="32" r="4"></circle><path d="M50 50 Q50 38 56 38 Q62 38 62 50 Z"></path>
      </g>
      <g fill="none" stroke="#88ccff" stroke-width="1.4" stroke-linecap="round" opacity="0.85">
        <path d="M10 60 Q22 64 14 70"></path>
        <path d="M68 60 Q56 64 64 70"></path>
      </g>
    </g>
  </symbol>

  <symbol id="ab_cover" viewBox="0 0 78 78">
    <rect width="78" height="78" fill="url(#nb_bg)"></rect>
    <g filter="url(#nf_glow)">
      <use href="#nb_shield" transform="translate(39,42) scale(1.6)"></use>
      
      <g transform="translate(64,18)" fill="url(#nm_steel)" stroke="#1a1a1a" stroke-width="0.4">
        <line x1="0" y1="0" x2="-8" y2="8" stroke="url(#nm_steel)" stroke-width="2"></line>
        <polygon points="-8,8 -4,4 -4,12"></polygon>
      </g>
      <line x1="58" y1="22" x2="60" y2="20" stroke="#ffd070" stroke-width="2.4" stroke-linecap="round"></line>
    </g>
  </symbol>

  <symbol id="ab_iron_skin" viewBox="0 0 78 78">
    <rect width="78" height="78" fill="url(#nb_bg)"></rect>
    <g filter="url(#nf_glow)">
      <use href="#nb_shield" transform="translate(39,40) scale(1.8)"></use>
      
      <g fill="url(#nm_steel)" stroke="#1a1a1a" stroke-width="0.4">
        <circle cx="30" cy="30" r="1.6"></circle><circle cx="48" cy="30" r="1.6"></circle>
        <circle cx="30" cy="50" r="1.6"></circle><circle cx="48" cy="50" r="1.6"></circle>
      </g>
      
      <g fill="#ffd070" opacity="0.85">
        <circle cx="20" cy="14" r="2"></circle><circle cx="39" cy="10" r="2"></circle><circle cx="58" cy="14" r="2"></circle>
      </g>
    </g>
  </symbol>

  <symbol id="ab_fortune" viewBox="0 0 78 78">
    <rect width="78" height="78" fill="url(#nb_bg)"></rect>
    <g filter="url(#nf_glow)">
      
      <g transform="translate(39,40)">
        <ellipse cx="0" cy="-12" rx="9" ry="11" fill="url(#ne_green)" stroke="#1f3008" stroke-width="0.6"></ellipse>
        <ellipse cx="-12" cy="0" rx="11" ry="9" fill="url(#ne_green)" stroke="#1f3008" stroke-width="0.6"></ellipse>
        <ellipse cx="12" cy="0" rx="11" ry="9" fill="url(#ne_green)" stroke="#1f3008" stroke-width="0.6"></ellipse>
        <ellipse cx="0" cy="12" rx="9" ry="11" fill="url(#ne_green)" stroke="#1f3008" stroke-width="0.6"></ellipse>
        <circle cx="0" cy="0" r="3" fill="#5a8a32"></circle>
      </g>
      <g fill="#fff0a8">
        <circle cx="14" cy="20" r="1.2"></circle><circle cx="64" cy="20" r="1.2"></circle>
        <circle cx="14" cy="60" r="1.2"></circle><circle cx="64" cy="60" r="1.2"></circle>
      </g>
    </g>
  </symbol>

  <symbol id="ab_mana_flow" viewBox="0 0 78 78">
    <rect width="78" height="78" fill="url(#nb_bg)"></rect>
    <g filter="url(#nf_glow_cool)">
      <use href="#nb_droplet" transform="translate(39,38) scale(2.2)"></use>
      
      <g fill="none" stroke="#88ccff" stroke-width="1.4" stroke-linecap="round" opacity="0.9">
        <path d="M14 60 Q39 70 64 60"></path>
        <path d="M14 60 L18 56"></path><path d="M14 60 L18 64"></path>
      </g>
    </g>
  </symbol>

  <symbol id="ab_mana_link" viewBox="0 0 78 78">
    <rect width="78" height="78" fill="url(#nb_bg)"></rect>
    <g filter="url(#nf_glow_cool)">
      
      <use href="#nb_droplet" transform="translate(20,32) scale(1.3)"></use>
      <use href="#nb_droplet" transform="translate(58,46) scale(1.3)"></use>
      <g fill="none" stroke="#88ccff" stroke-width="2" stroke-linecap="round">
        <path d="M28 38 Q38 42 50 42"></path>
      </g>
      
      <line x1="14" y1="32" x2="20" y2="32" stroke="#ff5050" stroke-width="2" stroke-linecap="round"></line>
      <g stroke="#aef248" stroke-width="2" stroke-linecap="round">
        <line x1="58" y1="50" x2="64" y2="50"></line>
        <line x1="61" y1="47" x2="61" y2="53"></line>
      </g>
    </g>
  </symbol>

  <symbol id="ab_battle_march" viewBox="0 0 78 78">
    <rect width="78" height="78" fill="url(#nb_bg)"></rect>
    <g filter="url(#nf_glow)">
      
      <use href="#nb_boot" transform="translate(20,46) rotate(-10) scale(0.85)"></use>
      <use href="#nb_boot" transform="translate(39,42) rotate(-10) scale(0.85)"></use>
      <use href="#nb_boot" transform="translate(58,46) rotate(-10) scale(0.85)"></use>
      
      <g fill="none" stroke="url(#ne_gold)" stroke-width="2" stroke-linecap="round" opacity="0.85">
        <path d="M10 22 L26 22"></path><path d="M14 30 L34 30"></path><path d="M10 14 L22 14"></path>
      </g>
    </g>
  </symbol>

  

  <symbol id="ab_shield_stance" viewBox="0 0 78 78">
    <rect width="78" height="78" fill="url(#nb_bg)"></rect>
    <g filter="url(#nf_glow)">
      <use href="#nb_shield" transform="translate(39,40) scale(1.7)"></use>
      
      <g fill="none" stroke="#3a362e" stroke-width="1.6" stroke-linecap="round">
        <path d="M30 60 L26 68"></path><path d="M48 60 L52 68"></path>
      </g>
      <g fill="url(#nm_steel)" stroke="#1a1a1a" stroke-width="0.5">
        <circle cx="26" cy="68" r="2.4"></circle><circle cx="52" cy="68" r="2.4"></circle>
      </g>
    </g>
  </symbol>

  <symbol id="ab_ranged_resist" viewBox="0 0 78 78">
    <rect width="78" height="78" fill="url(#nb_bg)"></rect>
    <g filter="url(#nf_glow)">
      <use href="#nb_shield" transform="translate(39,42) scale(1.6)"></use>
      
      <g stroke="url(#nm_steel)" stroke-width="2" stroke-linecap="round">
        <line x1="14" y1="22" x2="22" y2="30"></line>
        <line x1="64" y1="22" x2="56" y2="30"></line>
      </g>
      <g fill="url(#nm_steel)" stroke="#1a1a1a" stroke-width="0.3">
        <polygon points="22,30 18,30 22,34"></polygon>
        <polygon points="56,30 56,34 60,30"></polygon>
      </g>
      
      <line x1="20" y1="36" x2="14" y2="42" stroke="#5a3a22" stroke-width="1.4"></line>
      <line x1="58" y1="36" x2="64" y2="42" stroke="#5a3a22" stroke-width="1.4"></line>
    </g>
  </symbol>

  <symbol id="ab_unshakeable" viewBox="0 0 78 78">
    <rect width="78" height="78" fill="url(#nb_bg)"></rect>
    <g filter="url(#nf_glow)">
      
      <circle cx="39" cy="38" r="16" fill="url(#ne_gold)" stroke="#3a2008" stroke-width="0.7"></circle>
      
      <g fill="#fff0a8" stroke="#3a2008" stroke-width="0.4" opacity="0.9">
        <path d="M22 18 L24 22 L28 22 L25 25 L26 29 L22 26 L18 29 L19 25 L16 22 L20 22 Z"></path>
      </g>
      <line x1="14" y1="14" x2="32" y2="32" stroke="#ff3030" stroke-width="2" stroke-linecap="round"></line>
      
      <use href="#nb_shield" transform="translate(56,58) scale(0.7)"></use>
    </g>
  </symbol>

  <symbol id="ab_firm_stance" viewBox="0 0 78 78">
    <rect width="78" height="78" fill="url(#nb_bg)"></rect>
    <g filter="url(#nf_glow)">
      <use href="#nb_boot" transform="translate(28,52) scale(1.6)"></use>
      <use href="#nb_boot" transform="translate(50,52) scale(1.6)"></use>
      
      <g fill="url(#nm_brass)" stroke="#3a2008" stroke-width="0.4">
        <path d="M14 70 L18 60 L22 70 Z"></path>
        <path d="M56 70 L60 60 L64 70 Z"></path>
      </g>
      
      <g stroke="#ff3030" stroke-width="2" stroke-linecap="round">
        <line x1="32" y1="20" x2="46" y2="34"></line>
        <line x1="46" y1="20" x2="32" y2="34"></line>
      </g>
    </g>
  </symbol>

  <symbol id="ab_adaptation" viewBox="0 0 78 78">
    <rect width="78" height="78" fill="url(#nb_bg)"></rect>
    <g filter="url(#nf_glow)">
      
      <g fill="none" stroke="url(#ne_gold)" stroke-width="2.4" stroke-linecap="round">
        <path d="M16 28 L62 28"></path>
        <path d="M62 50 L16 50"></path>
      </g>
      <g fill="url(#ne_gold)" stroke="#3a2008" stroke-width="0.4">
        <polygon points="62,28 54,24 54,32"></polygon>
        <polygon points="16,50 24,46 24,54"></polygon>
      </g>
      
      <circle cx="39" cy="39" r="6" fill="url(#ne_blue)" stroke="#0c1f33" stroke-width="0.6"></circle>
      <circle cx="37" cy="37" r="2" fill="#fff" opacity="0.8"></circle>
    </g>
  </symbol>

  

  <symbol id="ab_desperation" viewBox="0 0 78 78">
    <rect width="78" height="78" fill="url(#nb_bg)"></rect>
    <g filter="url(#nf_glow)">
      
      <use href="#nb_heart" transform="translate(39,38) scale(2)"></use>
      <path d="M39 24 L34 36 L42 42 L36 52" stroke="#3a0808" stroke-width="2" fill="none" stroke-linecap="round"></path>
      
      <g fill="#3a0808">
        <circle cx="16" cy="22" r="1.6"></circle><circle cx="62" cy="22" r="1.6"></circle>
        <circle cx="14" cy="56" r="1.6"></circle><circle cx="64" cy="56" r="1.6"></circle>
      </g>
      
      <circle cx="58" cy="60" r="6" fill="url(#ne_red)" stroke="#3a0808" stroke-width="0.6"></circle>
    </g>
  </symbol>

  <symbol id="ab_expose" viewBox="0 0 78 78">
    <rect width="78" height="78" fill="url(#nb_bg)"></rect>
    <g filter="url(#nf_glow)">
      
      <g transform="translate(36,36)">
        <circle r="18" fill="none" stroke="url(#ne_gold)" stroke-width="2"></circle>
        <circle r="10" fill="none" stroke="url(#ne_gold)" stroke-width="1.4"></circle>
        <circle r="3" fill="url(#ne_gold)"></circle>
      </g>
      
      <g transform="translate(60,18)">
        <circle r="8" fill="url(#ne_red)" stroke="#3a0808" stroke-width="0.7"></circle>
        <rect x="-1.2" y="-4" width="2.4" height="6" fill="#fff"></rect>
        <circle cx="0" cy="4" r="1.2" fill="#fff"></circle>
      </g>
    </g>
  </symbol>

  <symbol id="ab_execute" viewBox="0 0 78 78">
    <rect width="78" height="78" fill="url(#nb_bg)"></rect>
    <g filter="url(#nf_glow)">
      
      <g transform="translate(39,40)">
        <ellipse cx="0" cy="-2" rx="14" ry="14" fill="url(#nm_steel)" stroke="#1a1a1a" stroke-width="0.7"></ellipse>
        <rect x="-9" y="9" width="18" height="6" rx="1" fill="url(#nm_steel)" stroke="#1a1a1a" stroke-width="0.6"></rect>
        <ellipse cx="-5" cy="0" rx="3" ry="4" fill="#1a1a1a"></ellipse>
        <ellipse cx="5" cy="0" rx="3" ry="4" fill="#1a1a1a"></ellipse>
        <path d="M-2 6 L0 9 L2 6" stroke="#1a1a1a" stroke-width="0.8" fill="none"></path>
        <line x1="-7" y1="11" x2="-7" y2="14" stroke="#1a1a1a" stroke-width="0.6"></line>
        <line x1="0" y1="11" x2="0" y2="14" stroke="#1a1a1a" stroke-width="0.6"></line>
        <line x1="7" y1="11" x2="7" y2="14" stroke="#1a1a1a" stroke-width="0.6"></line>
      </g>
      
      <rect x="14" y="62" width="50" height="6" rx="1" fill="#3a0808" stroke="#1a1208" stroke-width="0.5"></rect>
      <rect x="15" y="63" width="12" height="4" rx="0.5" fill="#ff3030"></rect>
    </g>
  </symbol>

  <symbol id="ab_pure_strike" viewBox="0 0 78 78">
    <rect width="78" height="78" fill="url(#nb_bg)"></rect>
    <g filter="url(#nf_glow)">
      
      <path d="M16 60 L62 14" stroke="#ffffff" stroke-width="6" stroke-linecap="round" opacity="0.95"></path>
      <path d="M16 60 L62 14" stroke="url(#ne_gold)" stroke-width="2" stroke-linecap="round"></path>
      
      <g transform="translate(20,20)">
        <circle r="8" fill="none" stroke="url(#ne_purple)" stroke-width="1.4" opacity="0.7"></circle>
        <line x1="-6" y1="-6" x2="6" y2="6" stroke="#ff3030" stroke-width="1.6" stroke-linecap="round"></line>
        <line x1="6" y1="-6" x2="-6" y2="6" stroke="#ff3030" stroke-width="1.6" stroke-linecap="round"></line>
      </g>
    </g>
  </symbol>

  

  <symbol id="ab_fire_trap" viewBox="0 0 78 78">
    <rect width="78" height="78" fill="url(#nb_bg)"></rect>
    <g filter="url(#nf_glow)">
      <ellipse cx="39" cy="56" rx="22" ry="6" fill="#3a1208" opacity="0.7"></ellipse>
      
      <g fill="url(#nm_steel)" stroke="#1a1a1a" stroke-width="0.5">
        <path d="M18 56 L18 46 L23 52 L26 44 L30 52 L34 44 L38 54 L42 44 L46 52 L50 44 L53 52 L58 46 L60 56 Z"></path>
      </g>
      
      <path d="M30 40 Q34 22 39 32 Q44 22 48 40 Q42 36 39 40 Q36 36 30 40 Z" fill="url(#ne_red)" stroke="#3a0808" stroke-width="0.6"></path>
      <path d="M34 36 Q38 26 39 32 Q40 26 44 36 Q40 32 39 34 Q38 32 34 36 Z" fill="#ffd070" opacity="0.85"></path>
    </g>
  </symbol>

  <symbol id="ab_poison_trap" viewBox="0 0 78 78">
    <rect width="78" height="78" fill="url(#nb_bg)"></rect>
    <g filter="url(#nf_glow_green)">
      <ellipse cx="39" cy="56" rx="22" ry="6" fill="#1f3008" opacity="0.7"></ellipse>
      <g fill="url(#nm_steel)" stroke="#1a1a1a" stroke-width="0.5">
        <path d="M18 56 L18 46 L23 52 L26 44 L30 52 L34 44 L38 54 L42 44 L46 52 L50 44 L53 52 L58 46 L60 56 Z"></path>
      </g>
      
      <g transform="translate(39,32)">
        <path d="M-6 -10 L-4 -8 L-4 0 L-8 8 Q-8 12 0 12 Q8 12 8 8 L4 0 L4 -8 L6 -10 Z" fill="url(#ne_green)" stroke="#1f3008" stroke-width="0.6"></path>
        <ellipse cx="0" cy="6" rx="5" ry="2" fill="#aef248" opacity="0.7"></ellipse>
      </g>
    </g>
  </symbol>

  <symbol id="ab_whirlwind" viewBox="0 0 78 78">
    <rect width="78" height="78" fill="url(#nb_bg)"></rect>
    <g filter="url(#nf_glow)">
      
      <g fill="none" stroke="url(#nm_steel)" stroke-width="3" stroke-linecap="round" opacity="0.95">
        <path d="M14 30 Q24 38 14 46"></path>
        <path d="M64 30 Q54 38 64 46"></path>
        <path d="M30 14 Q38 24 46 14"></path>
        <path d="M30 64 Q38 54 46 64"></path>
      </g>
      
      <circle cx="39" cy="39" r="5" fill="url(#ne_gold)" stroke="#3a2008" stroke-width="0.5"></circle>
      <line x1="39" y1="34" x2="39" y2="20" stroke="url(#nm_steel)" stroke-width="1.4"></line>
      
      <g fill="#ffd070" stroke="#3a2008" stroke-width="0.3">
        <polygon points="22,28 18,30 22,32"></polygon>
        <polygon points="56,46 60,48 56,50"></polygon>
      </g>
    </g>
  </symbol>

  

  <symbol id="ab_combo" viewBox="0 0 78 78">
    <rect width="78" height="78" fill="url(#nb_bg)"></rect>
    <g filter="url(#nf_glow)">
      
      <g fill="none" stroke="url(#ne_gold)" stroke-width="3" stroke-linecap="round" opacity="0.9">
        <path d="M14 22 L26 18"></path>
        <path d="M16 38 L30 34"></path>
        <path d="M14 56 L26 52"></path>
      </g>
      <g fill="url(#ne_red)" stroke="#3a0808" stroke-width="0.5">
        <circle cx="50" cy="22" r="6"></circle>
        <circle cx="56" cy="38" r="6"></circle>
        <circle cx="50" cy="56" r="6"></circle>
      </g>
      <g fill="#fff" opacity="0.7">
        <circle cx="48" cy="20" r="1.6"></circle><circle cx="54" cy="36" r="1.6"></circle><circle cx="48" cy="54" r="1.6"></circle>
      </g>
    </g>
  </symbol>

  <symbol id="ab_ricochet" viewBox="0 0 78 78">
    <rect width="78" height="78" fill="url(#nb_bg)"></rect>
    <g filter="url(#nf_glow)">
      
      <g fill="none" stroke="url(#ne_gold)" stroke-width="2" stroke-linecap="round" stroke-dasharray="2 2">
        <path d="M10 60 L40 28 L66 50"></path>
      </g>
      
      <g transform="translate(66,50) rotate(40)">
        <line x1="-12" y1="0" x2="0" y2="0" stroke="url(#nm_steel)" stroke-width="2"></line>
        <polygon points="0,0 -6,-3 -6,3" fill="url(#nm_steel)" stroke="#1a1a1a" stroke-width="0.4"></polygon>
      </g>
      
      <g fill="#5a3a22" stroke="#241810" stroke-width="0.5">
        <circle cx="40" cy="28" r="3.5"></circle>
        <circle cx="66" cy="50" r="3.5"></circle>
      </g>
    </g>
  </symbol>

</svg>