<svg xmlns="http://www.w3.org/2000/svg" style="display:none" aria-hidden="true">
  <defs>
    <radialGradient id="q_avail" cx="0.4" cy="0.3" r="0.85">
      <stop offset="0" stop-color="#fff4c8"></stop>
      <stop offset="0.5" stop-color="#f0d896"></stop>
      <stop offset="1" stop-color="#7a5818"></stop>
    </radialGradient>
    <radialGradient id="q_active" cx="0.4" cy="0.3" r="0.85">
      <stop offset="0" stop-color="#d8c8a8"></stop>
      <stop offset="0.5" stop-color="#9c8c6a"></stop>
      <stop offset="1" stop-color="#3a2e1a"></stop>
    </radialGradient>
    <radialGradient id="q_ready" cx="0.4" cy="0.3" r="0.85">
      <stop offset="0" stop-color="#d8f0a8"></stop>
      <stop offset="0.5" stop-color="#a8d878"></stop>
      <stop offset="1" stop-color="#3a5a18"></stop>
    </radialGradient>
    <radialGradient id="q_main" cx="0.4" cy="0.3" r="0.85">
      <stop offset="0" stop-color="#fff0c0"></stop>
      <stop offset="0.5" stop-color="#d9b46a"></stop>
      <stop offset="1" stop-color="#5a3818"></stop>
    </radialGradient>

    <filter id="f_glow_amber" x="-30%" y="-30%" width="160%" height="160%">
      <feGaussianBlur stdDeviation="2.5" result="b"></feGaussianBlur>
      <feFlood flood-color="#e0a040" flood-opacity="0.65"></feFlood>
      <feComposite in2="b" operator="in" result="c"></feComposite>
      <feMerge><feMergeNode in="c"></feMergeNode><feMergeNode in="SourceGraphic"></feMergeNode></feMerge>
    </filter>
  </defs>

  
  <symbol id="quest_available" viewBox="0 0 64 64">
    <circle cx="32" cy="32" r="26" fill="url(#q_avail)" stroke="#1a1208" stroke-width="1.6"></circle>
    <circle cx="32" cy="32" r="22" fill="none" stroke="#1a1208" stroke-width="0.7" opacity="0.45"></circle>
    
    <path d="M28 14 L36 14 L34 38 L30 38 Z" fill="#1a1208" stroke="#1a1208" stroke-width="0.8" stroke-linejoin="round"></path>
    <circle cx="32" cy="46" r="4" fill="#1a1208"></circle>
    
    <ellipse cx="22" cy="20" rx="9" ry="5" fill="#fffbe0" opacity="0.65"></ellipse>
  </symbol>

  
  <symbol id="quest_active" viewBox="0 0 64 64">
    <circle cx="32" cy="32" r="26" fill="url(#q_active)" stroke="#1a1208" stroke-width="1.6"></circle>
    <circle cx="32" cy="32" r="22" fill="none" stroke="#1a1208" stroke-width="0.7" opacity="0.45"></circle>
    <circle cx="20" cy="32" r="4" fill="#1a1208"></circle>
    <circle cx="32" cy="32" r="4" fill="#1a1208"></circle>
    <circle cx="44" cy="32" r="4" fill="#1a1208"></circle>
    <ellipse cx="22" cy="20" rx="9" ry="5" fill="#ffffff" opacity="0.4"></ellipse>
  </symbol>

  
  <symbol id="quest_ready" viewBox="0 0 64 64">
    <circle cx="32" cy="32" r="26" fill="url(#q_ready)" stroke="#1a1208" stroke-width="1.6"></circle>
    <circle cx="32" cy="32" r="22" fill="none" stroke="#1a1208" stroke-width="0.7" opacity="0.45"></circle>
    <path d="M18 32 L28 42 L46 22" fill="none" stroke="#1a1208" stroke-width="5" stroke-linecap="round" stroke-linejoin="round"></path>
    <ellipse cx="22" cy="20" rx="9" ry="5" fill="#ffffff" opacity="0.55"></ellipse>
  </symbol>

  
  <symbol id="quest_main" viewBox="0 0 64 64">
    <g filter="url(#f_glow_amber)">
      <circle cx="32" cy="32" r="26" fill="url(#q_main)" stroke="#1a1208" stroke-width="1.6"></circle>
      <circle cx="32" cy="32" r="22" fill="none" stroke="#1a1208" stroke-width="0.8" opacity="0.5"></circle>
      <circle cx="32" cy="32" r="18" fill="none" stroke="#1a1208" stroke-width="0.5" opacity="0.35"></circle>
      
      
      <path d="M32 16 Q36 22 36 26 Q36 30 32 30 Q28 30 28 26 Q28 22 32 16 Z" fill="#ff7a30" stroke="#1a1208" stroke-width="0.9"></path>
      
      <path d="M48 32 Q42 36 38 36 Q34 36 34 32 Q34 28 38 28 Q42 28 48 32 Z" fill="#5aa0f0" stroke="#1a1208" stroke-width="0.9"></path>
      
      <path d="M32 48 Q28 42 28 38 Q28 34 32 34 Q36 34 36 38 Q36 42 32 48 Z" fill="#9adc4a" stroke="#1a1208" stroke-width="0.9"></path>
      
      <path d="M16 32 Q22 28 26 28 Q30 28 30 32 Q30 36 26 36 Q22 36 16 32 Z" fill="#d8a058" stroke="#1a1208" stroke-width="0.9"></path>
      
      <circle cx="32" cy="32" r="3" fill="#fffbe0" stroke="#1a1208" stroke-width="0.8"></circle>
    </g>
    <ellipse cx="22" cy="20" rx="9" ry="5" fill="#fffbe0" opacity="0.5"></ellipse>
  </symbol>
</svg>