<svg xmlns="http://www.w3.org/2000/svg" width="0" height="0" style="position:absolute;width:0;height:0;overflow:hidden" aria-hidden="true">
  <defs>
    
    <radialGradient id="bg_fire" cx="0.5" cy="0.5" r="0.65"><stop offset="0" stop-color="#3a1208" stop-opacity="0.7"></stop><stop offset="1" stop-color="#0b0905" stop-opacity="0"></stop></radialGradient>
    <radialGradient id="bg_water" cx="0.5" cy="0.5" r="0.65"><stop offset="0" stop-color="#0e2a44" stop-opacity="0.7"></stop><stop offset="1" stop-color="#0b0905" stop-opacity="0"></stop></radialGradient>
    <radialGradient id="bg_earth" cx="0.5" cy="0.5" r="0.65"><stop offset="0" stop-color="#3a2a10" stop-opacity="0.7"></stop><stop offset="1" stop-color="#0b0905" stop-opacity="0"></stop></radialGradient>
    <radialGradient id="bg_wind" cx="0.5" cy="0.5" r="0.65"><stop offset="0" stop-color="#1c2e22" stop-opacity="0.7"></stop><stop offset="1" stop-color="#0b0905" stop-opacity="0"></stop></radialGradient>
    <radialGradient id="bg_nature" cx="0.5" cy="0.5" r="0.65"><stop offset="0" stop-color="#1a2e10" stop-opacity="0.7"></stop><stop offset="1" stop-color="#0b0905" stop-opacity="0"></stop></radialGradient>

    
    <radialGradient id="sg_fire" cx="0.4" cy="0.35" r="0.75">
      <stop offset="0" stop-color="#ffeec0"></stop>
      <stop offset="0.35" stop-color="#ff8a3a"></stop>
      <stop offset="0.75" stop-color="#a8330e"></stop>
      <stop offset="1" stop-color="#3a0e04"></stop>
    </radialGradient>
    <radialGradient id="sg_water" cx="0.4" cy="0.35" r="0.75">
      <stop offset="0" stop-color="#eaf6ff"></stop>
      <stop offset="0.4" stop-color="#7ab8e8"></stop>
      <stop offset="0.85" stop-color="#264f7c"></stop>
      <stop offset="1" stop-color="#0c1f33"></stop>
    </radialGradient>
    <radialGradient id="sg_ice" cx="0.4" cy="0.35" r="0.8">
      <stop offset="0" stop-color="#ffffff"></stop>
      <stop offset="0.45" stop-color="#b8e2f4"></stop>
      <stop offset="0.85" stop-color="#3a6890"></stop>
      <stop offset="1" stop-color="#0e1f30"></stop>
    </radialGradient>
    <radialGradient id="sg_earth" cx="0.4" cy="0.35" r="0.75">
      <stop offset="0" stop-color="#f0d090"></stop>
      <stop offset="0.4" stop-color="#b8843a"></stop>
      <stop offset="0.85" stop-color="#5a3a16"></stop>
      <stop offset="1" stop-color="#1f1208"></stop>
    </radialGradient>
    <radialGradient id="sg_stone" cx="0.4" cy="0.35" r="0.75">
      <stop offset="0" stop-color="#c8b89a"></stop>
      <stop offset="0.5" stop-color="#7a6a4a"></stop>
      <stop offset="1" stop-color="#2a2018"></stop>
    </radialGradient>
    <radialGradient id="sg_wind" cx="0.4" cy="0.35" r="0.8">
      <stop offset="0" stop-color="#f4ffe8"></stop>
      <stop offset="0.45" stop-color="#c8e0b8"></stop>
      <stop offset="0.85" stop-color="#5a7a52"></stop>
      <stop offset="1" stop-color="#1c2a18"></stop>
    </radialGradient>
    <radialGradient id="sg_lightning" cx="0.4" cy="0.35" r="0.8">
      <stop offset="0" stop-color="#ffffff"></stop>
      <stop offset="0.4" stop-color="#fff0a8"></stop>
      <stop offset="0.85" stop-color="#a86a18"></stop>
      <stop offset="1" stop-color="#3a2008"></stop>
    </radialGradient>
    <radialGradient id="sg_nature" cx="0.4" cy="0.35" r="0.75">
      <stop offset="0" stop-color="#c8e090"></stop>
      <stop offset="0.4" stop-color="#5a8a32"></stop>
      <stop offset="0.85" stop-color="#2a4818"></stop>
      <stop offset="1" stop-color="#0e1a08"></stop>
    </radialGradient>
    <linearGradient id="sg_wood" x1="0" y1="0" x2="0" y2="1">
      <stop offset="0" stop-color="#7a5634"></stop>
      <stop offset="0.5" stop-color="#4d361f"></stop>
      <stop offset="1" stop-color="#241810"></stop>
    </linearGradient>
    <linearGradient id="sg_brass" x1="0" y1="0" x2="0" y2="1">
      <stop offset="0" stop-color="#e6c578"></stop>
      <stop offset="0.5" stop-color="#a07a2f"></stop>
      <stop offset="1" stop-color="#4a3818"></stop>
    </linearGradient>
    <linearGradient id="sg_steel" x1="0" y1="0" x2="0" y2="1">
      <stop offset="0" stop-color="#d8d4cc"></stop>
      <stop offset="0.5" stop-color="#8a857a"></stop>
      <stop offset="1" stop-color="#3a362e"></stop>
    </linearGradient>

    
    <filter id="sf_glow_fire" x="-30%" y="-30%" width="160%" height="160%">
      <feGaussianBlur stdDeviation="2.4" result="b"></feGaussianBlur>
      <feFlood flood-color="#ff5a18" flood-opacity="0.65"></feFlood>
      <feComposite in2="b" operator="in" result="c"></feComposite>
      <feMerge><feMergeNode in="c"></feMergeNode><feMergeNode in="SourceGraphic"></feMergeNode></feMerge>
    </filter>
    <filter id="sf_glow_water" x="-30%" y="-30%" width="160%" height="160%">
      <feGaussianBlur stdDeviation="2.4" result="b"></feGaussianBlur>
      <feFlood flood-color="#5aa8e8" flood-opacity="0.65"></feFlood>
      <feComposite in2="b" operator="in" result="c"></feComposite>
      <feMerge><feMergeNode in="c"></feMergeNode><feMergeNode in="SourceGraphic"></feMergeNode></feMerge>
    </filter>
    <filter id="sf_glow_earth" x="-30%" y="-30%" width="160%" height="160%">
      <feGaussianBlur stdDeviation="2.4" result="b"></feGaussianBlur>
      <feFlood flood-color="#e0a040" flood-opacity="0.55"></feFlood>
      <feComposite in2="b" operator="in" result="c"></feComposite>
      <feMerge><feMergeNode in="c"></feMergeNode><feMergeNode in="SourceGraphic"></feMergeNode></feMerge>
    </filter>
    <filter id="sf_glow_wind" x="-30%" y="-30%" width="160%" height="160%">
      <feGaussianBlur stdDeviation="2.4" result="b"></feGaussianBlur>
      <feFlood flood-color="#d8f0c0" flood-opacity="0.55"></feFlood>
      <feComposite in2="b" operator="in" result="c"></feComposite>
      <feMerge><feMergeNode in="c"></feMergeNode><feMergeNode in="SourceGraphic"></feMergeNode></feMerge>
    </filter>
    <filter id="sf_glow_nature" x="-30%" y="-30%" width="160%" height="160%">
      <feGaussianBlur stdDeviation="2.4" result="b"></feGaussianBlur>
      <feFlood flood-color="#7abc4a" flood-opacity="0.55"></feFlood>
      <feComposite in2="b" operator="in" result="c"></feComposite>
      <feMerge><feMergeNode in="c"></feMergeNode><feMergeNode in="SourceGraphic"></feMergeNode></feMerge>
    </filter>
    <filter id="sf_glow_lightning" x="-30%" y="-30%" width="160%" height="160%">
      <feGaussianBlur stdDeviation="2.6" result="b"></feGaussianBlur>
      <feFlood flood-color="#ffe88a" flood-opacity="0.7"></feFlood>
      <feComposite in2="b" operator="in" result="c"></feComposite>
      <feMerge><feMergeNode in="c"></feMergeNode><feMergeNode in="SourceGraphic"></feMergeNode></feMerge>
    </filter>

    
    <radialGradient id="sg_tier_dot" cx="0.4" cy="0.4" r="0.7">
      <stop offset="0" stop-color="#ffe6a8"></stop>
      <stop offset="0.6" stop-color="#a07a2f"></stop>
      <stop offset="1" stop-color="#2a1a08"></stop>
    </radialGradient>
  </defs>

  
  
  

  
  <symbol id="spell_fire_t1" viewBox="0 0 78 78">
    <rect width="78" height="78" fill="url(#bg_fire)"></rect>
    <g filter="url(#sf_glow_fire)">
      
      <path d="M39 14 Q48 28 46 42 Q44 52 39 56 Q34 52 32 42 Q30 28 39 14 Z" fill="url(#sg_fire)" stroke="#3a0e04" stroke-width="0.7"></path>
      
      <path d="M39 18 Q44 30 42 42 Q40 48 39 50 Q38 48 36 42 Q34 30 39 18 Z" fill="#ffeec0" opacity="0.6"></path>
      
      <circle cx="44" cy="60" r="1.4" fill="#ff8a3a"></circle>
      <circle cx="34" cy="62" r="1" fill="#ff8a3a" opacity="0.8"></circle>
      <circle cx="40" cy="66" r="0.9" fill="#ffd070" opacity="0.7"></circle>
    </g>
    <use href="#tier_indicator" data-tier="1"></use>
  </symbol>

  
  <symbol id="spell_fire_t2" viewBox="0 0 78 78">
    <rect width="78" height="78" fill="url(#bg_fire)"></rect>
    <g filter="url(#sf_glow_fire)" transform="translate(39,52)">
      
      <g fill="url(#sg_fire)" stroke="#3a0e04" stroke-width="0.5">
        <path d="M0 0 Q-22 -10 -26 -34 Q-20 -28 -2 -8 Z" transform="rotate(-30)"></path>
        <path d="M0 0 Q-12 -14 -14 -38 Q-8 -32 -2 -8 Z" transform="rotate(-15)"></path>
        <path d="M0 0 Q-2 -18 0 -42 Q2 -18 0 -8 Z"></path>
        <path d="M0 0 Q12 -14 14 -38 Q8 -32 2 -8 Z" transform="rotate(15)"></path>
        <path d="M0 0 Q22 -10 26 -34 Q20 -28 2 -8 Z" transform="rotate(30)"></path>
      </g>
      
      <circle cx="0" cy="-40" r="1.6" fill="#ffeec0"></circle>
      <g fill="#ffeec0" opacity="0.7">
        <circle cx="-13" cy="-37" r="1.2" transform="rotate(-15)"></circle>
        <circle cx="13" cy="-37" r="1.2" transform="rotate(15)"></circle>
        <circle cx="-22" cy="-32" r="1" transform="rotate(-30)"></circle>
        <circle cx="22" cy="-32" r="1" transform="rotate(30)"></circle>
      </g>
    </g>
  </symbol>

  
  <symbol id="spell_fire_t3" viewBox="0 0 78 78">
    <rect width="78" height="78" fill="url(#bg_fire)"></rect>
    
    <rect x="8" y="58" width="62" height="4" fill="url(#sg_brass)" stroke="#1a1208" stroke-width="0.5"></rect>
    
    <g filter="url(#sf_glow_fire)">
      <path d="M8 58 Q14 30 18 50 Q22 22 28 48 Q32 18 38 46 Q42 18 48 48 Q52 22 58 50 Q62 30 70 58 Z" fill="url(#sg_fire)" stroke="#3a0e04" stroke-width="0.7"></path>
      
      <path d="M14 56 Q18 42 22 54 Q26 38 30 52 Q34 36 38 50 Q42 36 46 52 Q50 38 54 54 Q58 42 64 56 Z" fill="#ffd070" opacity="0.55"></path>
    </g>
  </symbol>

  
  <symbol id="spell_fire_t4" viewBox="0 0 78 78">
    <rect width="78" height="78" fill="url(#bg_fire)"></rect>
    <g filter="url(#sf_glow_fire)">
      
      <path d="M39 8 L46 18 L54 12 L52 24 L66 22 L58 32 L70 38 L58 42 L66 54 L52 50 L54 64 L46 56 L42 70 L36 56 L28 64 L30 50 L16 54 L24 42 L12 38 L24 32 L18 22 L30 24 L28 12 L36 18 Z" fill="url(#sg_fire)" stroke="#3a0e04" stroke-width="0.6"></path>
      
      <circle cx="39" cy="39" r="14" fill="url(#sg_fire)" stroke="#3a0e04" stroke-width="0.8"></circle>
      
      <circle cx="35" cy="35" r="7" fill="#ffeec0" opacity="0.85"></circle>
      <circle cx="36" cy="36" r="3" fill="#ffffff" opacity="0.9"></circle>
    </g>
  </symbol>

  
  <symbol id="spell_fire_t5" viewBox="0 0 78 78">
    <rect width="78" height="78" fill="url(#bg_fire)"></rect>
    <g filter="url(#sf_glow_fire)">
      
      <path d="M6 56 Q14 28 30 26 Q44 24 54 32 Q66 38 70 22 Q72 38 64 46 Q56 54 44 50 Q34 48 28 54 Q20 60 8 60 Z" fill="url(#sg_fire)" stroke="#3a0e04" stroke-width="0.8"></path>
      
      <path d="M14 48 Q22 32 34 32 Q44 32 52 38 Q60 42 66 32" stroke="#ffd070" stroke-width="2.2" fill="none" opacity="0.7" stroke-linecap="round"></path>
      
      <circle cx="58" cy="22" r="1.6" fill="#ffeec0"></circle>
      <circle cx="48" cy="20" r="1.2" fill="#ffeec0" opacity="0.8"></circle>
      <circle cx="68" cy="30" r="1.2" fill="#ffeec0" opacity="0.7"></circle>
      
      <circle cx="14" cy="64" r="1.6" fill="#ff8a3a"></circle>
      <circle cx="30" cy="66" r="1.4" fill="#ff8a3a" opacity="0.8"></circle>
      <circle cx="46" cy="64" r="1.4" fill="#ff8a3a" opacity="0.8"></circle>
      <circle cx="62" cy="66" r="1.6" fill="#ff8a3a"></circle>
    </g>
  </symbol>

  
  
  

  
  <symbol id="spell_water_t1" viewBox="0 0 78 78">
    <rect width="78" height="78" fill="url(#bg_water)"></rect>
    <g filter="url(#sf_glow_water)" transform="translate(39,39) rotate(20) translate(-39,-39)">
      <path d="M39 12 L48 30 L44 56 L34 56 L30 30 Z" fill="url(#sg_ice)" stroke="#0c1f33" stroke-width="0.7"></path>
      
      <path d="M39 12 L44 56 L39 32 Z" fill="#ffffff" opacity="0.5"></path>
      <path d="M39 12 L34 56 L39 32 Z" fill="#000000" opacity="0.2"></path>
      <path d="M30 30 L48 30" stroke="#0c1f33" stroke-width="0.5" opacity="0.6"></path>
    </g>
  </symbol>

  
  <symbol id="spell_water_t2" viewBox="0 0 78 78">
    <rect width="78" height="78" fill="url(#bg_water)"></rect>
    <g filter="url(#sf_glow_water)" transform="translate(39,39) rotate(-30) translate(-39,-39)">
      
      <path d="M22 38 L52 38 L52 40 L22 40 Z" fill="url(#sg_ice)" stroke="#0c1f33" stroke-width="0.5"></path>
      
      <path d="M52 32 L66 39 L52 46 L56 39 Z" fill="url(#sg_ice)" stroke="#0c1f33" stroke-width="0.6"></path>
      
      <path d="M22 38 L14 30 L18 39 L14 48 L22 40 Z" fill="url(#sg_ice)" stroke="#0c1f33" stroke-width="0.5"></path>
      
      <g transform="translate(64,39)">
        <path d="M0 0 L8 -2 M0 0 L6 -8 M0 0 L0 -10 M0 0 L-2 -8" stroke="#b8e2f4" stroke-width="1.2" stroke-linecap="round"></path>
        <circle cx="6" cy="-2" r="1.2" fill="#ffffff"></circle>
        <circle cx="2" cy="-8" r="1" fill="#ffffff" opacity="0.8"></circle>
      </g>
    </g>
  </symbol>

  
  <symbol id="spell_water_t3" viewBox="0 0 78 78">
    <rect width="78" height="78" fill="url(#bg_water)"></rect>
    
    <g>
      <ellipse cx="28" cy="24" rx="14" ry="9" fill="#3a6890" stroke="#0c1f33" stroke-width="0.6"></ellipse>
      <ellipse cx="42" cy="22" rx="12" ry="8" fill="#3a6890" stroke="#0c1f33" stroke-width="0.6"></ellipse>
      <ellipse cx="52" cy="26" rx="10" ry="7" fill="#3a6890" stroke="#0c1f33" stroke-width="0.6"></ellipse>
      <ellipse cx="36" cy="20" rx="10" ry="6" fill="#5a88a8"></ellipse>
    </g>
    
    <g filter="url(#sf_glow_water)">
      <path d="M22 36 L25 36 L24 50 Z" fill="url(#sg_ice)" stroke="#0c1f33" stroke-width="0.4"></path>
      <path d="M32 40 L35 40 L34 56 Z" fill="url(#sg_ice)" stroke="#0c1f33" stroke-width="0.4"></path>
      <path d="M42 38 L45 38 L44 54 Z" fill="url(#sg_ice)" stroke="#0c1f33" stroke-width="0.4"></path>
      <path d="M52 42 L55 42 L54 58 Z" fill="url(#sg_ice)" stroke="#0c1f33" stroke-width="0.4"></path>
      <path d="M62 38 L65 38 L64 50 Z" fill="url(#sg_ice)" stroke="#0c1f33" stroke-width="0.4"></path>
    </g>
  </symbol>

  
  <symbol id="spell_water_t4" viewBox="0 0 78 78">
    <rect width="78" height="78" fill="url(#bg_water)"></rect>
    <g filter="url(#sf_glow_water)">
      
      <g fill="none" stroke="url(#sg_ice)" stroke-width="2" stroke-linecap="round" opacity="0.85">
        <path d="M14 26 Q39 14 64 26 Q56 36 39 32 Q22 28 14 38"></path>
        <path d="M16 44 Q39 32 62 44 Q54 54 39 50 Q24 48 18 56"></path>
      </g>
      
      <g transform="translate(39,39)">
        <path d="M0 -16 L4 -4 L16 0 L4 4 L0 16 L-4 4 L-16 0 L-4 -4 Z" fill="url(#sg_ice)" stroke="#0c1f33" stroke-width="0.6"></path>
      </g>
      
      <g fill="url(#sg_ice)" stroke="#0c1f33" stroke-width="0.4">
        <path d="M10 18 L13 18 L12 28 Z"></path>
        <path d="M62 16 L65 16 L64 26 Z"></path>
        <path d="M14 60 L17 60 L16 70 Z"></path>
        <path d="M58 60 L61 60 L60 70 Z"></path>
      </g>
    </g>
  </symbol>

  
  <symbol id="spell_water_t5" viewBox="0 0 78 78">
    <rect width="78" height="78" fill="url(#bg_water)"></rect>
    <g filter="url(#sf_glow_water)">
      
      <g transform="translate(39,39)" stroke="url(#sg_ice)" stroke-width="2.2" stroke-linecap="round" fill="none">
        <line x1="0" y1="-26" x2="0" y2="26"></line>
        <line x1="-26" y1="0" x2="26" y2="0"></line>
        <line x1="-18" y1="-18" x2="18" y2="18"></line>
        <line x1="-18" y1="18" x2="18" y2="-18"></line>
        
        <g stroke-width="1.4">
          <path d="M0 -26 L-4 -22 M0 -26 L4 -22"></path>
          <path d="M0 26 L-4 22 M0 26 L4 22"></path>
          <path d="M-26 0 L-22 -4 M-26 0 L-22 4"></path>
          <path d="M26 0 L22 -4 M26 0 L22 4"></path>
        </g>
      </g>
      
      <circle cx="39" cy="39" r="8" fill="url(#sg_ice)" stroke="#0c1f33" stroke-width="0.7"></circle>
      <circle cx="37" cy="37" r="3" fill="#ffffff" opacity="0.9"></circle>
      
      <circle cx="39" cy="39" r="22" fill="none" stroke="#b8e2f4" stroke-width="0.6" opacity="0.5" stroke-dasharray="2 2"></circle>
    </g>
  </symbol>

  
  
  

  
  <symbol id="spell_earth_t1" viewBox="0 0 78 78">
    <rect width="78" height="78" fill="url(#bg_earth)"></rect>
    <g filter="url(#sf_glow_earth)">
      
      <path d="M28 40 Q24 28 36 22 Q48 18 54 30 Q58 42 50 50 Q40 58 32 52 Q24 48 28 40 Z" fill="url(#sg_stone)" stroke="#1f1208" stroke-width="0.8"></path>
      
      <path d="M32 28 Q40 24 48 28 Q44 32 38 32 Q34 32 32 28 Z" fill="#ddc89a" opacity="0.7"></path>
      
      <path d="M34 38 L40 44 L38 48" stroke="#1f1208" stroke-width="0.6" fill="none" opacity="0.6"></path>
    </g>
  </symbol>

  
  <symbol id="spell_earth_t2" viewBox="0 0 78 78">
    <rect width="78" height="78" fill="url(#bg_earth)"></rect>
    <g filter="url(#sf_glow_earth)">
      
      <path d="M34 38 L44 38 L42 18 L36 18 Z" fill="url(#sg_stone)" stroke="#1f1208" stroke-width="0.7"></path>
      
      <path d="M36 38 L42 38 L40 30 L38 30 Z" fill="#ddc89a" opacity="0.6"></path>
      
      
      <path d="M37 18 L41 18 L40 8 Z" fill="url(#sg_stone)" stroke="#1f1208" stroke-width="0.5"></path>
      
      <path d="M34 56 L44 56 L40 70 Z" fill="url(#sg_stone)" stroke="#1f1208" stroke-width="0.7"></path>
      
      <path d="M22 36 L22 42 L8 40 Z" fill="url(#sg_stone)" stroke="#1f1208" stroke-width="0.6"></path>
      
      <path d="M56 36 L56 42 L70 40 Z" fill="url(#sg_stone)" stroke="#1f1208" stroke-width="0.6"></path>
      
      <ellipse cx="39" cy="46" rx="14" ry="6" fill="url(#sg_earth)" stroke="#1f1208" stroke-width="0.7"></ellipse>
      <ellipse cx="39" cy="44" rx="10" ry="3" fill="#ddc89a" opacity="0.5"></ellipse>
    </g>
  </symbol>

  
  <symbol id="spell_earth_t3" viewBox="0 0 78 78">
    <rect width="78" height="78" fill="url(#bg_earth)"></rect>
    
    <rect x="6" y="58" width="66" height="3" fill="url(#sg_brass)" stroke="#1f1208" stroke-width="0.4" opacity="0.7"></rect>
    
    <g filter="url(#sf_glow_earth)">
      
      <rect x="10" y="42" width="14" height="16" fill="url(#sg_stone)" stroke="#1f1208" stroke-width="0.7"></rect>
      <rect x="24" y="42" width="14" height="16" fill="url(#sg_stone)" stroke="#1f1208" stroke-width="0.7"></rect>
      <rect x="38" y="42" width="14" height="16" fill="url(#sg_stone)" stroke="#1f1208" stroke-width="0.7"></rect>
      <rect x="52" y="42" width="14" height="16" fill="url(#sg_stone)" stroke="#1f1208" stroke-width="0.7"></rect>
      
      <rect x="14" y="26" width="14" height="16" fill="url(#sg_stone)" stroke="#1f1208" stroke-width="0.7"></rect>
      <rect x="28" y="26" width="14" height="16" fill="url(#sg_stone)" stroke="#1f1208" stroke-width="0.7"></rect>
      <rect x="42" y="26" width="14" height="16" fill="url(#sg_stone)" stroke="#1f1208" stroke-width="0.7"></rect>
      <rect x="56" y="26" width="14" height="16" fill="url(#sg_stone)" stroke="#1f1208" stroke-width="0.7"></rect>
      
      <path d="M14 26 L18 22 L22 26 Z" fill="url(#sg_stone)" stroke="#1f1208" stroke-width="0.5"></path>
      <path d="M30 26 L34 20 L38 26 Z" fill="url(#sg_stone)" stroke="#1f1208" stroke-width="0.5"></path>
      <path d="M44 26 L48 22 L52 26 Z" fill="url(#sg_stone)" stroke="#1f1208" stroke-width="0.5"></path>
      <path d="M58 26 L62 24 L66 26 Z" fill="url(#sg_stone)" stroke="#1f1208" stroke-width="0.5"></path>
    </g>
  </symbol>

  
  <symbol id="spell_earth_t4" viewBox="0 0 78 78">
    <rect width="78" height="78" fill="url(#bg_earth)"></rect>
    <g filter="url(#sf_glow_earth)">
      
      <path d="M39 12 L60 20 Q60 44 39 64 Q18 44 18 20 Z" fill="url(#sg_stone)" stroke="#1f1208" stroke-width="1"></path>
      
      <path d="M39 12 L60 20 Q56 28 39 30 Z" fill="#ddc89a" opacity="0.4"></path>
      <path d="M39 12 L18 20 Q22 28 39 30 Z" fill="#1f1208" opacity="0.2"></path>
      <path d="M39 30 Q56 38 60 50 Q48 56 39 50 Z" fill="#ddc89a" opacity="0.25"></path>
      
      <g stroke="url(#sg_brass)" stroke-width="2" stroke-linecap="round" fill="none">
        <line x1="39" y1="28" x2="39" y2="48"></line>
        <line x1="29" y1="38" x2="49" y2="38"></line>
      </g>
      <circle cx="39" cy="38" r="3" fill="url(#sg_brass)" stroke="#1f1208" stroke-width="0.5"></circle>
    </g>
  </symbol>

  
  <symbol id="spell_earth_t5" viewBox="0 0 78 78">
    <rect width="78" height="78" fill="url(#bg_earth)"></rect>
    <g filter="url(#sf_glow_earth)">
      
      <g transform="translate(48,38) rotate(40)">
        <path d="M-6 0 L0 -28 L6 0 Z" fill="#ff8a3a" opacity="0.55"></path>
        <ellipse cx="0" cy="0" rx="8" ry="7" fill="url(#sg_earth)" stroke="#1f1208" stroke-width="0.7"></ellipse>
        <ellipse cx="-2" cy="-2" rx="3" ry="2.5" fill="#ffd070" opacity="0.7"></ellipse>
      </g>
      
      <g transform="translate(20,28) rotate(35)">
        <path d="M-4 0 L0 -20 L4 0 Z" fill="#ff8a3a" opacity="0.55"></path>
        <ellipse cx="0" cy="0" rx="5" ry="4.5" fill="url(#sg_earth)" stroke="#1f1208" stroke-width="0.6"></ellipse>
      </g>
      
      <g transform="translate(60,18) rotate(45)">
        <path d="M-3 0 L0 -16 L3 0 Z" fill="#ff8a3a" opacity="0.55"></path>
        <ellipse cx="0" cy="0" rx="4" ry="3.5" fill="url(#sg_earth)" stroke="#1f1208" stroke-width="0.5"></ellipse>
      </g>
      
      <ellipse cx="22" cy="62" rx="6" ry="2" fill="#1f1208" opacity="0.6"></ellipse>
      <ellipse cx="40" cy="64" rx="8" ry="2.4" fill="#1f1208" opacity="0.6"></ellipse>
      <ellipse cx="60" cy="62" rx="6" ry="2" fill="#1f1208" opacity="0.6"></ellipse>
    </g>
  </symbol>

  
  
  

  
  <symbol id="spell_wind_t1" viewBox="0 0 78 78">
    <rect width="78" height="78" fill="url(#bg_wind)"></rect>
    <g filter="url(#sf_glow_wind)" fill="none" stroke-linecap="round">
      <path d="M14 36 Q40 28 54 32 Q66 36 56 46 Q50 50 44 44" stroke="url(#sg_wind)" stroke-width="3.4"></path>
      <path d="M16 50 Q40 44 50 50" stroke="url(#sg_wind)" stroke-width="2.4" opacity="0.7"></path>
      
      <path d="M44 44 Q42 40 44 38" stroke="url(#sg_wind)" stroke-width="2.4"></path>
    </g>
  </symbol>

  
  <symbol id="spell_wind_t2" viewBox="0 0 78 78">
    <rect width="78" height="78" fill="url(#bg_wind)"></rect>
    <g filter="url(#sf_glow_wind)" transform="translate(20,52)">
      
      <g fill="url(#sg_wind)" stroke="#1c2a18" stroke-width="0.5">
        <path d="M0 0 Q22 -16 42 -22 Q26 -10 8 -6 Z" transform="rotate(-25)"></path>
        <path d="M0 0 Q24 -8 46 -8 Q26 -4 8 -2 Z"></path>
        <path d="M0 0 Q22 8 42 14 Q26 6 8 4 Z" transform="rotate(15)"></path>
      </g>
      
      <g stroke="#ffffff" stroke-width="0.6" fill="none" opacity="0.6">
        <path d="M2 -2 Q22 -16 42 -22" transform="rotate(-25)"></path>
        <path d="M2 0 Q24 -8 46 -8"></path>
        <path d="M2 2 Q22 8 42 14" transform="rotate(15)"></path>
      </g>
    </g>
  </symbol>

  
  <symbol id="spell_wind_t3" viewBox="0 0 78 78">
    <rect width="78" height="78" fill="url(#bg_wind)"></rect>
    <g filter="url(#sf_glow_wind)">
      
      <g fill="none" stroke="url(#sg_wind)" stroke-width="2" stroke-linecap="round">
        <path d="M22 14 Q34 28 22 42 Q34 56 22 66"></path>
        <path d="M34 14 Q46 28 34 42 Q46 56 34 66"></path>
        <path d="M46 14 Q58 28 46 42 Q58 56 46 66"></path>
      </g>
      
      <rect x="16" y="10" width="40" height="3" fill="url(#sg_brass)" stroke="#1c2a18" stroke-width="0.4"></rect>
      <rect x="16" y="64" width="40" height="3" fill="url(#sg_brass)" stroke="#1c2a18" stroke-width="0.4"></rect>
      
      <g transform="translate(60,30)">
        <path d="M0 8 L-12 8 L-12 6 L-4 0 L-12 -6 L-12 -8 Z" fill="#a06030" opacity="0.7" transform="rotate(180)"></path>
      </g>
    </g>
  </symbol>

  
  <symbol id="spell_wind_t4" viewBox="0 0 78 78">
    <rect width="78" height="78" fill="url(#bg_wind)"></rect>
    
    <g>
      <ellipse cx="26" cy="22" rx="14" ry="9" fill="#3a4a3a" stroke="#0e1a08" stroke-width="0.6"></ellipse>
      <ellipse cx="42" cy="20" rx="13" ry="9" fill="#3a4a3a" stroke="#0e1a08" stroke-width="0.6"></ellipse>
      <ellipse cx="56" cy="24" rx="11" ry="7" fill="#3a4a3a" stroke="#0e1a08" stroke-width="0.6"></ellipse>
      <ellipse cx="36" cy="16" rx="12" ry="6" fill="#5a6a5a"></ellipse>
    </g>
    
    <g filter="url(#sf_glow_lightning)">
      <path d="M22 32 L18 42 L24 42 L18 56 L26 44 L22 44 L28 32 Z" fill="url(#sg_lightning)" stroke="#3a2008" stroke-width="0.5"></path>
      <path d="M36 30 L32 42 L38 42 L32 58 L40 44 L36 44 L42 30 Z" fill="url(#sg_lightning)" stroke="#3a2008" stroke-width="0.5"></path>
      <path d="M52 32 L48 42 L54 42 L48 56 L56 44 L52 44 L58 32 Z" fill="url(#sg_lightning)" stroke="#3a2008" stroke-width="0.5"></path>
    </g>
  </symbol>

  
  <symbol id="spell_wind_t5" viewBox="0 0 78 78">
    <rect width="78" height="78" fill="url(#bg_wind)"></rect>
    <g filter="url(#sf_glow_lightning)">
      
      <g fill="none" stroke="url(#sg_lightning)" stroke-width="1.6" stroke-linecap="round" opacity="0.85">
        <path d="M14 18 L22 26 L18 30 L26 36"></path>
        <path d="M64 20 L56 28 L60 32 L52 38"></path>
        <path d="M16 60 L24 54 L20 50 L28 46"></path>
        <path d="M62 62 L54 56 L58 50 L50 46"></path>
      </g>
      
      <circle cx="39" cy="40" r="14" fill="url(#sg_lightning)" stroke="#3a2008" stroke-width="0.8"></circle>
      
      <g fill="none" stroke="#ffffff" stroke-width="0.8" opacity="0.85">
        <path d="M30 36 L34 40 L30 44 L36 46"></path>
        <path d="M48 36 L44 40 L48 44 L42 46"></path>
        <path d="M39 30 L41 36 L37 38 L41 44"></path>
      </g>
      <circle cx="35" cy="36" r="3" fill="#ffffff"></circle>
    </g>
  </symbol>

  
  
  

  
  <symbol id="spell_nature_t1" viewBox="0 0 78 78">
    <rect width="78" height="78" fill="url(#bg_nature)"></rect>
    <g filter="url(#sf_glow_nature)">
      
      <path d="M22 26 L18 14 L28 22 L36 18 L42 18 L50 22 L60 14 L56 26 L60 36 L58 50 L52 58 L42 60 L36 60 L26 58 L20 50 L18 36 Z" fill="#5a8a32" stroke="#0e1a08" stroke-width="0.9"></path>
      
      <path d="M30 50 L36 60 L42 60 L48 50 L42 48 L36 48 Z" fill="#3a5a22" stroke="#0e1a08" stroke-width="0.6"></path>
      
      <ellipse cx="39" cy="54" rx="2.4" ry="1.6" fill="#0e1a08"></ellipse>
      
      <circle cx="30" cy="38" r="2.2" fill="#c8e090"></circle>
      <circle cx="48" cy="38" r="2.2" fill="#c8e090"></circle>
      <circle cx="30" cy="38" r="1" fill="#ffffff"></circle>
      <circle cx="48" cy="38" r="1" fill="#ffffff"></circle>
      
      <path d="M22 24 L22 18 L26 22 Z" fill="#0e1a08"></path>
      <path d="M56 24 L56 18 L52 22 Z" fill="#0e1a08"></path>
    </g>
  </symbol>

  
  <symbol id="spell_nature_t2" viewBox="0 0 78 78">
    <rect width="78" height="78" fill="url(#bg_nature)"></rect>
    <g filter="url(#sf_glow_nature)">
      
      <path d="M39 12 L60 20 Q60 44 39 64 Q18 44 18 20 Z" fill="url(#sg_wood)" stroke="#0e1a08" stroke-width="1"></path>
      
      <g stroke="#0e1a08" stroke-width="0.6" fill="none" opacity="0.7">
        <path d="M28 18 Q30 32 26 50"></path>
        <path d="M36 16 Q38 32 34 56"></path>
        <path d="M44 16 Q46 32 44 56"></path>
        <path d="M52 18 Q50 32 54 50"></path>
      </g>
      
      <path d="M39 30 Q34 36 36 46 Q44 46 42 36 Q44 30 39 30 Z" fill="url(#sg_nature)" stroke="#0e1a08" stroke-width="0.5"></path>
      <line x1="39" y1="32" x2="39" y2="46" stroke="#0e1a08" stroke-width="0.5"></line>
    </g>
  </symbol>

  
  <symbol id="spell_nature_t3" viewBox="0 0 78 78">
    <rect width="78" height="78" fill="url(#bg_nature)"></rect>
    <g filter="url(#sf_glow_nature)">
      
      <g fill="url(#sg_nature)" stroke="#0e1a08" stroke-width="0.5">
        <path d="M14 22 Q20 12 28 18 Q22 22 14 22 Z"></path>
        <path d="M28 14 Q36 8 44 14 Q36 18 28 14 Z"></path>
        <path d="M44 14 Q52 8 60 18 Q52 22 44 14 Z"></path>
        <path d="M60 22 Q68 18 70 28 Q62 28 60 22 Z"></path>
        <path d="M20 28 Q26 22 32 28 Q26 32 20 28 Z"></path>
        <path d="M44 28 Q52 22 58 28 Q52 32 44 28 Z"></path>
        <path d="M32 30 Q40 26 46 32 Q38 36 32 30 Z"></path>
      </g>
      
      <g transform="translate(39,52)">
        <path d="M0 8 L0 -8 M-8 0 L8 0" stroke="#7abc4a" stroke-width="3.2" stroke-linecap="round"></path>
        <circle cx="0" cy="0" r="6" fill="none" stroke="#7abc4a" stroke-width="1" opacity="0.6"></circle>
      </g>
      
      <circle cx="14" cy="50" r="1.4" fill="#7abc4a" opacity="0.7"></circle>
      <circle cx="64" cy="48" r="1.4" fill="#7abc4a" opacity="0.7"></circle>
      <circle cx="20" cy="62" r="1" fill="#7abc4a" opacity="0.6"></circle>
      <circle cx="58" cy="62" r="1" fill="#7abc4a" opacity="0.6"></circle>
    </g>
  </symbol>

  
  <symbol id="spell_nature_t4" viewBox="0 0 78 78">
    <rect width="78" height="78" fill="url(#bg_nature)"></rect>
    <g filter="url(#sf_glow_nature)">
      
      <ellipse cx="39" cy="22" rx="22" ry="14" fill="url(#sg_nature)" stroke="#0e1a08" stroke-width="0.8"></ellipse>
      <ellipse cx="28" cy="18" rx="10" ry="8" fill="#5a8a32"></ellipse>
      <ellipse cx="50" cy="18" rx="10" ry="8" fill="#5a8a32"></ellipse>
      <ellipse cx="39" cy="14" rx="9" ry="6" fill="#7abc4a" opacity="0.8"></ellipse>
      
      <path d="M28 32 Q24 50 26 62 L52 62 Q54 50 50 32 Z" fill="url(#sg_wood)" stroke="#0e1a08" stroke-width="0.9"></path>
      
      <path d="M32 36 Q34 50 32 60" stroke="#0e1a08" stroke-width="0.5" fill="none" opacity="0.6"></path>
      <path d="M46 36 Q44 50 46 60" stroke="#0e1a08" stroke-width="0.5" fill="none" opacity="0.6"></path>
      
      <ellipse cx="34" cy="42" rx="2" ry="2.5" fill="#c8e090"></ellipse>
      <ellipse cx="44" cy="42" rx="2" ry="2.5" fill="#c8e090"></ellipse>
      <circle cx="34" cy="42" r="0.8" fill="#ffffff"></circle>
      <circle cx="44" cy="42" r="0.8" fill="#ffffff"></circle>
      
      <path d="M32 52 Q39 56 46 52" stroke="#0e1a08" stroke-width="1" fill="none" stroke-linecap="round"></path>
      
      <path d="M26 38 Q14 36 10 28" stroke="url(#sg_wood)" stroke-width="3" fill="none" stroke-linecap="round"></path>
      <path d="M52 38 Q64 36 68 28" stroke="url(#sg_wood)" stroke-width="3" fill="none" stroke-linecap="round"></path>
    </g>
  </symbol>

  
  <symbol id="spell_nature_t5" viewBox="0 0 78 78">
    <rect width="78" height="78" fill="url(#bg_nature)"></rect>
    <g filter="url(#sf_glow_nature)">
      
      <circle cx="39" cy="39" r="30" fill="none" stroke="#7abc4a" stroke-width="0.8" stroke-dasharray="3 3" opacity="0.5"></circle>
      <circle cx="39" cy="39" r="22" fill="none" stroke="#7abc4a" stroke-width="1" stroke-dasharray="2 2" opacity="0.7"></circle>
      
      <g transform="translate(39,39)" stroke="url(#sg_nature)" stroke-width="2.4" fill="none" stroke-linecap="round">
        <path d="M0 0 Q-10 -4 -8 -12 Q0 -16 6 -10 Q8 -2 0 2 Q-6 4 -8 -2"></path>
      </g>
      
      <g fill="url(#sg_nature)" stroke="#0e1a08" stroke-width="0.5">
        <path d="M39 8 L42 14 L36 14 Z"></path>
        <path d="M39 70 L36 64 L42 64 Z"></path>
        <path d="M8 39 L14 36 L14 42 Z"></path>
        <path d="M70 39 L64 42 L64 36 Z"></path>
      </g>
      
      <circle cx="39" cy="39" r="3" fill="#c8e090"></circle>
    </g>
  </symbol>

</svg>