<svg xmlns="http://www.w3.org/2000/svg" width="0" height="0" style="position:absolute;width:0;height:0;overflow:hidden" aria-hidden="true">
  <defs>
    
    <radialGradient id="wb_blade" cx="0.5" cy="0.5" r="0.7"><stop offset="0" stop-color="#1a2030" stop-opacity="0.7"></stop><stop offset="1" stop-color="#0b0905" stop-opacity="0"></stop></radialGradient>
    <radialGradient id="wb_blunt" cx="0.5" cy="0.5" r="0.7"><stop offset="0" stop-color="#2a2418" stop-opacity="0.7"></stop><stop offset="1" stop-color="#0b0905" stop-opacity="0"></stop></radialGradient>
    <radialGradient id="wb_pierce" cx="0.5" cy="0.5" r="0.7"><stop offset="0" stop-color="#241830" stop-opacity="0.7"></stop><stop offset="1" stop-color="#0b0905" stop-opacity="0"></stop></radialGradient>
    <radialGradient id="wb_ranged" cx="0.5" cy="0.5" r="0.7"><stop offset="0" stop-color="#1a2818" stop-opacity="0.7"></stop><stop offset="1" stop-color="#0b0905" stop-opacity="0"></stop></radialGradient>
    <radialGradient id="wb_fist" cx="0.5" cy="0.5" r="0.7"><stop offset="0" stop-color="#2a1a14" stop-opacity="0.7"></stop><stop offset="1" stop-color="#0b0905" stop-opacity="0"></stop></radialGradient>

    
    <linearGradient id="wm_steel" x1="0" y1="0" x2="0" y2="1">
      <stop offset="0" stop-color="#e8e4dc"></stop><stop offset="0.5" stop-color="#9a948a"></stop><stop offset="1" stop-color="#3a362e"></stop>
    </linearGradient>
    <linearGradient id="wm_steel_diag" x1="0" y1="0" x2="1" y2="1">
      <stop offset="0" stop-color="#f0ece4"></stop><stop offset="0.5" stop-color="#8a857a"></stop><stop offset="1" stop-color="#2a261e"></stop>
    </linearGradient>
    <linearGradient id="wm_brass" x1="0" y1="0" x2="0" y2="1">
      <stop offset="0" stop-color="#e6c578"></stop><stop offset="0.5" stop-color="#a07a2f"></stop><stop offset="1" stop-color="#4a3818"></stop>
    </linearGradient>
    <linearGradient id="wm_wood" x1="0" y1="0" x2="0" y2="1">
      <stop offset="0" stop-color="#7a5634"></stop><stop offset="0.5" stop-color="#4d361f"></stop><stop offset="1" stop-color="#241810"></stop>
    </linearGradient>
    <linearGradient id="wm_leather" x1="0" y1="0" x2="0" y2="1">
      <stop offset="0" stop-color="#5a3a22"></stop><stop offset="1" stop-color="#1f1208"></stop>
    </linearGradient>
    <radialGradient id="wm_stone" cx="0.4" cy="0.35" r="0.75">
      <stop offset="0" stop-color="#c8b89a"></stop><stop offset="0.5" stop-color="#7a6a4a"></stop><stop offset="1" stop-color="#2a2018"></stop>
    </radialGradient>

    
    <radialGradient id="we_blood" cx="0.5" cy="0.5" r="0.6"><stop offset="0" stop-color="#ff5050"></stop><stop offset="1" stop-color="#5a0808"></stop></radialGradient>
    <radialGradient id="we_poison" cx="0.5" cy="0.5" r="0.6"><stop offset="0" stop-color="#aef248"></stop><stop offset="1" stop-color="#1f3008"></stop></radialGradient>
    <radialGradient id="we_slow" cx="0.5" cy="0.5" r="0.6"><stop offset="0" stop-color="#88ccff"></stop><stop offset="1" stop-color="#0c2a44"></stop></radialGradient>
    <radialGradient id="we_armor" cx="0.5" cy="0.5" r="0.6"><stop offset="0" stop-color="#ffd070"></stop><stop offset="1" stop-color="#3a2008"></stop></radialGradient>
    <radialGradient id="we_shock" cx="0.5" cy="0.5" r="0.6"><stop offset="0" stop-color="#ffffff"></stop><stop offset="0.5" stop-color="#fff0a8"></stop><stop offset="1" stop-color="#3a2008"></stop></radialGradient>

    <filter id="wf_glow_warm" x="-30%" y="-30%" width="160%" height="160%">
      <feGaussianBlur stdDeviation="2" result="b"></feGaussianBlur><feFlood flood-color="#ff8a3a" flood-opacity="0.5"></feFlood>
      <feComposite in2="b" operator="in" result="c"></feComposite><feMerge><feMergeNode in="c"></feMergeNode><feMergeNode in="SourceGraphic"></feMergeNode></feMerge>
    </filter>
    <filter id="wf_glow_cool" x="-30%" y="-30%" width="160%" height="160%">
      <feGaussianBlur stdDeviation="2" result="b"></feGaussianBlur><feFlood flood-color="#88ccff" flood-opacity="0.5"></feFlood>
      <feComposite in2="b" operator="in" result="c"></feComposite><feMerge><feMergeNode in="c"></feMergeNode><feMergeNode in="SourceGraphic"></feMergeNode></feMerge>
    </filter>
    <filter id="wf_glow_poison" x="-30%" y="-30%" width="160%" height="160%">
      <feGaussianBlur stdDeviation="2" result="b"></feGaussianBlur><feFlood flood-color="#aef248" flood-opacity="0.55"></feFlood>
      <feComposite in2="b" operator="in" result="c"></feComposite><feMerge><feMergeNode in="c"></feMergeNode><feMergeNode in="SourceGraphic"></feMergeNode></feMerge>
    </filter>
    <filter id="wf_glow_gold" x="-30%" y="-30%" width="160%" height="160%">
      <feGaussianBlur stdDeviation="2" result="b"></feGaussianBlur><feFlood flood-color="#ffd070" flood-opacity="0.55"></feFlood>
      <feComposite in2="b" operator="in" result="c"></feComposite><feMerge><feMergeNode in="c"></feMergeNode><feMergeNode in="SourceGraphic"></feMergeNode></feMerge>
    </filter>

    <radialGradient id="wm_dot" cx="0.4" cy="0.4" r="0.7">
      <stop offset="0" stop-color="#ffe6a8"></stop><stop offset="0.6" stop-color="#a07a2f"></stop><stop offset="1" stop-color="#2a1a08"></stop>
    </radialGradient>

    
    
    <g id="wp_sword">
      <g transform="translate(39,39) rotate(-35) translate(-39,-39)">
        <rect x="36" y="14" width="6" height="40" fill="url(#wm_steel)" stroke="#1a1a1a" stroke-width="0.6"></rect>
        <polygon points="36,14 42,14 39,8" fill="url(#wm_steel)" stroke="#1a1a1a" stroke-width="0.5"></polygon>
        <line x1="39" y1="14" x2="39" y2="50" stroke="#1a1a1a" stroke-width="0.4" opacity="0.6"></line>
        <rect x="28" y="52" width="22" height="4" fill="url(#wm_brass)" stroke="#1a1a1a" stroke-width="0.5"></rect>
        <rect x="36" y="56" width="6" height="10" fill="url(#wm_leather)" stroke="#1a1a1a" stroke-width="0.4"></rect>
        <circle cx="39" cy="68" r="3" fill="url(#wm_brass)" stroke="#1a1a1a" stroke-width="0.5"></circle>
      </g>
    </g>
    
    <g id="wp_dagger">
      <g transform="translate(39,39) rotate(-35) translate(-39,-39)">
        <polygon points="36,18 42,18 39,12" fill="url(#wm_steel)" stroke="#1a1a1a" stroke-width="0.5"></polygon>
        <rect x="36" y="18" width="6" height="28" fill="url(#wm_steel)" stroke="#1a1a1a" stroke-width="0.5"></rect>
        <line x1="39" y1="18" x2="39" y2="44" stroke="#1a1a1a" stroke-width="0.4" opacity="0.6"></line>
        <rect x="32" y="46" width="14" height="3" fill="url(#wm_brass)" stroke="#1a1a1a" stroke-width="0.4"></rect>
        <rect x="36" y="49" width="6" height="10" fill="url(#wm_leather)" stroke="#1a1a1a" stroke-width="0.4"></rect>
        <circle cx="39" cy="61" r="2.4" fill="url(#wm_brass)" stroke="#1a1a1a" stroke-width="0.4"></circle>
      </g>
    </g>
    
    <g id="wp_mace">
      <g transform="translate(39,39) rotate(-30) translate(-39,-39)">
        <rect x="37" y="34" width="4" height="28" fill="url(#wm_wood)" stroke="#1a1208" stroke-width="0.4"></rect>
        <circle cx="39" cy="22" r="11" fill="url(#wm_steel)" stroke="#1a1a1a" stroke-width="0.7"></circle>
        <g fill="url(#wm_brass)" stroke="#1a1a1a" stroke-width="0.4">
          <rect x="37" y="10" width="4" height="4"></rect><rect x="37" y="30" width="4" height="4"></rect>
          <rect x="27" y="20" width="4" height="4"></rect><rect x="47" y="20" width="4" height="4"></rect>
          <rect x="31" y="13" width="3" height="3" transform="rotate(45 32.5 14.5)"></rect>
          <rect x="44" y="13" width="3" height="3" transform="rotate(45 45.5 14.5)"></rect>
        </g>
        <circle cx="36" cy="20" r="3" fill="#fff" opacity="0.4"></circle>
      </g>
    </g>
    
    <g id="wp_hammer">
      <g transform="translate(39,39) rotate(-30) translate(-39,-39)">
        <rect x="37" y="32" width="4" height="30" fill="url(#wm_wood)" stroke="#1a1208" stroke-width="0.4"></rect>
        <rect x="24" y="14" width="30" height="22" fill="url(#wm_steel_diag)" stroke="#1a1a1a" stroke-width="0.8"></rect>
        <rect x="22" y="16" width="4" height="18" fill="url(#wm_brass)" stroke="#1a1a1a" stroke-width="0.4"></rect>
        <rect x="52" y="16" width="4" height="18" fill="url(#wm_brass)" stroke="#1a1a1a" stroke-width="0.4"></rect>
        <line x1="28" y1="14" x2="28" y2="36" stroke="#1a1a1a" stroke-width="0.4" opacity="0.5"></line>
        <line x1="50" y1="14" x2="50" y2="36" stroke="#1a1a1a" stroke-width="0.4" opacity="0.5"></line>
      </g>
    </g>
    
    <g id="wp_greatsword">
      <g transform="translate(39,39) rotate(-35) translate(-39,-39)">
        <polygon points="36,8 42,8 39,4" fill="url(#wm_steel)" stroke="#1a1a1a" stroke-width="0.4"></polygon>
        <rect x="35" y="8" width="8" height="46" fill="url(#wm_steel)" stroke="#1a1a1a" stroke-width="0.6"></rect>
        <line x1="39" y1="10" x2="39" y2="52" stroke="#1a1a1a" stroke-width="0.4" opacity="0.6"></line>
        <rect x="22" y="54" width="34" height="5" fill="url(#wm_brass)" stroke="#1a1a1a" stroke-width="0.5"></rect>
        <rect x="35" y="59" width="8" height="14" fill="url(#wm_leather)" stroke="#1a1a1a" stroke-width="0.4"></rect>
        <circle cx="39" cy="74" r="3.5" fill="url(#wm_brass)" stroke="#1a1a1a" stroke-width="0.4"></circle>
      </g>
    </g>
    
    <g id="wp_spear">
      <g transform="translate(39,39) rotate(-30) translate(-39,-39)">
        <rect x="37.5" y="20" width="3" height="46" fill="url(#wm_wood)" stroke="#1a1208" stroke-width="0.4"></rect>
        <polygon points="33,18 45,18 39,4 39,20 39,18" fill="url(#wm_steel)" stroke="#1a1a1a" stroke-width="0.6"></polygon>
        <line x1="39" y1="6" x2="39" y2="18" stroke="#1a1a1a" stroke-width="0.5" opacity="0.7"></line>
        <rect x="35" y="20" width="8" height="2" fill="url(#wm_brass)" stroke="#1a1a1a" stroke-width="0.4"></rect>
      </g>
    </g>
    
    <g id="wp_shortbow">
      <g transform="translate(39,39)">
        <path d="M-18 -22 Q-26 0 -18 22" fill="none" stroke="url(#wm_wood)" stroke-width="3.6" stroke-linecap="round"></path>
        <path d="M-18 -22 L-24 0 L-18 22" stroke="#241810" stroke-width="0.4" fill="none"></path>
        <line x1="-18" y1="-22" x2="-22" y2="-26" stroke="url(#wm_wood)" stroke-width="1.2" stroke-linecap="round"></line>
        <line x1="-18" y1="22" x2="-22" y2="26" stroke="url(#wm_wood)" stroke-width="1.2" stroke-linecap="round"></line>
        <line x1="-18" y1="-22" x2="-18" y2="22" stroke="#e0d8c0" stroke-width="0.6"></line>
      </g>
    </g>
    
    <g id="wp_longbow">
      <g transform="translate(39,39)">
        <path d="M-14 -32 Q-26 0 -14 32" fill="none" stroke="url(#wm_wood)" stroke-width="3.6" stroke-linecap="round"></path>
        <line x1="-14" y1="-32" x2="-14" y2="32" stroke="#e0d8c0" stroke-width="0.6"></line>
        <rect x="-16" y="-3" width="6" height="6" fill="url(#wm_leather)" stroke="#241810" stroke-width="0.3"></rect>
      </g>
    </g>
    
    <g id="wp_crossbow">
      <g transform="translate(39,39)">
        <rect x="-4" y="-14" width="20" height="6" fill="url(#wm_wood)" stroke="#241810" stroke-width="0.5"></rect>
        <path d="M-18 -16 Q0 -22 18 -16" fill="none" stroke="url(#wm_steel)" stroke-width="2.4" stroke-linecap="round"></path>
        <line x1="-18" y1="-16" x2="16" y2="-11" stroke="#e0d8c0" stroke-width="0.6"></line>
        <rect x="-2" y="-8" width="14" height="3" fill="url(#wm_brass)" stroke="#241810" stroke-width="0.4"></rect>
        <path d="M-4 -8 L-12 8 L-4 4 Z" fill="url(#wm_wood)" stroke="#241810" stroke-width="0.5"></path>
      </g>
    </g>
    
    <g id="wp_fist">
      <g transform="translate(39,39)">
        <path d="M-16 -8 L16 -8 L18 -2 L16 6 L-16 6 L-18 -2 Z" fill="url(#wm_brass)" stroke="#241810" stroke-width="0.7"></path>
        <g fill="url(#wm_steel)" stroke="#1a1a1a" stroke-width="0.4">
          <circle cx="-10" cy="-3" r="3.4"></circle><circle cx="-3" cy="-3" r="3.4"></circle>
          <circle cx="4" cy="-3" r="3.4"></circle><circle cx="11" cy="-3" r="3.4"></circle>
        </g>
        <path d="M-16 6 L16 6 L14 12 L-14 12 Z" fill="url(#wm_leather)" stroke="#241810" stroke-width="0.5"></path>
      </g>
    </g>

    
  </defs>

  

  <symbol id="wa_sword_t1" viewBox="0 0 78 78">
    <rect width="78" height="78" fill="url(#wb_blade)"></rect>
    <use href="#wp_sword"></use>
    
    <g filter="url(#wf_glow_cool)" opacity="0.8">
      <path d="M14 56 Q26 50 36 44 Q42 40 48 32" stroke="#88ccff" stroke-width="3" fill="none" stroke-linecap="round"></path>
      <circle cx="14" cy="56" r="2" fill="#88ccff"></circle>
    </g>
  </symbol>

  <symbol id="wa_sword_t2" viewBox="0 0 78 78">
    <rect width="78" height="78" fill="url(#wb_blade)"></rect>
    <use href="#wp_sword"></use>
    
    <g filter="url(#wf_glow_cool)" fill="none" stroke="#dff4ff" stroke-width="3" stroke-linecap="round" opacity="0.85">
      <path d="M10 22 Q34 18 60 30"></path>
      <path d="M14 36 Q38 32 64 44"></path>
    </g>
  </symbol>

  <symbol id="wa_sword_t3" viewBox="0 0 78 78">
    <rect width="78" height="78" fill="url(#wb_blade)"></rect>
    <use href="#wp_sword"></use>
    
    <g filter="url(#wf_glow_warm)">
      <path d="M10 60 Q24 36 56 14" stroke="url(#we_blood)" stroke-width="4" fill="none" stroke-linecap="round" opacity="0.95"></path>
      <circle cx="56" cy="14" r="2.4" fill="#ffeec0"></circle>
      <circle cx="20" cy="50" r="1.6" fill="#ff5050" opacity="0.9"></circle>
      <circle cx="32" cy="36" r="1.4" fill="#ff5050" opacity="0.8"></circle>
      <circle cx="44" cy="24" r="1.4" fill="#ff5050" opacity="0.8"></circle>
    </g>
  </symbol>

  

  <symbol id="wa_dagger_t1" viewBox="0 0 78 78">
    <rect width="78" height="78" fill="url(#wb_blade)"></rect>
    <use href="#wp_dagger"></use>
    
    <g filter="url(#wf_glow_poison)">
      <path d="M48 22 Q52 26 50 32 Q46 32 44 28 Q44 24 48 22 Z" fill="url(#we_poison)" stroke="#1f3008" stroke-width="0.5"></path>
      <circle cx="56" cy="38" r="2" fill="#aef248" opacity="0.9"></circle>
      <circle cx="62" cy="50" r="1.4" fill="#aef248" opacity="0.7"></circle>
    </g>
  </symbol>

  <symbol id="wa_dagger_t2" viewBox="0 0 78 78">
    <rect width="78" height="78" fill="url(#wb_blade)"></rect>
    
    <g transform="translate(39,39) rotate(15) translate(-39,-39)">
      <use href="#wp_dagger"></use>
    </g>
    <g filter="url(#wf_glow_poison)" opacity="0.8" fill="none" stroke="#aef248" stroke-width="1.6" stroke-linecap="round">
      <path d="M14 60 L24 52"></path><path d="M18 66 L28 58"></path><path d="M10 52 L18 46"></path>
    </g>
  </symbol>

  <symbol id="wa_dagger_t3" viewBox="0 0 78 78">
    <rect width="78" height="78" fill="url(#wb_blade)"></rect>
    <use href="#wp_dagger"></use>
    
    <g filter="url(#wf_glow_poison)">
      <g fill="url(#we_poison)" stroke="#1f3008" stroke-width="0.5">
        <circle cx="14" cy="50" r="2.4"></circle><circle cx="20" cy="58" r="2.4"></circle>
        <circle cx="14" cy="64" r="2.4"></circle><circle cx="62" cy="20" r="2.4"></circle>
        <circle cx="58" cy="14" r="2.4"></circle>
      </g>
      
      <path d="M58 56 Q66 60 64 68 Q56 70 52 64 Q52 58 58 56 Z" fill="url(#we_poison)" stroke="#1f3008" stroke-width="0.6"></path>
      <path d="M56 60 Q60 60 60 64" stroke="#fff" stroke-width="0.8" fill="none" opacity="0.7"></path>
    </g>
  </symbol>

  

  <symbol id="wa_mace_t1" viewBox="0 0 78 78">
    <rect width="78" height="78" fill="url(#wb_blunt)"></rect>
    <use href="#wp_mace"></use>
    
    <g filter="url(#wf_glow_gold)" transform="translate(60,58)">
      <path d="M0 -8 L8 -5 Q8 4 0 10 Q-8 4 -8 -5 Z" fill="url(#we_armor)" stroke="#3a2008" stroke-width="0.6"></path>
      <line x1="0" y1="-4" x2="0" y2="6" stroke="#3a2008" stroke-width="0.6"></line>
      <line x1="-4" y1="0" x2="4" y2="0" stroke="#3a2008" stroke-width="0.6"></line>
    </g>
  </symbol>

  <symbol id="wa_mace_t2" viewBox="0 0 78 78">
    <rect width="78" height="78" fill="url(#wb_blunt)"></rect>
    <use href="#wp_mace"></use>
    
    <g filter="url(#wf_glow_gold)" transform="translate(58,56)">
      <path d="M0 -10 L10 -6 Q10 6 0 12 Q-10 6 -10 -6 Z" fill="url(#we_armor)" stroke="#3a2008" stroke-width="0.7"></path>
      <path d="M-3 -4 Q-5 -2 -3 1 L0 4 L3 1 Q5 -2 3 -4 Q1 -5 0 -3 Q-1 -5 -3 -4 Z" fill="#ff5a5a" stroke="#3a0808" stroke-width="0.4"></path>
    </g>
  </symbol>

  <symbol id="wa_mace_t3" viewBox="0 0 78 78">
    <rect width="78" height="78" fill="url(#wb_blunt)"></rect>
    <use href="#wp_mace"></use>
    
    <g filter="url(#wf_glow_gold)">
      <g fill="#fff0a8" stroke="#3a2008" stroke-width="0.5">
        <path d="M14 18 L16 22 L20 22 L17 25 L18 29 L14 26 L10 29 L11 25 L8 22 L12 22 Z"></path>
        <path d="M62 60 L64 64 L68 64 L65 67 L66 71 L62 68 L58 71 L59 67 L56 64 L60 64 Z"></path>
        <path d="M14 62 L15 65 L18 65 L16 67 L17 70 L14 68 L11 70 L12 67 L10 65 L13 65 Z"></path>
      </g>
    </g>
  </symbol>

  

  <symbol id="wa_hammer_t1" viewBox="0 0 78 78">
    <rect width="78" height="78" fill="url(#wb_blunt)"></rect>
    <use href="#wp_hammer"></use>
    
    <g filter="url(#wf_glow_gold)" fill="none" stroke="#ffd070" stroke-width="2" stroke-linecap="round" opacity="0.85">
      <path d="M8 64 Q24 56 40 64 Q56 56 70 64"></path>
      <path d="M14 70 Q34 64 64 70"></path>
    </g>
  </symbol>

  <symbol id="wa_hammer_t2" viewBox="0 0 78 78">
    <rect width="78" height="78" fill="url(#wb_blunt)"></rect>
    <use href="#wp_hammer"></use>
    
    <g filter="url(#wf_glow_gold)" transform="translate(58,58)">
      <path d="M0 -10 L10 -6 Q10 6 0 12 Q-10 6 -10 -6 Z" fill="url(#we_armor)" stroke="#3a2008" stroke-width="0.7"></path>
      <path d="M-4 -8 L0 -2 L-3 4 L2 8" stroke="#3a0808" stroke-width="1.2" fill="none" stroke-linecap="round"></path>
      <path d="M3 -6 L1 0 L4 4" stroke="#3a0808" stroke-width="0.8" fill="none" stroke-linecap="round"></path>
    </g>
  </symbol>

  <symbol id="wa_hammer_t3" viewBox="0 0 78 78">
    <rect width="78" height="78" fill="url(#wb_blunt)"></rect>
    <use href="#wp_hammer"></use>
    
    <g filter="url(#wf_glow_warm)" fill="none" stroke="#ffd070" stroke-width="1.6" stroke-linecap="round" opacity="0.9">
      <path d="M14 60 L20 56 L24 62 L30 56 L34 62 L40 56 L46 64 L52 58 L58 64 L64 58"></path>
      <path d="M10 70 L70 70" stroke-width="2.2"></path>
    </g>
    <g fill="#ffd070" opacity="0.8">
      <circle cx="22" cy="68" r="1.4"></circle><circle cx="38" cy="68" r="1.4"></circle>
      <circle cx="54" cy="68" r="1.4"></circle><circle cx="64" cy="68" r="1.2"></circle>
    </g>
  </symbol>

  

  <symbol id="wa_greatsword_t1" viewBox="0 0 78 78">
    <rect width="78" height="78" fill="url(#wb_blade)"></rect>
    <use href="#wp_greatsword"></use>
    
    <g filter="url(#wf_glow_warm)">
      <path d="M58 18 Q64 24 60 32 Q54 32 52 26 Q52 20 58 18 Z" fill="url(#we_blood)" stroke="#3a0808" stroke-width="0.6"></path>
      <circle cx="60" cy="40" r="1.6" fill="#ff5050"></circle>
      <circle cx="64" cy="50" r="1.2" fill="#ff5050" opacity="0.7"></circle>
    </g>
  </symbol>

  <symbol id="wa_greatsword_t2" viewBox="0 0 78 78">
    <rect width="78" height="78" fill="url(#wb_blade)"></rect>
    <use href="#wp_greatsword"></use>
    
    <g filter="url(#wf_glow_warm)" fill="none" stroke="#ff7a3a" stroke-width="3" stroke-linecap="round" opacity="0.85">
      <path d="M14 44 Q40 6 70 30"></path>
    </g>
    <g fill="#ff5050" opacity="0.8">
      <circle cx="14" cy="44" r="1.6"></circle><circle cx="70" cy="30" r="1.6"></circle>
    </g>
  </symbol>

  <symbol id="wa_greatsword_t3" viewBox="0 0 78 78">
    <rect width="78" height="78" fill="url(#wb_blade)"></rect>
    <use href="#wp_greatsword"></use>
    
    <g filter="url(#wf_glow_warm)">
      <path d="M10 50 Q30 14 70 24" stroke="url(#we_blood)" stroke-width="3.4" fill="none" stroke-linecap="round"></path>
      <g fill="#ff5050" opacity="0.9">
        <circle cx="14" cy="58" r="1.6"></circle><circle cx="22" cy="48" r="1.4"></circle>
        <circle cx="32" cy="40" r="1.2"></circle><circle cx="50" cy="30" r="1.4"></circle>
      </g>
      
      <g transform="translate(60,58)">
        <path d="M0 6 Q-8 0 -6 -4 Q-3 -7 0 -3 Q3 -7 6 -4 Q8 0 0 6 Z" fill="#ff3030" stroke="#3a0808" stroke-width="0.5"></path>
        <path d="M0 -2 L0 -10 M-3 -7 L0 -10 L3 -7" stroke="#fff" stroke-width="1" fill="none" stroke-linecap="round"></path>
      </g>
    </g>
  </symbol>

  
  <symbol id="wa_greatsword_warcry" viewBox="0 0 78 78">
    <rect width="78" height="78" fill="url(#wb_blade)"></rect>
    <use href="#wp_greatsword"></use>
    
    <g filter="url(#wf_glow_gold)" fill="none" stroke="#ffd070" stroke-width="2" stroke-linecap="round" opacity="0.85">
      <path d="M58 22 Q66 28 64 38"></path>
      <path d="M62 18 Q72 26 68 42"></path>
      <path d="M64 14 Q78 24 72 46"></path>
    </g>
    
    <g fill="#ffd070" stroke="#3a2008" stroke-width="0.4">
      <path d="M14 64 L18 56 L22 64 L20 64 L20 70 L16 70 L16 64 Z"></path>
      <path d="M10 50 L13 44 L16 50 L14.5 50 L14.5 54 L11.5 54 L11.5 50 Z" opacity="0.85"></path>
    </g>
  </symbol>

  

  <symbol id="wa_spear_t1" viewBox="0 0 78 78">
    <rect width="78" height="78" fill="url(#wb_pierce)"></rect>
    <use href="#wp_spear"></use>
    
    <g filter="url(#wf_glow_warm)" fill="none" stroke="#ffd070" stroke-width="2" stroke-linecap="round" opacity="0.85">
      <path d="M14 56 L8 48 M14 56 L8 64"></path>
      <path d="M22 60 L16 52 M22 60 L16 68" opacity="0.8"></path>
    </g>
  </symbol>

  <symbol id="wa_spear_t2" viewBox="0 0 78 78">
    <rect width="78" height="78" fill="url(#wb_pierce)"></rect>
    
    <g transform="translate(39,39) rotate(150) translate(-39,-39)">
      <use href="#wp_spear"></use>
    </g>
    <g filter="url(#wf_glow_warm)" fill="none" stroke="#ffd070" stroke-width="2.4" stroke-linecap="round" opacity="0.9">
      <path d="M58 26 L66 20 M58 26 L66 32"></path>
      <path d="M52 20 L60 14 M52 20 L60 26"></path>
    </g>
  </symbol>

  <symbol id="wa_spear_t3" viewBox="0 0 78 78">
    <rect width="78" height="78" fill="url(#wb_pierce)"></rect>
    
    <g transform="translate(39,39) rotate(15) translate(-39,-39)">
      <use href="#wp_spear"></use>
    </g>
    <g filter="url(#wf_glow_warm)" opacity="0.85" fill="none" stroke="#ffd070" stroke-width="1.6" stroke-linecap="round">
      <path d="M10 60 L20 54"></path><path d="M14 68 L24 62"></path><path d="M6 52 L16 46"></path>
    </g>
  </symbol>

  

  <symbol id="wa_shortbow_t1" viewBox="0 0 78 78">
    <rect width="78" height="78" fill="url(#wb_ranged)"></rect>
    <use href="#wp_shortbow"></use>
    
    <g filter="url(#wf_glow_warm)">
      <line x1="22" y1="39" x2="64" y2="39" stroke="url(#wm_steel)" stroke-width="2" stroke-linecap="round"></line>
      <polygon points="64,39 56,35 56,43" fill="url(#wm_steel)" stroke="#1a1a1a" stroke-width="0.4"></polygon>
      
      <g transform="translate(64,39)" fill="none" stroke="#ff5050" stroke-width="1" opacity="0.85">
        <circle r="6"></circle><line x1="-8" y1="0" x2="-2" y2="0"></line><line x1="2" y1="0" x2="8" y2="0"></line>
        <line x1="0" y1="-8" x2="0" y2="-2"></line><line x1="0" y1="2" x2="0" y2="8"></line>
      </g>
    </g>
  </symbol>

  <symbol id="wa_shortbow_t2" viewBox="0 0 78 78">
    <rect width="78" height="78" fill="url(#wb_ranged)"></rect>
    <use href="#wp_shortbow"></use>
    
    <g filter="url(#wf_glow_warm)">
      <line x1="22" y1="39" x2="64" y2="39" stroke="url(#wm_steel)" stroke-width="2" stroke-linecap="round"></line>
      <polygon points="64,39 56,35 56,43" fill="url(#wm_steel)" stroke="#1a1a1a" stroke-width="0.4"></polygon>
      
      <g transform="translate(20,58)" fill="none" stroke="#ffd070" stroke-width="2" stroke-linecap="round">
        <path d="M0 0 L-10 0"></path><path d="M-10 0 L-6 -4"></path><path d="M-10 0 L-6 4"></path>
      </g>
      <g fill="#fff0a8" opacity="0.6">
        <circle cx="34" cy="62" r="1.6"></circle><circle cx="40" cy="64" r="1.2"></circle><circle cx="46" cy="60" r="1"></circle>
      </g>
    </g>
  </symbol>

  <symbol id="wa_shortbow_t3" viewBox="0 0 78 78">
    <rect width="78" height="78" fill="url(#wb_ranged)"></rect>
    <use href="#wp_shortbow"></use>
    
    <g filter="url(#wf_glow_gold)" transform="translate(54,58)">
      <ellipse cx="0" cy="2" rx="14" ry="3" fill="#3a2008" opacity="0.7"></ellipse>
      <g fill="url(#wm_steel)" stroke="#1a1a1a" stroke-width="0.5">
        <path d="M-12 0 L-12 -6 L-9 -2 L-7 -7 L-4 -2 L-1 -8 L1 -2 L4 -7 L7 -2 L9 -6 L12 0 Z"></path>
        <path d="M-12 4 L-12 10 L-9 6 L-7 11 L-4 6 L-1 12 L1 6 L4 11 L7 6 L9 10 L12 4 Z"></path>
      </g>
      <circle cx="0" cy="2" r="2.4" fill="url(#we_armor)" stroke="#1a1208" stroke-width="0.5"></circle>
    </g>
  </symbol>

  

  <symbol id="wa_longbow_t1" viewBox="0 0 78 78">
    <rect width="78" height="78" fill="url(#wb_ranged)"></rect>
    <use href="#wp_longbow"></use>
    
    <g filter="url(#wf_glow_gold)">
      <line x1="26" y1="39" x2="70" y2="39" stroke="url(#wm_steel)" stroke-width="2" stroke-linecap="round"></line>
      <polygon points="70,39 62,35 62,43" fill="url(#wm_steel)" stroke="#1a1a1a" stroke-width="0.4"></polygon>
      
      <g transform="translate(60,58)" fill="none" stroke="#ffd070" stroke-width="1.4" stroke-linecap="round">
        <path d="M6 0 A6 6 0 1 1 -6 0"></path>
        <path d="M-6 0 L-9 -3"></path><path d="M-6 0 L-3 3"></path>
      </g>
    </g>
  </symbol>

  <symbol id="wa_longbow_t2" viewBox="0 0 78 78">
    <rect width="78" height="78" fill="url(#wb_ranged)"></rect>
    <use href="#wp_longbow"></use>
    
    <g filter="url(#wf_glow_gold)">
      <g stroke="url(#wm_steel)" stroke-width="1.4" stroke-linecap="round" fill="none">
        <line x1="50" y1="14" x2="44" y2="30"></line>
        <line x1="58" y1="18" x2="52" y2="36"></line>
        <line x1="66" y1="14" x2="60" y2="32"></line>
        <line x1="62" y1="28" x2="56" y2="48"></line>
      </g>
      <g fill="url(#wm_steel)" stroke="#1a1a1a" stroke-width="0.3">
        <polygon points="44,30 41,26 47,26"></polygon>
        <polygon points="52,36 49,32 55,32"></polygon>
        <polygon points="60,32 57,28 63,28"></polygon>
        <polygon points="56,48 53,44 59,44"></polygon>
      </g>
    </g>
  </symbol>

  <symbol id="wa_longbow_t3" viewBox="0 0 78 78">
    <rect width="78" height="78" fill="url(#wb_ranged)"></rect>
    <use href="#wp_longbow"></use>
    
    <g filter="url(#wf_glow_warm)">
      <line x1="22" y1="39" x2="70" y2="39" stroke="url(#wm_steel)" stroke-width="3.4" stroke-linecap="round"></line>
      <polygon points="70,39 60,33 60,45" fill="url(#wm_steel)" stroke="#1a1a1a" stroke-width="0.5"></polygon>
      
      <g transform="translate(60,58)">
        <path d="M-7 -7 L7 -7 Q7 4 0 8 Q-7 4 -7 -7 Z" fill="url(#we_armor)" stroke="#3a2008" stroke-width="0.6" opacity="0.8"></path>
        <path d="M-4 -6 L0 0 L-3 6" stroke="#3a0808" stroke-width="1" fill="none"></path>
        <path d="M3 -5 L1 0 L4 5" stroke="#3a0808" stroke-width="0.8" fill="none"></path>
      </g>
    </g>
  </symbol>

  

  <symbol id="wa_crossbow_t1" viewBox="0 0 78 78">
    <rect width="78" height="78" fill="url(#wb_ranged)"></rect>
    <use href="#wp_crossbow"></use>
    
    <g filter="url(#wf_glow_warm)">
      <line x1="20" y1="58" x2="74" y2="58" stroke="url(#wm_steel)" stroke-width="2" stroke-linecap="round"></line>
      <polygon points="74,58 66,54 66,62" fill="url(#wm_steel)" stroke="#1a1a1a" stroke-width="0.4"></polygon>
      <g fill="#5a3a22" stroke="#241810" stroke-width="0.5" opacity="0.85">
        <circle cx="32" cy="58" r="3"></circle><circle cx="48" cy="58" r="3"></circle><circle cx="62" cy="58" r="3"></circle>
      </g>
    </g>
  </symbol>

  <symbol id="wa_crossbow_t2" viewBox="0 0 78 78">
    <rect width="78" height="78" fill="url(#wb_ranged)"></rect>
    <use href="#wp_crossbow"></use>
    
    <g filter="url(#wf_glow_warm)">
      <line x1="22" y1="58" x2="68" y2="58" stroke="url(#wm_steel)" stroke-width="2" stroke-linecap="round"></line>
      <polygon points="68,58 60,54 60,62" fill="url(#wm_steel)" stroke="#1a1a1a" stroke-width="0.4"></polygon>
      <g fill="none" stroke="url(#wm_brass)" stroke-width="1.6" stroke-linecap="round">
        <path d="M30 52 Q34 58 30 64"></path>
        <path d="M40 52 Q44 58 40 64"></path>
        <path d="M50 52 Q54 58 50 64"></path>
      </g>
    </g>
  </symbol>

  <symbol id="wa_crossbow_t3" viewBox="0 0 78 78">
    <rect width="78" height="78" fill="url(#wb_ranged)"></rect>
    <use href="#wp_crossbow"></use>
    
    <g filter="url(#wf_glow_gold)">
      <line x1="22" y1="58" x2="62" y2="58" stroke="url(#wm_steel)" stroke-width="1.6" stroke-linecap="round"></line>
      <polygon points="62,58 56,55 56,61" fill="url(#wm_steel)" stroke="#1a1a1a" stroke-width="0.3"></polygon>
      <g fill="#ffd070" stroke="#3a2008" stroke-width="0.4">
        <path d="M14 30 L18 22 L22 30 L20 30 L20 38 L16 38 L16 30 Z"></path>
        <path d="M52 22 L56 14 L60 22 L58 22 L58 30 L54 30 L54 22 Z"></path>
        <path d="M64 30 L68 22 L72 30 L70 30 L70 38 L66 38 L66 30 Z"></path>
      </g>
      <circle cx="18" cy="20" r="1.6" fill="#fff0a8"></circle>
      <circle cx="56" cy="12" r="1.6" fill="#fff0a8"></circle>
      <circle cx="68" cy="20" r="1.6" fill="#fff0a8"></circle>
    </g>
  </symbol>

  

  <symbol id="wa_fists_t1" viewBox="0 0 78 78">
    <rect width="78" height="78" fill="url(#wb_fist)"></rect>
    <use href="#wp_fist"></use>
    
    <g filter="url(#wf_glow_warm)">
      <g fill="none" stroke="#ffd070" stroke-width="1.6" stroke-linecap="round" opacity="0.85">
        <line x1="58" y1="20" x2="64" y2="14"></line>
        <line x1="60" y1="26" x2="68" y2="22"></line>
        <line x1="58" y1="14" x2="62" y2="8"></line>
      </g>
      <circle cx="64" cy="18" r="1.6" fill="#fff0a8"></circle>
    </g>
  </symbol>

  <symbol id="wa_fists_t2" viewBox="0 0 78 78">
    <rect width="78" height="78" fill="url(#wb_fist)"></rect>
    <use href="#wp_fist"></use>
    
    <g filter="url(#wf_glow_cool)" fill="none" stroke="#88ccff" stroke-width="1.4" stroke-linecap="round" opacity="0.85">
      <path d="M20 18 Q26 22 22 26 Q14 22 22 14"></path>
      <path d="M58 18 Q64 22 60 26 Q52 22 60 14"></path>
    </g>
    <g fill="#88ccff" opacity="0.7">
      <circle cx="14" cy="18" r="1"></circle><circle cx="64" cy="18" r="1"></circle>
    </g>
  </symbol>

  <symbol id="wa_fists_t3" viewBox="0 0 78 78">
    <rect width="78" height="78" fill="url(#wb_fist)"></rect>
    <use href="#wp_fist"></use>
    
    <g filter="url(#wf_glow_gold)" fill="none" stroke="#fff0a8" stroke-width="1.4" stroke-linecap="round" opacity="0.9">
      <line x1="14" y1="18" x2="22" y2="22"></line>
      <line x1="22" y1="10" x2="26" y2="16"></line>
      <line x1="39" y1="6" x2="39" y2="14"></line>
      <line x1="56" y1="10" x2="52" y2="16"></line>
      <line x1="64" y1="18" x2="56" y2="22"></line>
    </g>
    
    <circle cx="39" cy="39" r="22" fill="none" stroke="#fff0a8" stroke-width="0.6" stroke-dasharray="2 2" opacity="0.5"></circle>
  </symbol>

  
  <symbol id="wa_hammer_focus" viewBox="0 0 78 78">
    <rect width="78" height="78" fill="url(#wb_blunt)"></rect>
    <use href="#wp_hammer"></use>
    
    <g filter="url(#wf_glow_gold)" transform="translate(18,20)">
      <ellipse cx="0" cy="0" rx="10" ry="6" fill="url(#we_armor)" stroke="#3a2008" stroke-width="0.6"></ellipse>
      <circle cx="0" cy="0" r="3.4" fill="#3a2008"></circle>
      <circle cx="-1" cy="-1" r="1.4" fill="#fff"></circle>
      <g fill="none" stroke="#ff5050" stroke-width="0.8">
        <line x1="-12" y1="0" x2="-7" y2="0"></line><line x1="7" y1="0" x2="12" y2="0"></line>
        <line x1="0" y1="-8" x2="0" y2="-4"></line><line x1="0" y1="4" x2="0" y2="8"></line>
      </g>
    </g>
  </symbol>

</svg>