<svg xmlns="http://www.w3.org/2000/svg" style="display:none" aria-hidden="true">
  <defs>
    <linearGradient id="g_steel" x1="0" y1="0" x2="0" y2="1">
      <stop offset="0" stop-color="#d8d4cc"></stop>
      <stop offset="0.5" stop-color="#8a857a"></stop>
      <stop offset="1" stop-color="#3a362e"></stop>
    </linearGradient>
    <linearGradient id="g_steel_h" x1="0" y1="0" x2="1" y2="0">
      <stop offset="0" stop-color="#bfb9ad"></stop>
      <stop offset="0.5" stop-color="#75705f"></stop>
      <stop offset="1" stop-color="#2e2a22"></stop>
    </linearGradient>
    <linearGradient id="g_brass" x1="0" y1="0" x2="0" y2="1">
      <stop offset="0" stop-color="#e6c578"></stop>
      <stop offset="0.5" stop-color="#a07a2f"></stop>
      <stop offset="1" stop-color="#4a3818"></stop>
    </linearGradient>
    <linearGradient id="g_copper" x1="0" y1="0" x2="0" y2="1">
      <stop offset="0" stop-color="#e09060"></stop>
      <stop offset="0.5" stop-color="#9a5028"></stop>
      <stop offset="1" stop-color="#3e1d0e"></stop>
    </linearGradient>
    <linearGradient id="g_wood" x1="0" y1="0" x2="0" y2="1">
      <stop offset="0" stop-color="#7a5634"></stop>
      <stop offset="0.5" stop-color="#4d361f"></stop>
      <stop offset="1" stop-color="#241810"></stop>
    </linearGradient>
    <linearGradient id="g_leather" x1="0" y1="0" x2="0" y2="1">
      <stop offset="0" stop-color="#5a3a22"></stop>
      <stop offset="1" stop-color="#1f1208"></stop>
    </linearGradient>
    <linearGradient id="g_chain" x1="0" y1="0" x2="0" y2="1">
      <stop offset="0" stop-color="#bfb9ad"></stop>
      <stop offset="0.5" stop-color="#6e695f"></stop>
      <stop offset="1" stop-color="#2a2620"></stop>
    </linearGradient>
    <radialGradient id="g_fire" cx="0.4" cy="0.35" r="0.7">
      <stop offset="0" stop-color="#ffe6b0"></stop>
      <stop offset="0.35" stop-color="#ff8a3a"></stop>
      <stop offset="0.75" stop-color="#a8330e"></stop>
      <stop offset="1" stop-color="#3a0e04"></stop>
    </radialGradient>
    <radialGradient id="g_water" cx="0.4" cy="0.35" r="0.7">
      <stop offset="0" stop-color="#e8f4ff"></stop>
      <stop offset="0.4" stop-color="#7ab8e8"></stop>
      <stop offset="0.85" stop-color="#264f7c"></stop>
      <stop offset="1" stop-color="#0c1f33"></stop>
    </radialGradient>
    <radialGradient id="g_nature" cx="0.4" cy="0.35" r="0.7">
      <stop offset="0" stop-color="#c8e090"></stop>
      <stop offset="0.4" stop-color="#5a8a32"></stop>
      <stop offset="0.85" stop-color="#2a4818"></stop>
      <stop offset="1" stop-color="#0e1a08"></stop>
    </radialGradient>
    <radialGradient id="g_rivet" cx="0.35" cy="0.35" r="0.7">
      <stop offset="0" stop-color="#ffd890"></stop>
      <stop offset="0.6" stop-color="#8c6520"></stop>
      <stop offset="1" stop-color="#2c1e08"></stop>
    </radialGradient>
    <radialGradient id="g_stone" cx="0.4" cy="0.35" r="0.75">
      <stop offset="0" stop-color="#7a7066"></stop>
      <stop offset="0.6" stop-color="#3e362c"></stop>
      <stop offset="1" stop-color="#161210"></stop>
    </radialGradient>

    <filter id="f_glow_red" x="-30%" y="-30%" width="160%" height="160%">
      <feGaussianBlur stdDeviation="2.5" result="b"></feGaussianBlur>
      <feFlood flood-color="#ff5a18" flood-opacity="0.55"></feFlood>
      <feComposite in2="b" operator="in" result="c"></feComposite>
      <feMerge><feMergeNode in="c"></feMergeNode><feMergeNode in="SourceGraphic"></feMergeNode></feMerge>
    </filter>
    <filter id="f_glow_blue" x="-30%" y="-30%" width="160%" height="160%">
      <feGaussianBlur stdDeviation="2.5" result="b"></feGaussianBlur>
      <feFlood flood-color="#5aa8e8" flood-opacity="0.55"></feFlood>
      <feComposite in2="b" operator="in" result="c"></feComposite>
      <feMerge><feMergeNode in="c"></feMergeNode><feMergeNode in="SourceGraphic"></feMergeNode></feMerge>
    </filter>
    <filter id="f_glow_green" x="-30%" y="-30%" width="160%" height="160%">
      <feGaussianBlur stdDeviation="2.5" result="b"></feGaussianBlur>
      <feFlood flood-color="#5acf6c" flood-opacity="0.55"></feFlood>
      <feComposite in2="b" operator="in" result="c"></feComposite>
      <feMerge><feMergeNode in="c"></feMergeNode><feMergeNode in="SourceGraphic"></feMergeNode></feMerge>
    </filter>

    <radialGradient id="bg_str" cx="0.5" cy="0.5" r="0.6">
      <stop offset="0" stop-color="#3a1a14" stop-opacity="0.55"></stop>
      <stop offset="1" stop-color="#0b0905" stop-opacity="0"></stop>
    </radialGradient>
    <radialGradient id="bg_agi" cx="0.5" cy="0.5" r="0.6">
      <stop offset="0" stop-color="#1a3220" stop-opacity="0.55"></stop>
      <stop offset="1" stop-color="#0b0905" stop-opacity="0"></stop>
    </radialGradient>
    <radialGradient id="bg_int" cx="0.5" cy="0.5" r="0.6">
      <stop offset="0" stop-color="#172a3e" stop-opacity="0.55"></stop>
      <stop offset="1" stop-color="#0b0905" stop-opacity="0"></stop>
    </radialGradient>
  </defs>

  

  <symbol id="icon_shield_t1" viewBox="0 0 156 156">
    <rect width="156" height="156" fill="url(#bg_str)"></rect>
    <g>
      
      <path d="M78 22 Q116 30 118 60 Q118 100 78 138 Q38 100 38 60 Q40 30 78 22 Z" fill="url(#g_steel)" stroke="#1a1208" stroke-width="1.2"></path>
      
      <circle cx="78" cy="76" r="10" fill="url(#g_steel_h)" stroke="#1a1208" stroke-width="0.9"></circle>
      <circle cx="76" cy="74" r="3" fill="#f0ece4" opacity="0.5"></circle>
      
      <circle cx="52" cy="40" r="2.6" fill="url(#g_rivet)" stroke="#1a1208" stroke-width="0.4"></circle>
      <circle cx="104" cy="40" r="2.6" fill="url(#g_rivet)" stroke="#1a1208" stroke-width="0.4"></circle>
      <circle cx="46" cy="78" r="2.6" fill="url(#g_rivet)" stroke="#1a1208" stroke-width="0.4"></circle>
      <circle cx="110" cy="78" r="2.6" fill="url(#g_rivet)" stroke="#1a1208" stroke-width="0.4"></circle>
      <circle cx="78" cy="124" r="2.6" fill="url(#g_rivet)" stroke="#1a1208" stroke-width="0.4"></circle>
      
      <path d="M50 38 Q60 30 78 28 L76 38 Q62 40 54 48 Z" fill="#f0ece4" opacity="0.32"></path>
      
      <path d="M58 110 Q78 130 98 110 Q78 140 58 110 Z" fill="#0d0a06" opacity="0.5"></path>
    </g>
  </symbol>

  <symbol id="icon_shield_t2" viewBox="0 0 156 156">
    <rect width="156" height="156" fill="url(#bg_str)"></rect>
    <g>
      <path d="M78 22 Q116 30 118 60 Q118 100 78 138 Q38 100 38 60 Q40 30 78 22 Z" fill="url(#g_steel)" stroke="#1a1208" stroke-width="1.2"></path>
      
      <path d="M78 22 Q116 30 118 60 Q118 100 78 138 Q38 100 38 60 Q40 30 78 22 Z" fill="none" stroke="url(#g_brass)" stroke-width="3"></path>
      <path d="M78 22 Q116 30 118 60 Q118 100 78 138 Q38 100 38 60 Q40 30 78 22 Z" fill="none" stroke="#1a1208" stroke-width="0.7"></path>
      
      <path d="M44 70 Q78 78 112 70 L112 86 Q78 94 44 86 Z" fill="url(#g_brass)" stroke="#1a1208" stroke-width="0.8"></path>
      
      <circle cx="78" cy="78" r="12" fill="url(#g_steel_h)" stroke="#1a1208" stroke-width="0.9"></circle>
      <circle cx="78" cy="78" r="12" fill="none" stroke="url(#g_brass)" stroke-width="2"></circle>
      <circle cx="78" cy="78" r="4" fill="#1a1208"></circle>
      <circle cx="76" cy="76" r="1.8" fill="#f0ece4" opacity="0.6"></circle>
      
      <circle cx="50" cy="78" r="2.4" fill="url(#g_rivet)" stroke="#1a1208" stroke-width="0.4"></circle>
      <circle cx="106" cy="78" r="2.4" fill="url(#g_rivet)" stroke="#1a1208" stroke-width="0.4"></circle>
      <circle cx="62" cy="38" r="2.4" fill="url(#g_rivet)" stroke="#1a1208" stroke-width="0.4"></circle>
      <circle cx="94" cy="38" r="2.4" fill="url(#g_rivet)" stroke="#1a1208" stroke-width="0.4"></circle>
      
      <path d="M48 38 Q60 28 78 26 L76 36 Q62 40 52 50 Z" fill="#f0ece4" opacity="0.3"></path>
      <path d="M58 110 Q78 130 98 110 Q78 140 58 110 Z" fill="#0d0a06" opacity="0.5"></path>
    </g>
  </symbol>

  <symbol id="icon_shield_t3" viewBox="0 0 156 156">
    <rect width="156" height="156" fill="url(#bg_str)"></rect>
    <g filter="url(#f_glow_green)">
      
      <path d="M78 18 Q118 28 122 58 Q122 102 78 142 Q34 102 34 58 Q38 28 78 18 Z" fill="url(#g_steel)" stroke="#1a1208" stroke-width="1.2"></path>
      
      <path d="M78 18 Q118 28 122 58 Q122 102 78 142 Q34 102 34 58 Q38 28 78 18 Z" fill="none" stroke="url(#g_brass)" stroke-width="4.5"></path>
      <path d="M78 18 Q118 28 122 58 Q122 102 78 142 Q34 102 34 58 Q38 28 78 18 Z" fill="none" stroke="#1a1208" stroke-width="0.7"></path>
      
      <rect x="74" y="22" width="8" height="116" fill="url(#g_brass)" stroke="#1a1208" stroke-width="0.7"></rect>
      
      <path d="M40 70 Q78 76 116 70 L116 86 Q78 92 40 86 Z" fill="url(#g_brass)" stroke="#1a1208" stroke-width="0.8"></path>
      
      <circle cx="78" cy="78" r="14" fill="url(#g_brass)" stroke="#1a1208" stroke-width="1"></circle>
      <circle cx="78" cy="78" r="9" fill="url(#g_nature)" stroke="#1a1208" stroke-width="0.8"></circle>
      <path d="M73 73 L78 70 L83 73 L78 80 Z" fill="#ffffff" opacity="0.45"></path>
      
      <circle cx="50" cy="40" r="3" fill="url(#g_rivet)" stroke="#1a1208" stroke-width="0.5"></circle>
      <circle cx="106" cy="40" r="3" fill="url(#g_rivet)" stroke="#1a1208" stroke-width="0.5"></circle>
      <circle cx="44" cy="78" r="3" fill="url(#g_rivet)" stroke="#1a1208" stroke-width="0.5"></circle>
      <circle cx="112" cy="78" r="3" fill="url(#g_rivet)" stroke="#1a1208" stroke-width="0.5"></circle>
      <circle cx="62" cy="116" r="2.6" fill="url(#g_rivet)" stroke="#1a1208" stroke-width="0.4"></circle>
      <circle cx="94" cy="116" r="2.6" fill="url(#g_rivet)" stroke="#1a1208" stroke-width="0.4"></circle>
      
      <path d="M44 36 Q60 26 78 24 L76 34 Q60 38 50 50 Z" fill="#f0ece4" opacity="0.3"></path>
      <path d="M58 116 Q78 134 98 116 Q78 144 58 116 Z" fill="#0d0a06" opacity="0.5"></path>
    </g>
  </symbol>

  

  <symbol id="icon_ring_t1" viewBox="0 0 156 156">
    <rect width="156" height="156" fill="url(#bg_agi)"></rect>
    <g transform="translate(78,82) rotate(-15) translate(-78,-82)">
      
      <ellipse cx="78" cy="82" rx="42" ry="44" fill="url(#g_steel)" stroke="#1a1208" stroke-width="1.2"></ellipse>
      
      <ellipse cx="78" cy="82" rx="28" ry="30" fill="#0b0905" stroke="#1a1208" stroke-width="0.9"></ellipse>
      
      <path d="M52 88 Q78 108 104 88 Q104 98 78 110 Q52 98 52 88 Z" fill="#0d0a06" opacity="0.55"></path>
      
      <path d="M44 70 Q60 48 96 48 Q108 50 110 56 Q92 56 78 60 Q60 64 50 76 Z" fill="#f0ece4" opacity="0.32"></path>
      
      <path d="M58 60 Q78 54 98 60" fill="none" stroke="#f0ece4" stroke-width="0.6" opacity="0.4"></path>
    </g>
  </symbol>

  <symbol id="icon_ring_t2" viewBox="0 0 156 156">
    <rect width="156" height="156" fill="url(#bg_agi)"></rect>
    <g transform="translate(78,86) rotate(-12) translate(-78,-86)">
      
      <ellipse cx="78" cy="86" rx="40" ry="42" fill="url(#g_steel)" stroke="#1a1208" stroke-width="1.2"></ellipse>
      <ellipse cx="78" cy="86" rx="26" ry="28" fill="#0b0905" stroke="#1a1208" stroke-width="0.9"></ellipse>
      
      <path d="M68 46 L88 46 L92 56 L64 56 Z" fill="url(#g_steel_h)" stroke="#1a1208" stroke-width="0.9"></path>
      
      <circle cx="78" cy="44" r="6" fill="url(#g_water)" stroke="#1a1208" stroke-width="0.8"></circle>
      <path d="M75 41 L78 39 L81 41 L78 46 Z" fill="#ffffff" opacity="0.55"></path>
      
      <path d="M72 40 L70 36 L74 38 Z" fill="url(#g_steel)" stroke="#1a1208" stroke-width="0.4"></path>
      <path d="M84 40 L86 36 L82 38 Z" fill="url(#g_steel)" stroke="#1a1208" stroke-width="0.4"></path>
      
      <path d="M52 92 Q78 110 104 92 Q104 102 78 112 Q52 102 52 92 Z" fill="#0d0a06" opacity="0.55"></path>
      <path d="M46 76 Q58 60 88 58 L88 64 Q66 66 52 80 Z" fill="#f0ece4" opacity="0.3"></path>
    </g>
  </symbol>

  <symbol id="icon_ring_t3" viewBox="0 0 156 156">
    <rect width="156" height="156" fill="url(#bg_agi)"></rect>
    <g transform="translate(78,90) rotate(-10) translate(-78,-90)">
      
      <ellipse cx="78" cy="90" rx="40" ry="42" fill="url(#g_brass)" stroke="#1a1208" stroke-width="1.2"></ellipse>
      <ellipse cx="78" cy="90" rx="25" ry="27" fill="#0b0905" stroke="#1a1208" stroke-width="0.9"></ellipse>
      
      <path d="M58 42 L98 42 L102 56 L54 56 Z" fill="url(#g_brass)" stroke="#1a1208" stroke-width="0.9"></path>
      
      <path d="M58 42 L56 30 L62 38 Z" fill="url(#g_brass)" stroke="#1a1208" stroke-width="0.5"></path>
      <path d="M70 40 L70 28 L74 38 Z" fill="url(#g_brass)" stroke="#1a1208" stroke-width="0.5"></path>
      <path d="M86 40 L86 28 L82 38 Z" fill="url(#g_brass)" stroke="#1a1208" stroke-width="0.5"></path>
      <path d="M98 42 L100 30 L94 38 Z" fill="url(#g_brass)" stroke="#1a1208" stroke-width="0.5"></path>
      
      <ellipse cx="78" cy="40" rx="14" ry="12" fill="url(#g_fire)" stroke="#1a1208" stroke-width="1"></ellipse>
      
      <path d="M68 40 L78 30 L88 40 L78 50 Z" fill="none" stroke="#1a1208" stroke-width="0.5" opacity="0.5"></path>
      <path d="M72 36 L78 32 L84 36 L78 44 Z" fill="#ffffff" opacity="0.5"></path>
      
      <path d="M44 76 Q60 56 100 56 L100 64 Q70 64 50 82 Z" fill="#f0ece4" opacity="0.32"></path>
      <path d="M52 96 Q78 116 104 96 Q104 106 78 116 Q52 106 52 96 Z" fill="#0d0a06" opacity="0.55"></path>
    </g>
  </symbol>

  

  <symbol id="icon_amulet_t1" viewBox="0 0 156 156">
    <rect width="156" height="156" fill="url(#bg_agi)"></rect>
    <g>
      
      <path d="M30 52 Q78 36 126 52" fill="none" stroke="url(#g_chain)" stroke-width="3" stroke-linecap="round"></path>
      <path d="M30 52 Q78 36 126 52" fill="none" stroke="#1a1208" stroke-width="0.6" stroke-dasharray="3,3"></path>
      
      <circle cx="36" cy="54" r="2.6" fill="url(#g_steel)" stroke="#1a1208" stroke-width="0.4"></circle>
      <circle cx="120" cy="54" r="2.6" fill="url(#g_steel)" stroke="#1a1208" stroke-width="0.4"></circle>
      
      <rect x="74" y="56" width="8" height="10" rx="2" fill="url(#g_steel)" stroke="#1a1208" stroke-width="0.7"></rect>
      
      <path d="M78 66 Q98 78 96 100 Q94 122 78 130 Q62 122 60 100 Q58 78 78 66 Z" fill="url(#g_steel)" stroke="#1a1208" stroke-width="1.1"></path>
      
      <path d="M62 102 Q78 124 94 102 Q94 116 78 126 Q62 116 62 102 Z" fill="#0d0a06" opacity="0.5"></path>
      
      <path d="M70 76 Q78 70 86 76 L84 84 Q78 80 72 84 Z" fill="#f0ece4" opacity="0.35"></path>
    </g>
  </symbol>

  <symbol id="icon_amulet_t2" viewBox="0 0 156 156">
    <rect width="156" height="156" fill="url(#bg_agi)"></rect>
    <g>
      <path d="M28 50 Q78 32 128 50" fill="none" stroke="url(#g_chain)" stroke-width="3.2" stroke-linecap="round"></path>
      <path d="M28 50 Q78 32 128 50" fill="none" stroke="#1a1208" stroke-width="0.6" stroke-dasharray="3,3"></path>
      <circle cx="34" cy="52" r="2.8" fill="url(#g_steel)" stroke="#1a1208" stroke-width="0.4"></circle>
      <circle cx="122" cy="52" r="2.8" fill="url(#g_steel)" stroke="#1a1208" stroke-width="0.4"></circle>
      
      <path d="M74 54 Q78 48 82 54 L82 64 L74 64 Z" fill="url(#g_steel)" stroke="#1a1208" stroke-width="0.7"></path>
      
      <circle cx="78" cy="98" r="32" fill="url(#g_steel)" stroke="#1a1208" stroke-width="1.2"></circle>
      <circle cx="78" cy="98" r="32" fill="none" stroke="url(#g_brass)" stroke-width="2"></circle>
      <circle cx="78" cy="98" r="32" fill="none" stroke="#1a1208" stroke-width="0.5"></circle>
      
      <path d="M78 78 L78 118" stroke="#1a1208" stroke-width="2"></path>
      <path d="M62 98 L94 98" stroke="#1a1208" stroke-width="2"></path>
      <circle cx="78" cy="98" r="5" fill="url(#g_brass)" stroke="#1a1208" stroke-width="0.6"></circle>
      
      <path d="M58 78 Q70 70 86 70 L86 76 Q72 78 62 88 Z" fill="#f0ece4" opacity="0.3"></path>
      
      <path d="M52 110 Q78 128 104 110 Q98 124 78 128 Q58 124 52 110 Z" fill="#0d0a06" opacity="0.45"></path>
    </g>
  </symbol>

  <symbol id="icon_amulet_t3" viewBox="0 0 156 156">
    <rect width="156" height="156" fill="url(#bg_agi)"></rect>
    <g>
      <path d="M26 48 Q78 28 130 48" fill="none" stroke="url(#g_chain)" stroke-width="3.4" stroke-linecap="round"></path>
      <path d="M26 48 Q78 28 130 48" fill="none" stroke="#1a1208" stroke-width="0.6" stroke-dasharray="3,3"></path>
      <circle cx="32" cy="50" r="3" fill="url(#g_brass)" stroke="#1a1208" stroke-width="0.4"></circle>
      <circle cx="124" cy="50" r="3" fill="url(#g_brass)" stroke="#1a1208" stroke-width="0.4"></circle>
      
      <path d="M70 52 Q78 42 86 52 L86 64 L70 64 Z" fill="url(#g_brass)" stroke="#1a1208" stroke-width="0.8"></path>
      <circle cx="78" cy="58" r="2.5" fill="#1a1208"></circle>
      
      <path d="M78 64 L108 84 L108 112 L78 134 L48 112 L48 84 Z" fill="url(#g_brass)" stroke="#1a1208" stroke-width="1.2"></path>
      
      <path d="M78 74 L98 88 L98 108 L78 122 L58 108 L58 88 Z" fill="url(#g_steel)" stroke="#1a1208" stroke-width="0.9"></path>
      
      <ellipse cx="78" cy="98" rx="14" ry="16" fill="url(#g_fire)" stroke="#1a1208" stroke-width="1"></ellipse>
      <path d="M70 92 L78 84 L86 92 L78 112 Z" fill="none" stroke="#1a1208" stroke-width="0.5" opacity="0.5"></path>
      <path d="M73 90 L78 86 L82 90 L78 98 Z" fill="#ffffff" opacity="0.55"></path>
      
      <circle cx="58" cy="88" r="2" fill="url(#g_rivet)" stroke="#1a1208" stroke-width="0.3"></circle>
      <circle cx="98" cy="88" r="2" fill="url(#g_rivet)" stroke="#1a1208" stroke-width="0.3"></circle>
      <circle cx="58" cy="108" r="2" fill="url(#g_rivet)" stroke="#1a1208" stroke-width="0.3"></circle>
      <circle cx="98" cy="108" r="2" fill="url(#g_rivet)" stroke="#1a1208" stroke-width="0.3"></circle>
      
      <path d="M52 86 Q66 72 78 70 L78 76 Q66 80 56 92 Z" fill="#f0ece4" opacity="0.32"></path>
      
      <path d="M58 116 Q78 132 98 116 Q92 128 78 132 Q64 128 58 116 Z" fill="#0d0a06" opacity="0.5"></path>
    </g>
  </symbol>

  

  <symbol id="icon_weapon_rune_t1" viewBox="0 0 156 156">
    <rect width="156" height="156" fill="url(#bg_str)"></rect>
    <g>
      
      <circle cx="78" cy="78" r="48" fill="url(#g_stone)" stroke="#1a1208" stroke-width="1.3"></circle>
      
      <path d="M120 64 L126 60 L124 72 Z" fill="#0d0a06" opacity="0.6"></path>
      
      <circle cx="78" cy="78" r="36" fill="none" stroke="#1a1208" stroke-width="0.9" opacity="0.6"></circle>
      
      <g stroke="#c8311a" stroke-width="3.2" stroke-linecap="round" fill="none">
        <path d="M62 62 L94 94"></path>
        <path d="M94 62 L62 94"></path>
      </g>
      
      <circle cx="62" cy="62" r="3" fill="#c8311a"></circle>
      <circle cx="94" cy="62" r="3" fill="#c8311a"></circle>
      
      <circle cx="56" cy="50" r="1.4" fill="#0d0a06" opacity="0.5"></circle>
      <circle cx="100" cy="100" r="1.6" fill="#0d0a06" opacity="0.5"></circle>
      <circle cx="50" cy="92" r="1.2" fill="#0d0a06" opacity="0.45"></circle>
      
      <path d="M44 56 Q56 38 78 36 L76 44 Q60 48 50 64 Z" fill="#f0ece4" opacity="0.18"></path>
      
      <path d="M44 102 Q78 124 112 102 Q98 122 78 124 Q58 122 44 102 Z" fill="#0d0a06" opacity="0.4"></path>
    </g>
  </symbol>

  <symbol id="icon_weapon_rune_t2" viewBox="0 0 156 156">
    <rect width="156" height="156" fill="url(#bg_str)"></rect>
    <g>
      <circle cx="78" cy="78" r="50" fill="url(#g_stone)" stroke="#1a1208" stroke-width="1.3"></circle>
      
      <circle cx="78" cy="78" r="44" fill="none" stroke="#1a1208" stroke-width="1.2" opacity="0.7"></circle>
      <circle cx="78" cy="78" r="40" fill="none" stroke="#1a1208" stroke-width="0.6" opacity="0.5"></circle>
      
      <g stroke="#1a1208" stroke-width="1" opacity="0.7">
        <path d="M78 30 L78 38"></path>
        <path d="M78 118 L78 126"></path>
        <path d="M30 78 L38 78"></path>
        <path d="M118 78 L126 78"></path>
        <path d="M44 44 L50 50"></path>
        <path d="M112 44 L106 50"></path>
        <path d="M44 112 L50 106"></path>
        <path d="M112 112 L106 106"></path>
      </g>
      
      <g stroke="#c8311a" stroke-width="3.6" stroke-linecap="round" fill="none">
        <path d="M58 58 L98 98"></path>
        <path d="M98 58 L58 98"></path>
      </g>
      <path d="M52 78 L104 78" stroke="#c8311a" stroke-width="2" stroke-linecap="round"></path>
      <circle cx="58" cy="58" r="3.5" fill="#c8311a"></circle>
      <circle cx="98" cy="58" r="3.5" fill="#c8311a"></circle>
      <circle cx="58" cy="98" r="2.5" fill="#c8311a"></circle>
      <circle cx="98" cy="98" r="2.5" fill="#c8311a"></circle>
      
      <path d="M44 54 Q58 36 78 34 L76 42 Q58 46 50 62 Z" fill="#f0ece4" opacity="0.18"></path>
      <path d="M44 102 Q78 124 112 102 Q98 122 78 124 Q58 122 44 102 Z" fill="#0d0a06" opacity="0.4"></path>
    </g>
  </symbol>

  <symbol id="icon_weapon_rune_t3" viewBox="0 0 156 156">
    <rect width="156" height="156" fill="url(#bg_str)"></rect>
    <g>
      <circle cx="78" cy="78" r="52" fill="url(#g_stone)" stroke="#1a1208" stroke-width="1.4"></circle>
      
      <circle cx="78" cy="78" r="46" fill="none" stroke="#1a1208" stroke-width="1.2" opacity="0.7"></circle>
      <circle cx="78" cy="78" r="42" fill="none" stroke="#1a1208" stroke-width="0.6" opacity="0.5"></circle>
      <circle cx="78" cy="78" r="38" fill="none" stroke="#1a1208" stroke-width="0.5" opacity="0.4"></circle>
      
      <g stroke="#1a1208" stroke-width="1.2" opacity="0.75">
        <path d="M78 26 L78 36"></path>
        <path d="M78 120 L78 130"></path>
        <path d="M26 78 L36 78"></path>
        <path d="M120 78 L130 78"></path>
        <path d="M40 40 L48 48"></path>
        <path d="M116 40 L108 48"></path>
        <path d="M40 116 L48 108"></path>
        <path d="M116 116 L108 108"></path>
      </g>
      
      <g filter="url(#f_glow_red)">
        <g stroke="#ff7040" stroke-width="4" stroke-linecap="round" fill="none">
          <path d="M56 56 L100 100"></path>
          <path d="M100 56 L56 100"></path>
        </g>
        <path d="M50 78 L106 78" stroke="#ff7040" stroke-width="2.4" stroke-linecap="round"></path>
        <circle cx="56" cy="56" r="4" fill="#ffd0a0"></circle>
        <circle cx="100" cy="56" r="4" fill="#ffd0a0"></circle>
        <circle cx="78" cy="78" r="3" fill="#ffe6c0"></circle>
      </g>
      
      <path d="M44 52 Q58 34 78 32 L76 40 Q58 44 48 60 Z" fill="#f0ece4" opacity="0.18"></path>
      <path d="M44 104 Q78 126 112 104 Q98 124 78 126 Q58 124 44 104 Z" fill="#0d0a06" opacity="0.4"></path>
    </g>
  </symbol>

  

  <symbol id="icon_armor_rune_t1" viewBox="0 0 156 156">
    <rect width="156" height="156" fill="url(#bg_int)"></rect>
    <g>
      <circle cx="78" cy="78" r="48" fill="url(#g_stone)" stroke="#1a1208" stroke-width="1.3"></circle>
      <path d="M120 64 L126 60 L124 72 Z" fill="#0d0a06" opacity="0.6"></path>
      <circle cx="78" cy="78" r="36" fill="none" stroke="#1a1208" stroke-width="0.9" opacity="0.6"></circle>
      
      <path d="M78 54 L96 60 L94 88 Q78 100 78 100 Q78 100 62 88 L60 60 Z" fill="none" stroke="#3a8acf" stroke-width="3.2" stroke-linejoin="round"></path>
      
      <path d="M78 70 L78 92" stroke="#3a8acf" stroke-width="2" stroke-linecap="round"></path>
      
      <circle cx="56" cy="50" r="1.4" fill="#0d0a06" opacity="0.5"></circle>
      <circle cx="100" cy="100" r="1.6" fill="#0d0a06" opacity="0.5"></circle>
      <circle cx="50" cy="92" r="1.2" fill="#0d0a06" opacity="0.45"></circle>
      <path d="M44 56 Q56 38 78 36 L76 44 Q60 48 50 64 Z" fill="#f0ece4" opacity="0.18"></path>
      <path d="M44 102 Q78 124 112 102 Q98 122 78 124 Q58 122 44 102 Z" fill="#0d0a06" opacity="0.4"></path>
    </g>
  </symbol>

  <symbol id="icon_armor_rune_t2" viewBox="0 0 156 156">
    <rect width="156" height="156" fill="url(#bg_int)"></rect>
    <g>
      <circle cx="78" cy="78" r="50" fill="url(#g_stone)" stroke="#1a1208" stroke-width="1.3"></circle>
      <circle cx="78" cy="78" r="44" fill="none" stroke="#1a1208" stroke-width="1.2" opacity="0.7"></circle>
      <circle cx="78" cy="78" r="40" fill="none" stroke="#1a1208" stroke-width="0.6" opacity="0.5"></circle>
      <g stroke="#1a1208" stroke-width="1" opacity="0.7">
        <path d="M78 30 L78 38"></path>
        <path d="M78 118 L78 126"></path>
        <path d="M30 78 L38 78"></path>
        <path d="M118 78 L126 78"></path>
        <path d="M44 44 L50 50"></path>
        <path d="M112 44 L106 50"></path>
        <path d="M44 112 L50 106"></path>
        <path d="M112 112 L106 106"></path>
      </g>
      
      <path d="M78 50 L100 58 L98 90 Q78 104 78 104 Q78 104 58 90 L56 58 Z" fill="none" stroke="#3a8acf" stroke-width="3.6" stroke-linejoin="round"></path>
      <path d="M78 64 L78 96" stroke="#3a8acf" stroke-width="2.2" stroke-linecap="round"></path>
      <path d="M66 76 L90 76" stroke="#3a8acf" stroke-width="2" stroke-linecap="round"></path>
      <path d="M44 54 Q58 36 78 34 L76 42 Q58 46 50 62 Z" fill="#f0ece4" opacity="0.18"></path>
      <path d="M44 102 Q78 124 112 102 Q98 122 78 124 Q58 122 44 102 Z" fill="#0d0a06" opacity="0.4"></path>
    </g>
  </symbol>

  <symbol id="icon_armor_rune_t3" viewBox="0 0 156 156">
    <rect width="156" height="156" fill="url(#bg_int)"></rect>
    <g>
      <circle cx="78" cy="78" r="52" fill="url(#g_stone)" stroke="#1a1208" stroke-width="1.4"></circle>
      <circle cx="78" cy="78" r="46" fill="none" stroke="#1a1208" stroke-width="1.2" opacity="0.7"></circle>
      <circle cx="78" cy="78" r="42" fill="none" stroke="#1a1208" stroke-width="0.6" opacity="0.5"></circle>
      <circle cx="78" cy="78" r="38" fill="none" stroke="#1a1208" stroke-width="0.5" opacity="0.4"></circle>
      <g stroke="#1a1208" stroke-width="1.2" opacity="0.75">
        <path d="M78 26 L78 36"></path>
        <path d="M78 120 L78 130"></path>
        <path d="M26 78 L36 78"></path>
        <path d="M120 78 L130 78"></path>
        <path d="M40 40 L48 48"></path>
        <path d="M116 40 L108 48"></path>
        <path d="M40 116 L48 108"></path>
        <path d="M116 116 L108 108"></path>
      </g>
      
      <g filter="url(#f_glow_blue)">
        <path d="M78 46 L102 56 L100 92 Q78 108 78 108 Q78 108 56 92 L54 56 Z" fill="none" stroke="#7ec8f0" stroke-width="4" stroke-linejoin="round"></path>
        <path d="M78 60 L78 100" stroke="#7ec8f0" stroke-width="2.6" stroke-linecap="round"></path>
        <path d="M64 74 L92 74" stroke="#7ec8f0" stroke-width="2.4" stroke-linecap="round"></path>
        <circle cx="78" cy="78" r="3" fill="#d8f0ff"></circle>
      </g>
      <path d="M44 52 Q58 34 78 32 L76 40 Q58 44 48 60 Z" fill="#f0ece4" opacity="0.18"></path>
      <path d="M44 104 Q78 126 112 104 Q98 124 78 126 Q58 124 44 104 Z" fill="#0d0a06" opacity="0.4"></path>
    </g>
  </symbol>

</svg>