<svg xmlns="http://www.w3.org/2000/svg" style="display:none" aria-hidden="true">
  <defs>
    <linearGradient id="g_steel" x1="0" y1="0" x2="0" y2="1">
      <stop offset="0" stop-color="#d8d4cc"></stop>
      <stop offset="0.5" stop-color="#8a857a"></stop>
      <stop offset="1" stop-color="#3a362e"></stop>
    </linearGradient>
    <linearGradient id="g_brass" x1="0" y1="0" x2="0" y2="1">
      <stop offset="0" stop-color="#e6c578"></stop>
      <stop offset="0.5" stop-color="#a07a2f"></stop>
      <stop offset="1" stop-color="#4a3818"></stop>
    </linearGradient>
    <linearGradient id="g_copper" x1="0" y1="0" x2="0" y2="1">
      <stop offset="0" stop-color="#e09060"></stop>
      <stop offset="0.5" stop-color="#9a5028"></stop>
      <stop offset="1" stop-color="#3e1d0e"></stop>
    </linearGradient>
    <linearGradient id="g_wood" x1="0" y1="0" x2="0" y2="1">
      <stop offset="0" stop-color="#7a5634"></stop>
      <stop offset="0.5" stop-color="#4d361f"></stop>
      <stop offset="1" stop-color="#241810"></stop>
    </linearGradient>
    <linearGradient id="g_leather" x1="0" y1="0" x2="0" y2="1">
      <stop offset="0" stop-color="#5a3a22"></stop>
      <stop offset="1" stop-color="#1f1208"></stop>
    </linearGradient>
    <linearGradient id="g_hide" x1="0" y1="0" x2="0" y2="1">
      <stop offset="0" stop-color="#7a6a58"></stop>
      <stop offset="0.5" stop-color="#4a3e30"></stop>
      <stop offset="1" stop-color="#1f1810"></stop>
    </linearGradient>
    <linearGradient id="g_fur" x1="0" y1="0" x2="0" y2="1">
      <stop offset="0" stop-color="#a89a82"></stop>
      <stop offset="1" stop-color="#3e342a"></stop>
    </linearGradient>
    <radialGradient id="g_nature" cx="0.4" cy="0.35" r="0.7">
      <stop offset="0" stop-color="#c8e090"></stop>
      <stop offset="0.4" stop-color="#5a8a32"></stop>
      <stop offset="0.85" stop-color="#2a4818"></stop>
      <stop offset="1" stop-color="#0e1a08"></stop>
    </radialGradient>

    <radialGradient id="bg_material" cx="0.5" cy="0.5" r="0.6">
      <stop offset="0" stop-color="#3a2a1a" stop-opacity="0.55"></stop>
      <stop offset="1" stop-color="#0b0905" stop-opacity="0"></stop>
    </radialGradient>
  </defs>

  
  <symbol id="icon_copper_ore" viewBox="0 0 156 156">
    <rect width="156" height="156" fill="url(#bg_material)"></rect>
    <g>
      
      <path d="M30 92 L42 56 L68 38 L102 42 L124 64 L128 96 L116 124 L84 132 L52 126 L34 110 Z" fill="url(#g_copper)" stroke="#1a1208" stroke-width="1.3" stroke-linejoin="round"></path>
      
      <path d="M52 60 L70 82 L62 104 L46 96 Z" fill="#0d0a06" opacity="0.35"></path>
      <path d="M96 56 L112 78 L100 92 L88 76 Z" fill="#0d0a06" opacity="0.3"></path>
      <path d="M82 100 L102 112 L88 126 L72 116 Z" fill="#0d0a06" opacity="0.32"></path>
      
      <path d="M40 76 Q56 70 70 78 Q86 88 100 80 Q114 74 124 82" fill="none" stroke="#f0a070" stroke-width="1.8" opacity="0.85" stroke-linecap="round"></path>
      <path d="M48 100 Q66 96 80 104 Q96 112 116 106" fill="none" stroke="#f0a070" stroke-width="1.4" opacity="0.7" stroke-linecap="round"></path>
      <path d="M58 50 Q72 56 84 50" fill="none" stroke="#f0a070" stroke-width="1.2" opacity="0.7" stroke-linecap="round"></path>
      
      <path d="M42 56 L68 38 L82 46 L60 64 Z" fill="#ffd0a0" opacity="0.25"></path>
      <path d="M68 38 L102 42 L96 58 L72 52 Z" fill="#ffd0a0" opacity="0.18"></path>
      
      <circle cx="74" cy="84" r="2" fill="#0d0a06" opacity="0.55"></circle>
      <circle cx="106" cy="100" r="1.6" fill="#0d0a06" opacity="0.5"></circle>
      <circle cx="58" cy="78" r="1.4" fill="#0d0a06" opacity="0.45"></circle>
      
      <path d="M40 116 L52 126 L84 132 L116 124 L122 116 Q98 126 78 128 Q56 126 40 116 Z" fill="#0d0a06" opacity="0.45"></path>
      
      <path d="M68 46 L72 50 L68 54 L64 50 Z" fill="#ffe6c0" opacity="0.7"></path>
    </g>
  </symbol>

  
  <symbol id="icon_willow_branch" viewBox="0 0 156 156">
    <rect width="156" height="156" fill="url(#bg_material)"></rect>
    <g transform="translate(78,78) rotate(-25) translate(-78,-78)">
      
      <path d="M28 122 Q50 96 78 80 Q108 64 130 32" fill="none" stroke="url(#g_wood)" stroke-width="9" stroke-linecap="round"></path>
      
      <path d="M28 122 Q50 96 78 80 Q108 64 130 32" fill="none" stroke="#1a1208" stroke-width="0.8" stroke-linecap="round" opacity="0.7"></path>
      
      <path d="M44 110 Q50 102 56 100" fill="none" stroke="#1a1208" stroke-width="0.6" opacity="0.5"></path>
      <path d="M68 90 Q74 84 80 82" fill="none" stroke="#1a1208" stroke-width="0.6" opacity="0.5"></path>
      <path d="M96 72 Q104 64 110 60" fill="none" stroke="#1a1208" stroke-width="0.6" opacity="0.5"></path>
      
      <path d="M30 118 Q52 92 80 76 Q110 60 128 30" fill="none" stroke="#a8845a" stroke-width="2" stroke-linecap="round" opacity="0.55"></path>
      
      <path d="M70 86 Q74 70 72 56" fill="none" stroke="url(#g_wood)" stroke-width="3.5" stroke-linecap="round"></path>
      <path d="M70 86 Q74 70 72 56" fill="none" stroke="#1a1208" stroke-width="0.5" stroke-linecap="round" opacity="0.7"></path>

      
      <g transform="translate(72,52) rotate(-20)">
        <path d="M0 0 Q-10 -14 0 -28 Q10 -14 0 0 Z" fill="url(#g_nature)" stroke="#1a1208" stroke-width="0.7"></path>
        <path d="M0 0 L0 -28" stroke="#1a1208" stroke-width="0.5" opacity="0.6"></path>
        <path d="M-3 -22 L0 -22" stroke="#1a1208" stroke-width="0.4" opacity="0.5"></path>
        <path d="M-3 -16 L0 -16" stroke="#1a1208" stroke-width="0.4" opacity="0.5"></path>
        <path d="M-2 -24 Q-1 -20 -3 -10" fill="none" stroke="#d8e8a0" stroke-width="0.6" opacity="0.7"></path>
      </g>

      
      <g transform="translate(96,72) rotate(40)">
        <path d="M0 0 Q-9 -12 0 -24 Q9 -12 0 0 Z" fill="url(#g_nature)" stroke="#1a1208" stroke-width="0.7"></path>
        <path d="M0 0 L0 -24" stroke="#1a1208" stroke-width="0.5" opacity="0.6"></path>
        <path d="M-2 -18 L0 -18" stroke="#1a1208" stroke-width="0.4" opacity="0.5"></path>
        <path d="M-2 -20 Q-1 -16 -2 -8" fill="none" stroke="#d8e8a0" stroke-width="0.6" opacity="0.6"></path>
      </g>

      
      <g transform="translate(56,108) rotate(180)">
        <path d="M0 0 Q-8 -11 0 -22 Q8 -11 0 0 Z" fill="url(#g_nature)" stroke="#1a1208" stroke-width="0.7"></path>
        <path d="M0 0 L0 -22" stroke="#1a1208" stroke-width="0.5" opacity="0.6"></path>
        <path d="M-2 -16 L0 -16" stroke="#1a1208" stroke-width="0.4" opacity="0.5"></path>
      </g>

      
      <circle cx="30" cy="122" r="3.5" fill="#1a1208" opacity="0.5"></circle>
      <circle cx="130" cy="32" r="3" fill="url(#g_wood)" stroke="#1a1208" stroke-width="0.6"></circle>
    </g>
  </symbol>

  
  <symbol id="icon_wolf_hide" viewBox="0 0 156 156">
    <rect width="156" height="156" fill="url(#bg_material)"></rect>
    <g>
      
      <path d="M34 50 Q28 40 38 32 Q56 28 78 34 Q102 28 120 36 Q130 44 124 56&#xA;               Q132 78 122 98 Q126 116 112 124 Q90 132 78 126 Q60 134 42 124&#xA;               Q30 112 36 96 Q26 76 34 50 Z" fill="url(#g_hide)" stroke="#1a1208" stroke-width="1.2" stroke-linejoin="round"></path>

      
      <g fill="url(#g_fur)" stroke="#1a1208" stroke-width="0.5">
        <path d="M40 32 L36 24 L44 30 Z"></path>
        <path d="M52 28 L50 18 L58 26 Z"></path>
        <path d="M64 26 L64 16 L70 24 Z"></path>
        <path d="M78 26 L80 16 L84 24 Z"></path>
        <path d="M92 26 L96 18 L98 26 Z"></path>
        <path d="M108 30 L114 20 L114 30 Z"></path>
        <path d="M122 36 L128 28 L126 38 Z"></path>
      </g>

      
      <g fill="url(#g_fur)" stroke="#1a1208" stroke-width="0.5">
        <path d="M30 60 L20 60 L30 68 Z"></path>
        <path d="M28 78 L18 80 L30 86 Z"></path>
        <path d="M32 100 L22 104 L34 110 Z"></path>
      </g>

      
      <g fill="url(#g_fur)" stroke="#1a1208" stroke-width="0.5">
        <path d="M126 64 L136 64 L126 72 Z"></path>
        <path d="M128 86 L138 90 L126 94 Z"></path>
        <path d="M122 110 L132 116 L120 118 Z"></path>
      </g>

      
      <g fill="url(#g_fur)" stroke="#1a1208" stroke-width="0.5">
        <path d="M50 124 L48 134 L58 128 Z"></path>
        <path d="M72 128 L74 138 L82 130 Z"></path>
        <path d="M96 128 L102 136 L106 126 Z"></path>
      </g>

      
      <path d="M50 60 Q70 56 90 64" fill="none" stroke="#1a1208" stroke-width="1.4" opacity="0.45" stroke-linecap="round"></path>
      <path d="M58 80 Q80 76 102 86" fill="none" stroke="#1a1208" stroke-width="1.6" opacity="0.5" stroke-linecap="round"></path>
      <path d="M52 100 Q72 102 94 106" fill="none" stroke="#1a1208" stroke-width="1.3" opacity="0.4" stroke-linecap="round"></path>

      
      <path d="M44 42 Q70 38 100 44 L98 52 Q72 48 50 54 Z" fill="#f0ece4" opacity="0.15"></path>

      
      <path d="M46 110 Q78 122 110 110 L108 120 Q78 128 48 120 Z" fill="#0d0a06" opacity="0.4"></path>

      
      <circle cx="60" cy="68" r="1" fill="#1a1208" opacity="0.5"></circle>
      <circle cx="86" cy="78" r="1.2" fill="#1a1208" opacity="0.5"></circle>
      <circle cx="74" cy="92" r="1" fill="#1a1208" opacity="0.45"></circle>
      <circle cx="98" cy="98" r="1.1" fill="#1a1208" opacity="0.5"></circle>
    </g>
  </symbol>

</svg>