
<svg xmlns="http://www.w3.org/2000/svg" style="display:none" aria-hidden="true">
  <defs>
    
    <linearGradient id="g_steel" x1="0" y1="0" x2="0" y2="1">
      <stop offset="0" stop-color="#d8d4cc"></stop>
      <stop offset="0.5" stop-color="#8a857a"></stop>
      <stop offset="1" stop-color="#3a362e"></stop>
    </linearGradient>
    <linearGradient id="g_steel_h" x1="0" y1="0" x2="1" y2="0">
      <stop offset="0" stop-color="#bfb9ad"></stop>
      <stop offset="0.5" stop-color="#75705f"></stop>
      <stop offset="1" stop-color="#2e2a22"></stop>
    </linearGradient>
    <linearGradient id="g_brass" x1="0" y1="0" x2="0" y2="1">
      <stop offset="0" stop-color="#e6c578"></stop>
      <stop offset="0.5" stop-color="#a07a2f"></stop>
      <stop offset="1" stop-color="#4a3818"></stop>
    </linearGradient>
    <linearGradient id="g_copper" x1="0" y1="0" x2="0" y2="1">
      <stop offset="0" stop-color="#e09060"></stop>
      <stop offset="0.5" stop-color="#9a5028"></stop>
      <stop offset="1" stop-color="#3e1d0e"></stop>
    </linearGradient>
    <linearGradient id="g_wood" x1="0" y1="0" x2="0" y2="1">
      <stop offset="0" stop-color="#7a5634"></stop>
      <stop offset="0.5" stop-color="#4d361f"></stop>
      <stop offset="1" stop-color="#241810"></stop>
    </linearGradient>
    <linearGradient id="g_leather" x1="0" y1="0" x2="0" y2="1">
      <stop offset="0" stop-color="#5a3a22"></stop>
      <stop offset="1" stop-color="#1f1208"></stop>
    </linearGradient>
    <linearGradient id="g_string" x1="0" y1="0" x2="0" y2="1">
      <stop offset="0" stop-color="#c8b890"></stop>
      <stop offset="1" stop-color="#5a4a30"></stop>
    </linearGradient>

    
    <radialGradient id="g_fire" cx="0.4" cy="0.35" r="0.7">
      <stop offset="0" stop-color="#ffe6b0"></stop>
      <stop offset="0.35" stop-color="#ff8a3a"></stop>
      <stop offset="0.75" stop-color="#a8330e"></stop>
      <stop offset="1" stop-color="#3a0e04"></stop>
    </radialGradient>
    <radialGradient id="g_water" cx="0.4" cy="0.35" r="0.7">
      <stop offset="0" stop-color="#e8f4ff"></stop>
      <stop offset="0.4" stop-color="#7ab8e8"></stop>
      <stop offset="0.85" stop-color="#264f7c"></stop>
      <stop offset="1" stop-color="#0c1f33"></stop>
    </radialGradient>
    <radialGradient id="g_earth" cx="0.4" cy="0.35" r="0.7">
      <stop offset="0" stop-color="#f0d090"></stop>
      <stop offset="0.4" stop-color="#b8843a"></stop>
      <stop offset="0.85" stop-color="#5a3a16"></stop>
      <stop offset="1" stop-color="#1f1208"></stop>
    </radialGradient>
    <radialGradient id="g_wind" cx="0.4" cy="0.35" r="0.7">
      <stop offset="0" stop-color="#f4fff0"></stop>
      <stop offset="0.4" stop-color="#c8e8b0"></stop>
      <stop offset="0.85" stop-color="#5a7a52"></stop>
      <stop offset="1" stop-color="#1c2a18"></stop>
    </radialGradient>
    <radialGradient id="g_nature" cx="0.4" cy="0.35" r="0.7">
      <stop offset="0" stop-color="#c8e090"></stop>
      <stop offset="0.4" stop-color="#5a8a32"></stop>
      <stop offset="0.85" stop-color="#2a4818"></stop>
      <stop offset="1" stop-color="#0e1a08"></stop>
    </radialGradient>

    
    <filter id="f_glow_red" x="-30%" y="-30%" width="160%" height="160%">
      <feGaussianBlur stdDeviation="2.5" result="b"></feGaussianBlur>
      <feFlood flood-color="#ff5a18" flood-opacity="0.55"></feFlood>
      <feComposite in2="b" operator="in" result="c"></feComposite>
      <feMerge><feMergeNode in="c"></feMergeNode><feMergeNode in="SourceGraphic"></feMergeNode></feMerge>
    </filter>
    <filter id="f_glow_blue" x="-30%" y="-30%" width="160%" height="160%">
      <feGaussianBlur stdDeviation="2.5" result="b"></feGaussianBlur>
      <feFlood flood-color="#5aa8e8" flood-opacity="0.55"></feFlood>
      <feComposite in2="b" operator="in" result="c"></feComposite>
      <feMerge><feMergeNode in="c"></feMergeNode><feMergeNode in="SourceGraphic"></feMergeNode></feMerge>
    </filter>
    <filter id="f_glow_amber" x="-30%" y="-30%" width="160%" height="160%">
      <feGaussianBlur stdDeviation="2.5" result="b"></feGaussianBlur>
      <feFlood flood-color="#e0a040" flood-opacity="0.5"></feFlood>
      <feComposite in2="b" operator="in" result="c"></feComposite>
      <feMerge><feMergeNode in="c"></feMergeNode><feMergeNode in="SourceGraphic"></feMergeNode></feMerge>
    </filter>
    <filter id="f_glow_pale" x="-30%" y="-30%" width="160%" height="160%">
      <feGaussianBlur stdDeviation="2.5" result="b"></feGaussianBlur>
      <feFlood flood-color="#d8f0c0" flood-opacity="0.5"></feFlood>
      <feComposite in2="b" operator="in" result="c"></feComposite>
      <feMerge><feMergeNode in="c"></feMergeNode><feMergeNode in="SourceGraphic"></feMergeNode></feMerge>
    </filter>
    <filter id="f_glow_green" x="-30%" y="-30%" width="160%" height="160%">
      <feGaussianBlur stdDeviation="2.5" result="b"></feGaussianBlur>
      <feFlood flood-color="#7abc4a" flood-opacity="0.5"></feFlood>
      <feComposite in2="b" operator="in" result="c"></feComposite>
      <feMerge><feMergeNode in="c"></feMergeNode><feMergeNode in="SourceGraphic"></feMergeNode></feMerge>
    </filter>

    
    <radialGradient id="g_rivet" cx="0.35" cy="0.35" r="0.7">
      <stop offset="0" stop-color="#ffd890"></stop>
      <stop offset="0.6" stop-color="#8c6520"></stop>
      <stop offset="1" stop-color="#2c1e08"></stop>
    </radialGradient>

    
    <radialGradient id="bg_str" cx="0.5" cy="0.5" r="0.6">
      <stop offset="0" stop-color="#3a1a14" stop-opacity="0.55"></stop>
      <stop offset="1" stop-color="#0b0905" stop-opacity="0"></stop>
    </radialGradient>
    <radialGradient id="bg_agi" cx="0.5" cy="0.5" r="0.6">
      <stop offset="0" stop-color="#1a3220" stop-opacity="0.55"></stop>
      <stop offset="1" stop-color="#0b0905" stop-opacity="0"></stop>
    </radialGradient>
    <radialGradient id="bg_int" cx="0.5" cy="0.5" r="0.6">
      <stop offset="0" stop-color="#172a3e" stop-opacity="0.55"></stop>
      <stop offset="1" stop-color="#0b0905" stop-opacity="0"></stop>
    </radialGradient>
  </defs>

  

  
  <symbol id="icon_sword" viewBox="0 0 156 156">
    <rect width="156" height="156" fill="url(#bg_str)"></rect>
    <g transform="translate(78,78) rotate(-45) translate(-78,-78)">
      
      <circle cx="78" cy="128" r="7" fill="url(#g_brass)" stroke="#1a1208" stroke-width="1"></circle>
      <circle cx="76" cy="126" r="2" fill="#f0d088" opacity="0.7"></circle>
      
      <rect x="74" y="106" width="8" height="22" fill="url(#g_leather)" stroke="#1a1208" stroke-width="0.7"></rect>
      <line x1="74" y1="110" x2="82" y2="110" stroke="#1a1208" stroke-width="0.5"></line>
      <line x1="74" y1="115" x2="82" y2="115" stroke="#1a1208" stroke-width="0.5"></line>
      <line x1="74" y1="120" x2="82" y2="120" stroke="#1a1208" stroke-width="0.5"></line>
      <line x1="74" y1="125" x2="82" y2="125" stroke="#1a1208" stroke-width="0.5"></line>
      
      <path d="M58 102 L98 102 L96 108 L60 108 Z" fill="url(#g_brass)" stroke="#1a1208" stroke-width="1"></path>
      <circle cx="58" cy="105" r="4" fill="url(#g_brass)" stroke="#1a1208" stroke-width="0.8"></circle>
      <circle cx="98" cy="105" r="4" fill="url(#g_brass)" stroke="#1a1208" stroke-width="0.8"></circle>
      
      <path d="M73 102 L78 22 L83 102 Z" fill="url(#g_steel)" stroke="#1a1208" stroke-width="1"></path>
      
      <path d="M77 100 L78 32 L79 100 Z" fill="#0d0a06" opacity="0.55"></path>
      
      <path d="M76 100 L78 30 L78 96 Z" fill="#f0ece4" opacity="0.35"></path>
    </g>
  </symbol>

  
  <symbol id="icon_mace" viewBox="0 0 156 156">
    <rect width="156" height="156" fill="url(#bg_str)"></rect>
    <g transform="translate(78,78) rotate(-30) translate(-78,-78)">
      
      <rect x="74" y="56" width="8" height="78" fill="url(#g_wood)" stroke="#1a1208" stroke-width="0.8"></rect>
      
      <rect x="73" y="92" width="10" height="3" fill="url(#g_brass)" stroke="#1a1208" stroke-width="0.5"></rect>
      <rect x="73" y="106" width="10" height="3" fill="url(#g_brass)" stroke="#1a1208" stroke-width="0.5"></rect>
      <rect x="73" y="120" width="10" height="3" fill="url(#g_brass)" stroke="#1a1208" stroke-width="0.5"></rect>
      
      <circle cx="78" cy="138" r="6" fill="url(#g_brass)" stroke="#1a1208" stroke-width="1"></circle>
      
      <rect x="70" y="56" width="16" height="5" fill="url(#g_brass)" stroke="#1a1208" stroke-width="0.8"></rect>
      
      <ellipse cx="78" cy="42" rx="20" ry="18" fill="url(#g_steel)" stroke="#1a1208" stroke-width="1"></ellipse>
      
      <path d="M78 22 L84 32 L78 36 L72 32 Z" fill="url(#g_steel_h)" stroke="#1a1208" stroke-width="0.8"></path>
      <path d="M78 62 L84 52 L78 48 L72 52 Z" fill="url(#g_steel_h)" stroke="#1a1208" stroke-width="0.8"></path>
      <path d="M58 42 L68 36 L72 42 L68 48 Z" fill="url(#g_steel_h)" stroke="#1a1208" stroke-width="0.8"></path>
      <path d="M98 42 L88 36 L84 42 L88 48 Z" fill="url(#g_steel_h)" stroke="#1a1208" stroke-width="0.8"></path>
      
      <path d="M76 22 L80 22 L78 12 Z" fill="url(#g_steel)" stroke="#1a1208" stroke-width="0.8"></path>
      
      <circle cx="78" cy="42" r="4" fill="url(#g_brass)" stroke="#1a1208" stroke-width="0.7"></circle>
    </g>
  </symbol>

  
  <symbol id="icon_greatsword" viewBox="0 0 156 156">
    <rect width="156" height="156" fill="url(#bg_str)"></rect>
    <g transform="translate(78,78) rotate(-45) translate(-78,-78)">
      
      <path d="M72 142 L84 142 L82 150 L74 150 Z" fill="url(#g_brass)" stroke="#1a1208" stroke-width="1"></path>
      <circle cx="78" cy="146" r="2" fill="#f0d088" opacity="0.6"></circle>
      
      <rect x="73" y="108" width="10" height="34" fill="url(#g_leather)" stroke="#1a1208" stroke-width="0.8"></rect>
      <line x1="73" y1="114" x2="83" y2="114" stroke="#1a1208" stroke-width="0.5"></line>
      <line x1="73" y1="120" x2="83" y2="120" stroke="#1a1208" stroke-width="0.5"></line>
      <line x1="73" y1="126" x2="83" y2="126" stroke="#1a1208" stroke-width="0.5"></line>
      <line x1="73" y1="132" x2="83" y2="132" stroke="#1a1208" stroke-width="0.5"></line>
      <line x1="73" y1="138" x2="83" y2="138" stroke="#1a1208" stroke-width="0.5"></line>
      
      <path d="M48 102 L108 102 L104 110 L52 110 Z" fill="url(#g_brass)" stroke="#1a1208" stroke-width="1"></path>
      <circle cx="48" cy="106" r="5" fill="url(#g_brass)" stroke="#1a1208" stroke-width="0.8"></circle>
      <circle cx="108" cy="106" r="5" fill="url(#g_brass)" stroke="#1a1208" stroke-width="0.8"></circle>
      
      <path d="M70 102 L78 8 L86 102 Z" fill="url(#g_steel)" stroke="#1a1208" stroke-width="1"></path>
      
      <path d="M75 100 L78 18 L81 100 Z" fill="#0d0a06" opacity="0.55"></path>
      
      <path d="M74 100 L78 16 L78 96 Z" fill="#f0ece4" opacity="0.35"></path>
    </g>
  </symbol>

  
  <symbol id="icon_spear" viewBox="0 0 156 156">
    <rect width="156" height="156" fill="url(#bg_str)"></rect>
    <g transform="translate(78,78) rotate(-30) translate(-78,-78)">
      
      <rect x="76" y="36" width="4" height="108" fill="url(#g_wood)" stroke="#1a1208" stroke-width="0.7"></rect>
      
      <rect x="74" y="60" width="8" height="3" fill="url(#g_copper)" stroke="#1a1208" stroke-width="0.4"></rect>
      <rect x="74" y="92" width="8" height="3" fill="url(#g_copper)" stroke="#1a1208" stroke-width="0.4"></rect>
      <rect x="74" y="124" width="8" height="3" fill="url(#g_copper)" stroke="#1a1208" stroke-width="0.4"></rect>
      
      <rect x="72" y="32" width="12" height="8" fill="url(#g_brass)" stroke="#1a1208" stroke-width="0.8"></rect>
      
      <path d="M78 6 Q88 18 86 32 L70 32 Q68 18 78 6 Z" fill="url(#g_steel)" stroke="#1a1208" stroke-width="1"></path>
      
      <path d="M78 8 L78 30" stroke="#0d0a06" stroke-width="1.5" stroke-linecap="round" opacity="0.6"></path>
      
      <path d="M76 28 Q72 20 76 10 L78 8 L78 28 Z" fill="#f0ece4" opacity="0.35"></path>
      
      <rect x="73" y="142" width="10" height="6" fill="url(#g_brass)" stroke="#1a1208" stroke-width="0.7"></rect>
    </g>
  </symbol>

  
  <symbol id="icon_hammer" viewBox="0 0 156 156">
    <rect width="156" height="156" fill="url(#bg_str)"></rect>
    <g transform="translate(78,78) rotate(-30) translate(-78,-78)">
      
      <rect x="74" y="50" width="8" height="92" fill="url(#g_wood)" stroke="#1a1208" stroke-width="0.8"></rect>
      
      <rect x="73" y="78" width="10" height="3" fill="url(#g_copper)" stroke="#1a1208" stroke-width="0.5"></rect>
      <rect x="73" y="98" width="10" height="3" fill="url(#g_copper)" stroke="#1a1208" stroke-width="0.5"></rect>
      <rect x="73" y="118" width="10" height="3" fill="url(#g_copper)" stroke="#1a1208" stroke-width="0.5"></rect>
      
      <rect x="71" y="138" width="14" height="8" fill="url(#g_brass)" stroke="#1a1208" stroke-width="0.8"></rect>
      
      <rect x="44" y="32" width="68" height="26" fill="url(#g_steel)" stroke="#1a1208" stroke-width="1"></rect>
      
      <rect x="40" y="34" width="6" height="22" fill="url(#g_brass)" stroke="#1a1208" stroke-width="0.8"></rect>
      <rect x="110" y="34" width="6" height="22" fill="url(#g_brass)" stroke="#1a1208" stroke-width="0.8"></rect>
      
      <circle cx="56" cy="40" r="2.5" fill="url(#g_rivet)"></circle>
      <circle cx="56" cy="50" r="2.5" fill="url(#g_rivet)"></circle>
      <circle cx="100" cy="40" r="2.5" fill="url(#g_rivet)"></circle>
      <circle cx="100" cy="50" r="2.5" fill="url(#g_rivet)"></circle>
      
      <rect x="69" y="56" width="18" height="6" fill="url(#g_brass)" stroke="#1a1208" stroke-width="0.7"></rect>
      <rect x="69" y="28" width="18" height="6" fill="url(#g_brass)" stroke="#1a1208" stroke-width="0.7"></rect>
      
      <path d="M74 28 L82 28 L78 16 Z" fill="url(#g_steel)" stroke="#1a1208" stroke-width="0.8"></path>
      
      <rect x="46" y="34" width="64" height="3" fill="#f0ece4" opacity="0.3"></rect>
    </g>
  </symbol>

  

  
  <symbol id="icon_dagger" viewBox="0 0 156 156">
    <rect width="156" height="156" fill="url(#bg_agi)"></rect>
    <g transform="translate(78,78) rotate(-45) translate(-78,-78)">
      
      <circle cx="78" cy="118" r="6" fill="url(#g_brass)" stroke="#1a1208" stroke-width="0.8"></circle>
      <circle cx="78" cy="118" r="3" fill="#3a8a4a" stroke="#1a1208" stroke-width="0.4"></circle>
      
      <rect x="75" y="100" width="6" height="18" fill="url(#g_leather)" stroke="#1a1208" stroke-width="0.6"></rect>
      <line x1="75" y1="105" x2="81" y2="105" stroke="#1a1208" stroke-width="0.4"></line>
      <line x1="75" y1="110" x2="81" y2="110" stroke="#1a1208" stroke-width="0.4"></line>
      <line x1="75" y1="115" x2="81" y2="115" stroke="#1a1208" stroke-width="0.4"></line>
      
      <path d="M64 96 Q78 92 92 96 L90 102 Q78 99 66 102 Z" fill="url(#g_brass)" stroke="#1a1208" stroke-width="0.8"></path>
      
      <path d="M76 96 Q70 70 78 40 Q82 70 80 96 Z" fill="url(#g_steel)" stroke="#1a1208" stroke-width="0.9"></path>
      
      <path d="M77 94 Q75 70 78 46 Q80 70 79 94 Z" fill="#0d0a06" opacity="0.5"></path>
      
      <path d="M76 94 Q73 68 78 44 L78 90 Z" fill="#f0ece4" opacity="0.3"></path>
    </g>
  </symbol>

  
  <symbol id="icon_fists" viewBox="0 0 156 156">
    <rect width="156" height="156" fill="url(#bg_agi)"></rect>
    
    <g transform="translate(60,90) rotate(-15) translate(-60,-90)" opacity="0.85">
      <path d="M30 70 Q30 50 50 50 L80 50 Q100 50 100 70 L100 90 Q100 110 80 110 L50 110 Q30 110 30 90 Z" fill="url(#g_brass)" stroke="#1a1208" stroke-width="1.2"></path>
      <circle cx="48" cy="70" r="6" fill="#0d0a06"></circle>
      <circle cx="65" cy="70" r="6" fill="#0d0a06"></circle>
      <circle cx="82" cy="70" r="6" fill="#0d0a06"></circle>
      
      <path d="M44 50 L48 38 L52 50 Z" fill="url(#g_steel)" stroke="#1a1208" stroke-width="0.7"></path>
      <path d="M61 50 L65 38 L69 50 Z" fill="url(#g_steel)" stroke="#1a1208" stroke-width="0.7"></path>
      <path d="M78 50 L82 38 L86 50 Z" fill="url(#g_steel)" stroke="#1a1208" stroke-width="0.7"></path>
    </g>
    
    <g transform="translate(96,66) rotate(15) translate(-96,-66)">
      <path d="M58 46 Q58 26 78 26 L108 26 Q128 26 128 46 L128 66 Q128 86 108 86 L78 86 Q58 86 58 66 Z" fill="url(#g_brass)" stroke="#1a1208" stroke-width="1.2"></path>
      <circle cx="76" cy="46" r="6" fill="#0d0a06"></circle>
      <circle cx="93" cy="46" r="6" fill="#0d0a06"></circle>
      <circle cx="110" cy="46" r="6" fill="#0d0a06"></circle>
      
      <path d="M72 26 L76 14 L80 26 Z" fill="url(#g_steel)" stroke="#1a1208" stroke-width="0.7"></path>
      <path d="M89 26 L93 14 L97 26 Z" fill="url(#g_steel)" stroke="#1a1208" stroke-width="0.7"></path>
      <path d="M106 26 L110 14 L114 26 Z" fill="url(#g_steel)" stroke="#1a1208" stroke-width="0.7"></path>
      
      <path d="M62 30 Q62 28 70 28 L120 28 Q124 28 124 32 L124 36 L62 36 Z" fill="#f0d088" opacity="0.35"></path>
    </g>
  </symbol>

  
  <symbol id="icon_shortbow" viewBox="0 0 156 156">
    <rect width="156" height="156" fill="url(#bg_agi)"></rect>
    <g transform="translate(78,78) rotate(15) translate(-78,-78)">
      
      <path d="M62 38 Q42 78 62 118" stroke="url(#g_wood)" stroke-width="7" fill="none" stroke-linecap="round"></path>
      <path d="M62 38 Q42 78 62 118" stroke="#1a1208" stroke-width="8" fill="none" stroke-linecap="round" opacity="0.4" transform="translate(0,1)"></path>
      
      <path d="M62 38 Q66 30 70 28" stroke="url(#g_wood)" stroke-width="5" fill="none" stroke-linecap="round"></path>
      <path d="M62 118 Q66 126 70 128" stroke="url(#g_wood)" stroke-width="5" fill="none" stroke-linecap="round"></path>
      
      <line x1="70" y1="28" x2="70" y2="128" stroke="url(#g_string)" stroke-width="1.2"></line>
      
      <rect x="46" y="72" width="8" height="14" fill="url(#g_leather)" stroke="#1a1208" stroke-width="0.6" rx="1"></rect>
      <line x1="46" y1="76" x2="54" y2="76" stroke="#1a1208" stroke-width="0.4"></line>
      <line x1="46" y1="80" x2="54" y2="80" stroke="#1a1208" stroke-width="0.4"></line>
      
      <line x1="78" y1="78" x2="124" y2="78" stroke="url(#g_wood)" stroke-width="1.6"></line>
      
      <path d="M124 78 L116 74 L116 82 Z" fill="url(#g_steel)" stroke="#1a1208" stroke-width="0.5"></path>
      
      <path d="M82 78 L74 73 L74 75 L80 78 L74 81 L74 83 Z" fill="url(#g_copper)" stroke="#1a1208" stroke-width="0.4"></path>
      
      <circle cx="70" cy="78" r="1.5" fill="#1a1208"></circle>
    </g>
  </symbol>

  
  <symbol id="icon_longbow" viewBox="0 0 156 156">
    <rect width="156" height="156" fill="url(#bg_agi)"></rect>
    <g>
      
      <path d="M58 14 Q34 78 58 142" stroke="url(#g_wood)" stroke-width="6" fill="none" stroke-linecap="round"></path>
      <path d="M58 14 Q34 78 58 142" stroke="#1a1208" stroke-width="7" fill="none" stroke-linecap="round" opacity="0.35" transform="translate(0,1)"></path>
      
      <circle cx="58" cy="14" r="3" fill="url(#g_brass)" stroke="#1a1208" stroke-width="0.6"></circle>
      <circle cx="58" cy="142" r="3" fill="url(#g_brass)" stroke="#1a1208" stroke-width="0.6"></circle>
      
      <line x1="58" y1="14" x2="58" y2="142" stroke="url(#g_string)" stroke-width="1.2"></line>
      
      <rect x="36" y="68" width="8" height="20" fill="url(#g_leather)" stroke="#1a1208" stroke-width="0.6" rx="1"></rect>
      <line x1="36" y1="72" x2="44" y2="72" stroke="#1a1208" stroke-width="0.4"></line>
      <line x1="36" y1="76" x2="44" y2="76" stroke="#1a1208" stroke-width="0.4"></line>
      <line x1="36" y1="80" x2="44" y2="80" stroke="#1a1208" stroke-width="0.4"></line>
      <line x1="36" y1="84" x2="44" y2="84" stroke="#1a1208" stroke-width="0.4"></line>
      
      <line x1="64" y1="78" x2="124" y2="78" stroke="url(#g_wood)" stroke-width="1.8"></line>
      
      <path d="M124 78 L114 73 L114 83 Z" fill="url(#g_steel)" stroke="#1a1208" stroke-width="0.5"></path>
      
      <path d="M68 78 L60 72 L60 75 L66 78 L60 81 L60 84 Z" fill="url(#g_copper)" stroke="#1a1208" stroke-width="0.4"></path>
      <circle cx="58" cy="78" r="1.5" fill="#1a1208"></circle>
    </g>
  </symbol>

  
  <symbol id="icon_crossbow" viewBox="0 0 156 156">
    <rect width="156" height="156" fill="url(#bg_agi)"></rect>
    <g transform="translate(78,78) rotate(-20) translate(-78,-78)">
      
      <path d="M16 60 Q78 48 140 60" stroke="url(#g_wood)" stroke-width="6" fill="none" stroke-linecap="round"></path>
      <path d="M16 60 Q78 48 140 60" stroke="#1a1208" stroke-width="7" fill="none" stroke-linecap="round" opacity="0.35" transform="translate(0,1)"></path>
      
      <line x1="16" y1="60" x2="78" y2="68" stroke="url(#g_string)" stroke-width="1.2"></line>
      <line x1="78" y1="68" x2="140" y2="60" stroke="url(#g_string)" stroke-width="1.2"></line>
      
      <path d="M58 60 L98 60 L120 124 L96 132 L78 92 L58 92 Z" fill="url(#g_wood)" stroke="#1a1208" stroke-width="1"></path>
      
      <line x1="20" y1="74" x2="98" y2="62" stroke="url(#g_wood)" stroke-width="1.6"></line>
      <path d="M20 74 L28 70 L28 78 Z" fill="url(#g_steel)" stroke="#1a1208" stroke-width="0.5"></path>
      
      <path d="M98 62 L106 56 L106 60 L102 62 L106 66 L106 70 Z" fill="url(#g_copper)" stroke="#1a1208" stroke-width="0.4"></path>
      
      <path d="M88 92 L94 96 L92 102 L86 100 Z" fill="url(#g_brass)" stroke="#1a1208" stroke-width="0.7"></path>
      
      <circle cx="78" cy="68" r="3" fill="url(#g_rivet)"></circle>
      <circle cx="68" cy="80" r="2" fill="url(#g_rivet)"></circle>
      <circle cx="86" cy="80" r="2" fill="url(#g_rivet)"></circle>
      
      <path d="M60 62 L96 62 L96 65 L60 65 Z" fill="#f0ece4" opacity="0.2"></path>
    </g>
  </symbol>

  

  

  
  <symbol id="icon_staff_fire" viewBox="0 0 156 156">
    <rect width="156" height="156" fill="url(#bg_int)"></rect>
    <g transform="translate(78,78) rotate(-20) translate(-78,-78)">
      
      <rect x="75" y="42" width="6" height="100" fill="url(#g_wood)" stroke="#1a1208" stroke-width="0.7"></rect>
      
      <rect x="73" y="62" width="10" height="3" fill="url(#g_copper)" stroke="#1a1208" stroke-width="0.4"></rect>
      <rect x="73" y="86" width="10" height="3" fill="url(#g_copper)" stroke="#1a1208" stroke-width="0.4"></rect>
      <rect x="73" y="110" width="10" height="3" fill="url(#g_copper)" stroke="#1a1208" stroke-width="0.4"></rect>
      <rect x="73" y="134" width="10" height="3" fill="url(#g_copper)" stroke="#1a1208" stroke-width="0.4"></rect>
      
      <path d="M64 46 Q66 36 72 32 L78 30 L84 32 Q90 36 92 46 L88 50 L78 46 L68 50 Z" fill="url(#g_brass)" stroke="#1a1208" stroke-width="0.9"></path>
      
      <g filter="url(#f_glow_red)">
        <path d="M78 8 L92 28 L84 44 L72 44 L64 28 Z" fill="url(#g_fire)" stroke="#3a0e04" stroke-width="0.8"></path>
        
        <path d="M78 8 L84 44 L78 30 Z" fill="#ffffff" opacity="0.25"></path>
        <path d="M78 8 L72 44 L78 30 Z" fill="#000000" opacity="0.25"></path>
      </g>
      
      <rect x="71" y="140" width="14" height="6" fill="url(#g_brass)" stroke="#1a1208" stroke-width="0.7"></rect>
    </g>
  </symbol>

  
  <symbol id="icon_staff_water" viewBox="0 0 156 156">
    <rect width="156" height="156" fill="url(#bg_int)"></rect>
    <g transform="translate(78,78) rotate(-20) translate(-78,-78)">
      <rect x="75" y="42" width="6" height="100" fill="url(#g_wood)" stroke="#1a1208" stroke-width="0.7"></rect>
      <rect x="73" y="62" width="10" height="3" fill="url(#g_steel_h)" stroke="#1a1208" stroke-width="0.4"></rect>
      <rect x="73" y="86" width="10" height="3" fill="url(#g_steel_h)" stroke="#1a1208" stroke-width="0.4"></rect>
      <rect x="73" y="110" width="10" height="3" fill="url(#g_steel_h)" stroke="#1a1208" stroke-width="0.4"></rect>
      <rect x="73" y="134" width="10" height="3" fill="url(#g_steel_h)" stroke="#1a1208" stroke-width="0.4"></rect>
      <path d="M64 46 Q66 36 72 32 L78 30 L84 32 Q90 36 92 46 L88 50 L78 46 L68 50 Z" fill="url(#g_steel_h)" stroke="#1a1208" stroke-width="0.9"></path>
      <g filter="url(#f_glow_blue)">
        
        <path d="M78 8 L88 30 L82 44 L74 44 L68 30 Z" fill="url(#g_water)" stroke="#0c1f33" stroke-width="0.8"></path>
        <path d="M78 8 L82 44 L78 30 Z" fill="#ffffff" opacity="0.3"></path>
        <path d="M78 8 L74 44 L78 30 Z" fill="#000000" opacity="0.25"></path>
        
        <path d="M68 30 L62 22 L66 36 Z" fill="url(#g_water)" stroke="#0c1f33" stroke-width="0.6"></path>
        <path d="M88 30 L94 22 L90 36 Z" fill="url(#g_water)" stroke="#0c1f33" stroke-width="0.6"></path>
      </g>
      <rect x="71" y="140" width="14" height="6" fill="url(#g_steel_h)" stroke="#1a1208" stroke-width="0.7"></rect>
    </g>
  </symbol>

  
  <symbol id="icon_staff_earth" viewBox="0 0 156 156">
    <rect width="156" height="156" fill="url(#bg_int)"></rect>
    <g transform="translate(78,78) rotate(-20) translate(-78,-78)">
      <rect x="74" y="42" width="8" height="100" fill="url(#g_wood)" stroke="#1a1208" stroke-width="0.7"></rect>
      <rect x="72" y="62" width="12" height="3" fill="url(#g_brass)" stroke="#1a1208" stroke-width="0.4"></rect>
      <rect x="72" y="86" width="12" height="3" fill="url(#g_brass)" stroke="#1a1208" stroke-width="0.4"></rect>
      <rect x="72" y="110" width="12" height="3" fill="url(#g_brass)" stroke="#1a1208" stroke-width="0.4"></rect>
      <rect x="72" y="134" width="12" height="3" fill="url(#g_brass)" stroke="#1a1208" stroke-width="0.4"></rect>
      
      <path d="M62 50 Q60 40 68 32 L78 28 L88 32 Q96 40 94 50 L86 52 L78 48 L70 52 Z" fill="url(#g_brass)" stroke="#1a1208" stroke-width="0.9"></path>
      <g filter="url(#f_glow_amber)">
        
        <path d="M78 6 L92 18 L96 32 L90 44 L78 46 L66 44 L60 32 L64 18 Z" fill="url(#g_earth)" stroke="#1f1208" stroke-width="0.9"></path>
        
        <path d="M78 6 L96 32 L78 28 Z" fill="#ffffff" opacity="0.22"></path>
        <path d="M78 6 L60 32 L78 28 Z" fill="#000000" opacity="0.25"></path>
        <path d="M78 28 L90 44 L78 46 Z" fill="#000000" opacity="0.18"></path>
      </g>
      <rect x="70" y="140" width="16" height="6" fill="url(#g_brass)" stroke="#1a1208" stroke-width="0.7"></rect>
    </g>
  </symbol>

  
  <symbol id="icon_staff_wind" viewBox="0 0 156 156">
    <rect width="156" height="156" fill="url(#bg_int)"></rect>
    <g transform="translate(78,78) rotate(-20) translate(-78,-78)">
      <rect x="75" y="42" width="6" height="100" fill="url(#g_wood)" stroke="#1a1208" stroke-width="0.7"></rect>
      <rect x="73" y="62" width="10" height="3" fill="url(#g_steel_h)" stroke="#1a1208" stroke-width="0.4"></rect>
      <rect x="73" y="86" width="10" height="3" fill="url(#g_steel_h)" stroke="#1a1208" stroke-width="0.4"></rect>
      <rect x="73" y="110" width="10" height="3" fill="url(#g_steel_h)" stroke="#1a1208" stroke-width="0.4"></rect>
      <rect x="73" y="134" width="10" height="3" fill="url(#g_steel_h)" stroke="#1a1208" stroke-width="0.4"></rect>
      
      <g fill="none" stroke="url(#g_steel_h)" stroke-width="2.4" stroke-linecap="round">
        <path d="M64 50 Q70 30 78 28 Q86 30 92 50"></path>
        <path d="M68 46 Q74 36 78 36 Q82 36 88 46"></path>
      </g>
      <g filter="url(#f_glow_pale)">
        
        <circle cx="78" cy="26" r="14" fill="url(#g_wind)" stroke="#1c2a18" stroke-width="0.8"></circle>
        
        <path d="M70 22 Q78 18 86 22 Q82 28 78 26 Q74 24 70 22 Z" fill="#ffffff" opacity="0.4"></path>
        <path d="M72 30 Q78 28 84 30" stroke="#ffffff" stroke-width="1" fill="none" opacity="0.5"></path>
      </g>
      <rect x="71" y="140" width="14" height="6" fill="url(#g_steel_h)" stroke="#1a1208" stroke-width="0.7"></rect>
    </g>
  </symbol>

  
  <symbol id="icon_staff_nature" viewBox="0 0 156 156">
    <rect width="156" height="156" fill="url(#bg_int)"></rect>
    <g transform="translate(78,78) rotate(-20) translate(-78,-78)">
      
      <path d="M78 142 Q72 100 76 60 Q80 50 78 42" stroke="url(#g_wood)" stroke-width="7" fill="none" stroke-linecap="round"></path>
      
      <path d="M78 142 Q72 100 76 60 Q80 50 78 42" stroke="#1a1208" stroke-width="0.8" fill="none" opacity="0.5"></path>
      
      <path d="M70 90 Q78 86 86 90" stroke="#3a5a22" stroke-width="1.4" fill="none"></path>
      <path d="M70 110 Q78 106 86 110" stroke="#3a5a22" stroke-width="1.4" fill="none"></path>
      
      <g filter="url(#f_glow_green)">
        
        <path d="M78 42 Q70 30 60 26 Q56 22 60 18" stroke="url(#g_wood)" stroke-width="5" fill="none" stroke-linecap="round"></path>
        <path d="M78 42 Q86 30 96 26 Q100 22 96 18" stroke="url(#g_wood)" stroke-width="5" fill="none" stroke-linecap="round"></path>
        
        <path d="M58 14 Q50 16 48 24 Q56 22 60 18 Z" fill="url(#g_nature)" stroke="#0e1a08" stroke-width="0.6"></path>
        <path d="M98 14 Q106 16 108 24 Q100 22 96 18 Z" fill="url(#g_nature)" stroke="#0e1a08" stroke-width="0.6"></path>
        <path d="M68 22 Q60 30 64 38 Q72 34 70 26 Z" fill="url(#g_nature)" stroke="#0e1a08" stroke-width="0.6"></path>
        <path d="M88 22 Q96 30 92 38 Q84 34 86 26 Z" fill="url(#g_nature)" stroke="#0e1a08" stroke-width="0.6"></path>
        
        <circle cx="78" cy="36" r="4" fill="url(#g_nature)" stroke="#0e1a08" stroke-width="0.6"></circle>
        <circle cx="77" cy="35" r="1.2" fill="#ffffff" opacity="0.5"></circle>
      </g>
      
      <rect x="71" y="140" width="14" height="6" fill="url(#g_brass)" stroke="#1a1208" stroke-width="0.7"></rect>
    </g>
  </symbol>

</svg>